<svg width="9" height="5" version="1.1" viewBox="0 0 9 5" xmlns="http://www.w3.org/2000/svg">
  <style>
    .hidden { display: none; }
    :target { display: block; }
  </style>
  <g id="down" class="hidden">
    <path fill="#8d2939" d="m4.5113 3.4984 3.396-3.3013a0.63927 0.62091 0 0 1 0.90611 0 0.64695 0.62837 0 0 1 0 0.88289l-3.8481 3.7385a0.64023 0.62184 0 0 1-0.885 0.017714l-3.875-3.7553a0.64215 0.62371 0 1 1 0.90611-0.88289z"/>
  </g>
  <g id="up" class="hidden">
    <path fill="#8d2939" d="m4.4887 1.5016-3.396 3.3013a0.63927 0.62091 0 0 1-0.90611 0 0.64695 0.62837 0 0 1 0-0.88289l3.8481-3.7385a0.64023 0.62184 0 0 1 0.885-0.017714l3.875 3.7553a0.64215 0.62371 0 1 1-0.90611 0.88289z"/>
  </g>
  <g id="black-down" class="hidden">
    <path fill="#000000" d="m4.5113 3.4984 3.396-3.3013a0.63927 0.62091 0 0 1 0.90611 0 0.64695 0.62837 0 0 1 0 0.88289l-3.8481 3.7385a0.64023 0.62184 0 0 1-0.885 0.017714l-3.875-3.7553a0.64215 0.62371 0 1 1 0.90611-0.88289z"/>
  </g>
</svg>
