<svg xmlns="http://www.w3.org/2000/svg" width="23" height="23" viewBox="0 0 23.079 20.945">
    <style>
        .hidden { display: none; }
        :target { display: block; }
    </style>
    <g id="off" class="hidden">
        <path transform="translate(575.31 -1.053)" stroke="#000000" stroke-width="0.75" d="M-552.62,7.217c0-.047,0-.093-.007-.14a.093.093,0,0,0,0-.013c-.012-.029-.011-.032-.006-.022,0-.009,0-.018-.008-.026a.3.3,0,0,1-.015-.125,5.7,5.7,0,0,0-4.367-5.316,6.017,6.017,0,0,0-6.759,3.585c-1.441-2.746-3.62-4.171-6.811-3.554-2.14.414-4.036,2.187-4.339,5.34,0,.338.013.89.013.951,0,.045,0,.33.006.612.084.447.156.913.273,1.367A13.193,13.193,0,0,0-571.8,15.05a31.322,31.322,0,0,0,7.69,6.465.543.543,0,0,0,.646,0c.8-.536,1.619-1.042,2.4-1.607a27.735,27.735,0,0,0,5.78-5.468,12.651,12.651,0,0,0,2.35-4.567c.125-.491.2-1,.293-1.488V8.4c0-.035.009-.068.009-.067l.012-.058c0-.006,0-.014,0-.024s0-.047.007-.071.008-.064.012-.1V7.336C-552.612,7.3-552.617,7.257-552.62,7.217Zm-1.364,2.895a13.256,13.256,0,0,1-2.629,4.468,30.275,30.275,0,0,1-6.518,5.621c-.169.112-.346.212-.509.331a.236.236,0,0,1-.308,0,35.129,35.129,0,0,1-3.836-2.8,24.209,24.209,0,0,1-3.749-3.843A11.593,11.593,0,0,1-573.82,9.3c-.114-.533-.156-1.082-.194-1.363a6.01,6.01,0,0,1,1.084-3.8,4.575,4.575,0,0,1,5.191-1.5,5.279,5.279,0,0,1,3.375,3.813c.039.138.066.28.1.421a.487.487,0,0,0,.483.442.485.485,0,0,0,.461-.442A5.969,5.969,0,0,1-562.632,5,4.827,4.827,0,0,1-557.9,2.4a4.32,4.32,0,0,1,3.934,3A6.958,6.958,0,0,1-553.984,10.112Z"/>
    </g>
    <g id="on" class="hidden">
        <path  transform="translate(271.238 -495.376)" fill="#8c2837" d="M-248.106,501.331l-.051-.261c-.337-2.6-1.631-4.671-4.41-5.438-2.99-.826-5.288.409-7.14,2.82-.191-.253-.347-.467-.511-.674a5.937,5.937,0,0,0-6-2.263,5.558,5.558,0,0,0-4.63,4.127,9.142,9.142,0,0,0,1.18,7.625,26.012,26.012,0,0,0,8.4,8.257c1.754,1.17,1.529,1.139,3.246-.014a25.774,25.774,0,0,0,8.55-8.555,10.763,10.763,0,0,0,1.41-5.167C-248.088,501.647-248.084,501.4-248.106,501.331Z"/>
    </g>
</svg>
