<svg width="16" height="16" version="1.1" viewBox="0 0 16 16" xmlns="http://www.w3.org/2000/svg">
 <g fill="#8c2837" stroke-width="1">
  <path d="m5.4181 6.3854v-1.0298a7.9617 7.9617 0 0 1 2.7785 0.22961 2.6284 2.6284 0 0 1 1.5666 2.827 2.5712 2.5712 0 0 1-2.362 2.1885c-1.0938 0.05619-2.1914 0.03391-3.2872 0.04166a1.7439 1.7439 0 0 0-1.4774 0.65492 1.6276 1.6276 0 0 0 1.0308 2.5964 4.0176 4.0176 0 0 0 0.60938 0.03488h6.1103 0.42337v0.97462c-0.11432 0.0068-0.22476 0.02035-0.33521 0.02035h-6.2973a2.6913 2.6913 0 0 1-2.5838-1.4435 2.6071 2.6071 0 0 1 2.0422-3.7939c1.117-0.071692 2.2418-0.031002 3.3627-0.04844a1.6363 1.6363 0 0 0 1.7439-1.2992 1.5985 1.5985 0 0 0-1.3563-1.9454c-0.6491-0.050378-1.3001-0.0077505-1.9686-0.0077505z"/>
  <path d="m3.3701 3.1418a10.076 10.076 0 0 0 0.013563 1.0802c0.011626 0.10754 0.17535 0.21604 0.29064 0.29064a1.5646 1.5646 0 0 1-0.559 2.8919 1.5821 1.5821 0 0 1-1.6586-0.83802 1.5365 1.5365 0 0 1 0.61907-2.051 0.50378 0.50378 0 0 0 0.29064-0.53769c-0.00872-1.0957-0.00581-2.1924 0-3.2881 0-0.52606 0.15501-0.67817 0.68689-0.68592q1.4145-0.0077505 2.8289 0c0.55028 0 0.70239 0.15985 0.70529 0.70917 0 0.58613 0.00581 1.1723 0 1.7584-0.00581 0.50184-0.16373 0.66363-0.66945 0.66848-0.83511 0.00678-1.6605 0.00194-2.548 0.00194z"/>
  <path d="m11.573 14.436a1.5714 1.5714 0 1 1 1.5888 1.5637 1.5685 1.5685 0 0 1-1.5888-1.5637z"/>
 </g>
</svg>
