<svg width="18" height="18" version="1.1" viewBox="0 0 18 18" xmlns="http://www.w3.org/2000/svg">
 <g transform="translate(1.4071 1.4126)">
  <path transform="translate(-1557.6 -1395.8)" d="m1557.6 1402.3a6.5 6.5 0 0 1 11.59-4.038 6.327 6.327 0 0 1 0.356 7.573c-0.461 0.674-0.326 0.989 0.188 1.465 0.932 0.862 1.808 1.784 2.7 2.686 0.246 0.248 0.549 0.536 0.183 0.873-0.313 0.288-0.579 0.022-0.81-0.21-1.143-1.143-2.27-2.3-3.438-3.421-0.5-0.476-0.418-0.809-0.01-1.306a5.6 5.6 0 1 0-8.731-0.226 5.655 5.655 0 0 0 6.438 1.875c0.385-0.142 0.643-0.37 0.831 0.1 0.2 0.453-0.165 0.614-0.565 0.758a6.483 6.483 0 0 1-8.732-6.129z" stroke="#000" stroke-width=".65"/>
 </g>
</svg>
