<svg version="1.1" xmlns="http://www.w3.org/2000/svg" width="28" height="28" viewBox="0 0 28 28">
    <title>Icons Sprite</title>
    <style>
        .hidden { display: none; }
        .black-fill {fill: #000000}
        .secondary-fill {fill: #cbccd4}
        .white-fill {fill: #ffffff}
        .primary-fill {fill: #8c2837}
        :target { display: block; }
    </style>
    <g id="instagram-black" class="hidden black-fill">
        <path d="m0 0v1 26 1h1 26 1v-1-27h-27-1zm1 1h26v26h-26v-26zm13 6.4062c-1.088 0-2.1762 0.013922-2.7207 0.044922a3.923 3.923 0 0 0-2.7637 1.0625 3.916 3.916 0 0 0-1.0645 2.7637c-0.062 1.089-0.062 4.3524 0 5.4414a3.9 3.9 0 0 0 1.0645 2.7637 3.934 3.934 0 0 0 2.7637 1.0664c1.089 0.062 4.3524 0.062 5.4414 0a3.9 3.9 0 0 0 2.7637-1.0664 3.929 3.929 0 0 0 1.0645-2.7617c0.062-1.089 0.062-4.3505 0-5.4395v-0.001953a3.9 3.9 0 0 0-1.0645-2.7617 3.929 3.929 0 0 0-2.7637-1.0664c-0.5445-0.031-1.6327-0.044922-2.7207-0.044922zm-1.0254 1.1562a14.534 14.534 0 0 1 1.0215 0.03125 14.648 14.648 0 0 1 3.8887 0.26562 2.226 2.226 0 0 1 1.2539 1.2539 14.534 14.534 0 0 1 0.27148 3.8867 14.526 14.526 0 0 1-0.26758 3.8867 2.226 2.226 0 0 1-1.2539 1.2539 14.534 14.534 0 0 1-3.8867 0.26562 14.648 14.648 0 0 1-3.8926-0.26562 2.226 2.226 0 0 1-1.2539-1.2539 14.534 14.534 0 0 1-0.26367-3.8867 14.648 14.648 0 0 1 0.26367-3.8867 2.226 2.226 0 0 1 1.2539-1.2539 14.534 14.534 0 0 1 2.8652-0.29688zm4.5469 1.1289a0.789 0.789 0 1 0 0.78906 0.78906 0.787 0.787 0 0 0-0.78906-0.78906zm-3.5195 0.92773a3.381 3.381 0 1 0 3.3809 3.3809 3.376 3.376 0 0 0-3.3809-3.3809zm-0.050781 1.1797a2.2 2.2 0 0 1 2.25 2.1992 2.2 2.2 0 0 1-2.1992 2.1992v0.001953a2.2 2.2 0 0 1-0.050781-4.4004z"/>
    </g>
    <g id="instagram-white" class="hidden white-fill">
        <path d="m0 0v1 26 1h1 26 1v-1-27h-27-1zm1 1h26v26h-26v-26zm13 6.4062c-1.088 0-2.1762 0.013922-2.7207 0.044922a3.923 3.923 0 0 0-2.7637 1.0625 3.916 3.916 0 0 0-1.0645 2.7637c-0.062 1.089-0.062 4.3524 0 5.4414a3.9 3.9 0 0 0 1.0645 2.7637 3.934 3.934 0 0 0 2.7637 1.0664c1.089 0.062 4.3524 0.062 5.4414 0a3.9 3.9 0 0 0 2.7637-1.0664 3.929 3.929 0 0 0 1.0645-2.7617c0.062-1.089 0.062-4.3505 0-5.4395v-0.001953a3.9 3.9 0 0 0-1.0645-2.7617 3.929 3.929 0 0 0-2.7637-1.0664c-0.5445-0.031-1.6327-0.044922-2.7207-0.044922zm-1.0254 1.1562a14.534 14.534 0 0 1 1.0215 0.03125 14.648 14.648 0 0 1 3.8887 0.26562 2.226 2.226 0 0 1 1.2539 1.2539 14.534 14.534 0 0 1 0.27148 3.8867 14.526 14.526 0 0 1-0.26758 3.8867 2.226 2.226 0 0 1-1.2539 1.2539 14.534 14.534 0 0 1-3.8867 0.26562 14.648 14.648 0 0 1-3.8926-0.26562 2.226 2.226 0 0 1-1.2539-1.2539 14.534 14.534 0 0 1-0.26367-3.8867 14.648 14.648 0 0 1 0.26367-3.8867 2.226 2.226 0 0 1 1.2539-1.2539 14.534 14.534 0 0 1 2.8652-0.29688zm4.5469 1.1289a0.789 0.789 0 1 0 0.78906 0.78906 0.787 0.787 0 0 0-0.78906-0.78906zm-3.5195 0.92773a3.381 3.381 0 1 0 3.3809 3.3809 3.376 3.376 0 0 0-3.3809-3.3809zm-0.050781 1.1797a2.2 2.2 0 0 1 2.25 2.1992 2.2 2.2 0 0 1-2.1992 2.1992v0.001953a2.2 2.2 0 0 1-0.050781-4.4004z"/>
    </g>
    <g id="instagram-secondary" class="hidden secondary-fill">
        <path d="m0 0v1 26 1h1 26 1v-1-27h-27-1zm1 1h26v26h-26v-26zm13 6.4062c-1.088 0-2.1762 0.013922-2.7207 0.044922a3.923 3.923 0 0 0-2.7637 1.0625 3.916 3.916 0 0 0-1.0645 2.7637c-0.062 1.089-0.062 4.3524 0 5.4414a3.9 3.9 0 0 0 1.0645 2.7637 3.934 3.934 0 0 0 2.7637 1.0664c1.089 0.062 4.3524 0.062 5.4414 0a3.9 3.9 0 0 0 2.7637-1.0664 3.929 3.929 0 0 0 1.0645-2.7617c0.062-1.089 0.062-4.3505 0-5.4395v-0.001953a3.9 3.9 0 0 0-1.0645-2.7617 3.929 3.929 0 0 0-2.7637-1.0664c-0.5445-0.031-1.6327-0.044922-2.7207-0.044922zm-1.0254 1.1562a14.534 14.534 0 0 1 1.0215 0.03125 14.648 14.648 0 0 1 3.8887 0.26562 2.226 2.226 0 0 1 1.2539 1.2539 14.534 14.534 0 0 1 0.27148 3.8867 14.526 14.526 0 0 1-0.26758 3.8867 2.226 2.226 0 0 1-1.2539 1.2539 14.534 14.534 0 0 1-3.8867 0.26562 14.648 14.648 0 0 1-3.8926-0.26562 2.226 2.226 0 0 1-1.2539-1.2539 14.534 14.534 0 0 1-0.26367-3.8867 14.648 14.648 0 0 1 0.26367-3.8867 2.226 2.226 0 0 1 1.2539-1.2539 14.534 14.534 0 0 1 2.8652-0.29688zm4.5469 1.1289a0.789 0.789 0 1 0 0.78906 0.78906 0.787 0.787 0 0 0-0.78906-0.78906zm-3.5195 0.92773a3.381 3.381 0 1 0 3.3809 3.3809 3.376 3.376 0 0 0-3.3809-3.3809zm-0.050781 1.1797a2.2 2.2 0 0 1 2.25 2.1992 2.2 2.2 0 0 1-2.1992 2.1992v0.001953a2.2 2.2 0 0 1-0.050781-4.4004z"/>
    </g>
    <g id="instagram-primary" class="hidden primary-fill">
        <path d="m0 0v1 26 1h1 26 1v-1-27h-27-1zm1 1h26v26h-26v-26zm13 6.4062c-1.088 0-2.1762 0.013922-2.7207 0.044922a3.923 3.923 0 0 0-2.7637 1.0625 3.916 3.916 0 0 0-1.0645 2.7637c-0.062 1.089-0.062 4.3524 0 5.4414a3.9 3.9 0 0 0 1.0645 2.7637 3.934 3.934 0 0 0 2.7637 1.0664c1.089 0.062 4.3524 0.062 5.4414 0a3.9 3.9 0 0 0 2.7637-1.0664 3.929 3.929 0 0 0 1.0645-2.7617c0.062-1.089 0.062-4.3505 0-5.4395v-0.001953a3.9 3.9 0 0 0-1.0645-2.7617 3.929 3.929 0 0 0-2.7637-1.0664c-0.5445-0.031-1.6327-0.044922-2.7207-0.044922zm-1.0254 1.1562a14.534 14.534 0 0 1 1.0215 0.03125 14.648 14.648 0 0 1 3.8887 0.26562 2.226 2.226 0 0 1 1.2539 1.2539 14.534 14.534 0 0 1 0.27148 3.8867 14.526 14.526 0 0 1-0.26758 3.8867 2.226 2.226 0 0 1-1.2539 1.2539 14.534 14.534 0 0 1-3.8867 0.26562 14.648 14.648 0 0 1-3.8926-0.26562 2.226 2.226 0 0 1-1.2539-1.2539 14.534 14.534 0 0 1-0.26367-3.8867 14.648 14.648 0 0 1 0.26367-3.8867 2.226 2.226 0 0 1 1.2539-1.2539 14.534 14.534 0 0 1 2.8652-0.29688zm4.5469 1.1289a0.789 0.789 0 1 0 0.78906 0.78906 0.787 0.787 0 0 0-0.78906-0.78906zm-3.5195 0.92773a3.381 3.381 0 1 0 3.3809 3.3809 3.376 3.376 0 0 0-3.3809-3.3809zm-0.050781 1.1797a2.2 2.2 0 0 1 2.25 2.1992 2.2 2.2 0 0 1-2.1992 2.1992v0.001953a2.2 2.2 0 0 1-0.050781-4.4004z"/>
    </g>

    <g id="fb-black" class="hidden black-fill">
        <path d="M 0 0 L 0 1 L 0 27 L 0 28 L 1 28 L 27 28 L 28 28 L 28 27 L 28 0 L 1 0 L 0 0 z M 1 1 L 27 1 L 27 27 L 1 27 L 1 1 z M 15.621094 6.4609375 A 3.329 3.329 0 0 0 12.361328 10.140625 L 12.361328 12.21875 L 9.9609375 12.21875 L 9.9609375 14.947266 L 12.361328 14.947266 L 12.361328 21.539062 L 15.3125 21.539062 L 15.3125 14.947266 L 17.509766 14.947266 L 17.927734 12.21875 L 15.3125 12.21875 L 15.3125 10.451172 A 1.363 1.363 0 0 1 16.849609 8.9765625 L 18.039062 8.9765625 L 18.039062 6.65625 A 14.505 14.505 0 0 0 15.927734 6.4707031 A 3.329 3.329 0 0 0 15.621094 6.4609375 z " />
    </g>
    <g id="fb-white" class="hidden white-fill">
        <path d="M 0 0 L 0 1 L 0 27 L 0 28 L 1 28 L 27 28 L 28 28 L 28 27 L 28 0 L 1 0 L 0 0 z M 1 1 L 27 1 L 27 27 L 1 27 L 1 1 z M 15.621094 6.4609375 A 3.329 3.329 0 0 0 12.361328 10.140625 L 12.361328 12.21875 L 9.9609375 12.21875 L 9.9609375 14.947266 L 12.361328 14.947266 L 12.361328 21.539062 L 15.3125 21.539062 L 15.3125 14.947266 L 17.509766 14.947266 L 17.927734 12.21875 L 15.3125 12.21875 L 15.3125 10.451172 A 1.363 1.363 0 0 1 16.849609 8.9765625 L 18.039062 8.9765625 L 18.039062 6.65625 A 14.505 14.505 0 0 0 15.927734 6.4707031 A 3.329 3.329 0 0 0 15.621094 6.4609375 z " />
    </g>
    <g id="fb-secondary" class="hidden secondary-fill">
        <path d="M 0 0 L 0 1 L 0 27 L 0 28 L 1 28 L 27 28 L 28 28 L 28 27 L 28 0 L 1 0 L 0 0 z M 1 1 L 27 1 L 27 27 L 1 27 L 1 1 z M 15.621094 6.4609375 A 3.329 3.329 0 0 0 12.361328 10.140625 L 12.361328 12.21875 L 9.9609375 12.21875 L 9.9609375 14.947266 L 12.361328 14.947266 L 12.361328 21.539062 L 15.3125 21.539062 L 15.3125 14.947266 L 17.509766 14.947266 L 17.927734 12.21875 L 15.3125 12.21875 L 15.3125 10.451172 A 1.363 1.363 0 0 1 16.849609 8.9765625 L 18.039062 8.9765625 L 18.039062 6.65625 A 14.505 14.505 0 0 0 15.927734 6.4707031 A 3.329 3.329 0 0 0 15.621094 6.4609375 z " />
    </g>
    <g id="fb-primary" class="hidden primary-fill">
        <path d="M 0 0 L 0 1 L 0 27 L 0 28 L 1 28 L 27 28 L 28 28 L 28 27 L 28 0 L 1 0 L 0 0 z M 1 1 L 27 1 L 27 27 L 1 27 L 1 1 z M 15.621094 6.4609375 A 3.329 3.329 0 0 0 12.361328 10.140625 L 12.361328 12.21875 L 9.9609375 12.21875 L 9.9609375 14.947266 L 12.361328 14.947266 L 12.361328 21.539062 L 15.3125 21.539062 L 15.3125 14.947266 L 17.509766 14.947266 L 17.927734 12.21875 L 15.3125 12.21875 L 15.3125 10.451172 A 1.363 1.363 0 0 1 16.849609 8.9765625 L 18.039062 8.9765625 L 18.039062 6.65625 A 14.505 14.505 0 0 0 15.927734 6.4707031 A 3.329 3.329 0 0 0 15.621094 6.4609375 z " />
    </g>

    <g id="vk-black" class="hidden black-fill">
        <path d="m0 0v1 26 1h1 26 1v-1-27h-27-1zm1 1h26v26h-26v-26zm17.99 8.5098a0.71 0.71 0 0 0-0.64648 0.4707 13.849 13.849 0 0 1-2.0312 3.3809c-0.384 0.384-0.56244 0.50781-0.77344 0.50781-0.099999 0-0.26367-0.12361-0.26367-0.47461v-3.2754c0-0.421-0.11684-0.60742-0.46484-0.60742h-2.6016a0.4 0.4 0 0 0-0.41992 0.37891c0 0.4 0.59425 0.49028 0.65625 1.6133v2.4355c0 0.533-0.10064 0.63086-0.30664 0.63086-0.561 0-1.9244-2.059-2.7324-4.416-0.163-0.457-0.32309-0.64258-0.74609-0.64258h-1.6504c-0.471 0-0.56641 0.22175-0.56641 0.46875 0 0.438 0.56033 2.6123 2.6113 5.4863a6.443 6.443 0 0 0 5.043 3.0234c1.052 0 1.1816-0.23558 1.1816-0.64258 0-1.874-0.10036-2.0508 0.43164-2.0508 0.244 0 0.66448 0.12236 1.6465 1.0684 1.122 1.122 1.3075 1.625 1.9355 1.625h1.6543c0.471 0 0.71026-0.23522 0.57226-0.69922-0.314-0.979-2.4392-2.9939-2.5352-3.1289-0.244-0.314-0.174-0.45438 0-0.73438a20.564 20.564 0 0 0 2.2285-3.8066v-0.001953c0.1-0.351 0-0.60742-0.5-0.60742h-1.6504a0.71 0.71 0 0 0-0.072266-0.0019532z"/>
    </g>
    <g id="vk-white" class="hidden white-fill">
        <path d="m0 0v1 26 1h1 26 1v-1-27h-27-1zm1 1h26v26h-26v-26zm17.99 8.5098a0.71 0.71 0 0 0-0.64648 0.4707 13.849 13.849 0 0 1-2.0312 3.3809c-0.384 0.384-0.56244 0.50781-0.77344 0.50781-0.099999 0-0.26367-0.12361-0.26367-0.47461v-3.2754c0-0.421-0.11684-0.60742-0.46484-0.60742h-2.6016a0.4 0.4 0 0 0-0.41992 0.37891c0 0.4 0.59425 0.49028 0.65625 1.6133v2.4355c0 0.533-0.10064 0.63086-0.30664 0.63086-0.561 0-1.9244-2.059-2.7324-4.416-0.163-0.457-0.32309-0.64258-0.74609-0.64258h-1.6504c-0.471 0-0.56641 0.22175-0.56641 0.46875 0 0.438 0.56033 2.6123 2.6113 5.4863a6.443 6.443 0 0 0 5.043 3.0234c1.052 0 1.1816-0.23558 1.1816-0.64258 0-1.874-0.10036-2.0508 0.43164-2.0508 0.244 0 0.66448 0.12236 1.6465 1.0684 1.122 1.122 1.3075 1.625 1.9355 1.625h1.6543c0.471 0 0.71026-0.23522 0.57226-0.69922-0.314-0.979-2.4392-2.9939-2.5352-3.1289-0.244-0.314-0.174-0.45438 0-0.73438a20.564 20.564 0 0 0 2.2285-3.8066v-0.001953c0.1-0.351 0-0.60742-0.5-0.60742h-1.6504a0.71 0.71 0 0 0-0.072266-0.0019532z"/>
    </g>
    <g id="vk-secondary" class="hidden secondary-fill">
        <path d="m0 0v1 26 1h1 26 1v-1-27h-27-1zm1 1h26v26h-26v-26zm17.99 8.5098a0.71 0.71 0 0 0-0.64648 0.4707 13.849 13.849 0 0 1-2.0312 3.3809c-0.384 0.384-0.56244 0.50781-0.77344 0.50781-0.099999 0-0.26367-0.12361-0.26367-0.47461v-3.2754c0-0.421-0.11684-0.60742-0.46484-0.60742h-2.6016a0.4 0.4 0 0 0-0.41992 0.37891c0 0.4 0.59425 0.49028 0.65625 1.6133v2.4355c0 0.533-0.10064 0.63086-0.30664 0.63086-0.561 0-1.9244-2.059-2.7324-4.416-0.163-0.457-0.32309-0.64258-0.74609-0.64258h-1.6504c-0.471 0-0.56641 0.22175-0.56641 0.46875 0 0.438 0.56033 2.6123 2.6113 5.4863a6.443 6.443 0 0 0 5.043 3.0234c1.052 0 1.1816-0.23558 1.1816-0.64258 0-1.874-0.10036-2.0508 0.43164-2.0508 0.244 0 0.66448 0.12236 1.6465 1.0684 1.122 1.122 1.3075 1.625 1.9355 1.625h1.6543c0.471 0 0.71026-0.23522 0.57226-0.69922-0.314-0.979-2.4392-2.9939-2.5352-3.1289-0.244-0.314-0.174-0.45438 0-0.73438a20.564 20.564 0 0 0 2.2285-3.8066v-0.001953c0.1-0.351 0-0.60742-0.5-0.60742h-1.6504a0.71 0.71 0 0 0-0.072266-0.0019532z"/>
    </g>
    <g id="vk-primary" class="hidden primary-fill">
        <path d="m0 0v1 26 1h1 26 1v-1-27h-27-1zm1 1h26v26h-26v-26zm17.99 8.5098a0.71 0.71 0 0 0-0.64648 0.4707 13.849 13.849 0 0 1-2.0312 3.3809c-0.384 0.384-0.56244 0.50781-0.77344 0.50781-0.099999 0-0.26367-0.12361-0.26367-0.47461v-3.2754c0-0.421-0.11684-0.60742-0.46484-0.60742h-2.6016a0.4 0.4 0 0 0-0.41992 0.37891c0 0.4 0.59425 0.49028 0.65625 1.6133v2.4355c0 0.533-0.10064 0.63086-0.30664 0.63086-0.561 0-1.9244-2.059-2.7324-4.416-0.163-0.457-0.32309-0.64258-0.74609-0.64258h-1.6504c-0.471 0-0.56641 0.22175-0.56641 0.46875 0 0.438 0.56033 2.6123 2.6113 5.4863a6.443 6.443 0 0 0 5.043 3.0234c1.052 0 1.1816-0.23558 1.1816-0.64258 0-1.874-0.10036-2.0508 0.43164-2.0508 0.244 0 0.66448 0.12236 1.6465 1.0684 1.122 1.122 1.3075 1.625 1.9355 1.625h1.6543c0.471 0 0.71026-0.23522 0.57226-0.69922-0.314-0.979-2.4392-2.9939-2.5352-3.1289-0.244-0.314-0.174-0.45438 0-0.73438a20.564 20.564 0 0 0 2.2285-3.8066v-0.001953c0.1-0.351 0-0.60742-0.5-0.60742h-1.6504a0.71 0.71 0 0 0-0.072266-0.0019532z"/>
    </g>

    <g id="ok-black" class="hidden black-fill">
        <path d="m0 0v1 26 1h1 26 1v-1-27h-27-1zm1 1h26v26h-26v-26zm12.941 4.002a4.645 4.645 0 0 0-4.5566 4.6465 4.651 4.651 0 0 0 4.6465 4.6426 4.645 4.645 0 1 0-0.089844-9.2891zm0.089844 2.7227a1.924 1.924 0 1 1-1.9238 1.9238 1.926 1.926 0 0 1 1.9238-1.9238zm-3.8711 6.7305a1.36 1.36 0 0 0-1.1309 0.63281 1.359 1.359 0 0 0 0.42578 1.875 8.654 8.654 0 0 0 2.6992 1.1152l-2.5996 2.5996a1.347 1.347 0 0 0-0.021484 1.9004l0.023438 0.023437a1.348 1.348 0 0 0 1.9121 0l2.5664-2.5547 2.5488 2.5547a1.361 1.361 0 0 0 1.9238-1.9258l-2.5957-2.5957a8.7 8.7 0 0 0 2.6973-1.1172 1.362 1.362 0 0 0-1.4492-2.2988 5.9 5.9 0 0 1-6.2559 0 1.36 1.36 0 0 0-0.74414-0.20898z"/>
    </g>
    <g id="ok-white" class="hidden white-fill">
        <path d="m0 0v1 26 1h1 26 1v-1-27h-27-1zm1 1h26v26h-26v-26zm12.941 4.002a4.645 4.645 0 0 0-4.5566 4.6465 4.651 4.651 0 0 0 4.6465 4.6426 4.645 4.645 0 1 0-0.089844-9.2891zm0.089844 2.7227a1.924 1.924 0 1 1-1.9238 1.9238 1.926 1.926 0 0 1 1.9238-1.9238zm-3.8711 6.7305a1.36 1.36 0 0 0-1.1309 0.63281 1.359 1.359 0 0 0 0.42578 1.875 8.654 8.654 0 0 0 2.6992 1.1152l-2.5996 2.5996a1.347 1.347 0 0 0-0.021484 1.9004l0.023438 0.023437a1.348 1.348 0 0 0 1.9121 0l2.5664-2.5547 2.5488 2.5547a1.361 1.361 0 0 0 1.9238-1.9258l-2.5957-2.5957a8.7 8.7 0 0 0 2.6973-1.1172 1.362 1.362 0 0 0-1.4492-2.2988 5.9 5.9 0 0 1-6.2559 0 1.36 1.36 0 0 0-0.74414-0.20898z"/>
    </g>
    <g id="ok-secondary" class="hidden secondary-fill">
        <path d="m0 0v1 26 1h1 26 1v-1-27h-27-1zm1 1h26v26h-26v-26zm12.941 4.002a4.645 4.645 0 0 0-4.5566 4.6465 4.651 4.651 0 0 0 4.6465 4.6426 4.645 4.645 0 1 0-0.089844-9.2891zm0.089844 2.7227a1.924 1.924 0 1 1-1.9238 1.9238 1.926 1.926 0 0 1 1.9238-1.9238zm-3.8711 6.7305a1.36 1.36 0 0 0-1.1309 0.63281 1.359 1.359 0 0 0 0.42578 1.875 8.654 8.654 0 0 0 2.6992 1.1152l-2.5996 2.5996a1.347 1.347 0 0 0-0.021484 1.9004l0.023438 0.023437a1.348 1.348 0 0 0 1.9121 0l2.5664-2.5547 2.5488 2.5547a1.361 1.361 0 0 0 1.9238-1.9258l-2.5957-2.5957a8.7 8.7 0 0 0 2.6973-1.1172 1.362 1.362 0 0 0-1.4492-2.2988 5.9 5.9 0 0 1-6.2559 0 1.36 1.36 0 0 0-0.74414-0.20898z"/>
    </g>
    <g id="ok-primary" class="hidden primary-fill">
        <path d="m0 0v1 26 1h1 26 1v-1-27h-27-1zm1 1h26v26h-26v-26zm12.941 4.002a4.645 4.645 0 0 0-4.5566 4.6465 4.651 4.651 0 0 0 4.6465 4.6426 4.645 4.645 0 1 0-0.089844-9.2891zm0.089844 2.7227a1.924 1.924 0 1 1-1.9238 1.9238 1.926 1.926 0 0 1 1.9238-1.9238zm-3.8711 6.7305a1.36 1.36 0 0 0-1.1309 0.63281 1.359 1.359 0 0 0 0.42578 1.875 8.654 8.654 0 0 0 2.6992 1.1152l-2.5996 2.5996a1.347 1.347 0 0 0-0.021484 1.9004l0.023438 0.023437a1.348 1.348 0 0 0 1.9121 0l2.5664-2.5547 2.5488 2.5547a1.361 1.361 0 0 0 1.9238-1.9258l-2.5957-2.5957a8.7 8.7 0 0 0 2.6973-1.1172 1.362 1.362 0 0 0-1.4492-2.2988 5.9 5.9 0 0 1-6.2559 0 1.36 1.36 0 0 0-0.74414-0.20898z"/>
    </g>

    <g id="twitter-black" class="hidden black-fill">
        <path d="m0 0v1 26 1h1 26 1v-1-27h-27-1zm1 1h26v26h-26v-26zm15.928 6.9121a3.077 3.077 0 0 0-3.1172 3.0703 3.47 3.47 0 0 0 0.076172 0.70117 8.738 8.738 0 0 1-6.3379-3.2188 3.079 3.079 0 0 0 0.95117 4.1133 3.1 3.1 0 0 1-1.3906-0.39062v0.037109a3.075 3.075 0 0 0 2.4648 3.0234 3.251 3.251 0 0 1-0.80859 0.099609 3.877 3.877 0 0 1-0.58008-0.048828 3.08 3.08 0 0 0 2.873 2.1328 6.157 6.157 0 0 1-3.8164 1.3125 6.36 6.36 0 0 1-0.74219-0.03711 8.688 8.688 0 0 0 4.7207 1.3809 8.687 8.687 0 0 0 8.748-8.748c0-0.133-0.001719-0.26544-0.011719-0.39844v-0.001953a6.608 6.608 0 0 0 1.543-1.5879 6.163 6.163 0 0 1-1.7695 0.47266 3.066 3.066 0 0 0 1.3496-1.6836 6.053 6.053 0 0 1-1.9492 0.74219 3.077 3.077 0 0 0-2.2031-0.9707z"/>
    </g>
    <g id="twitter-white" class="hidden white-fill">
        <path d="m0 0v1 26 1h1 26 1v-1-27h-27-1zm1 1h26v26h-26v-26zm15.928 6.9121a3.077 3.077 0 0 0-3.1172 3.0703 3.47 3.47 0 0 0 0.076172 0.70117 8.738 8.738 0 0 1-6.3379-3.2188 3.079 3.079 0 0 0 0.95117 4.1133 3.1 3.1 0 0 1-1.3906-0.39062v0.037109a3.075 3.075 0 0 0 2.4648 3.0234 3.251 3.251 0 0 1-0.80859 0.099609 3.877 3.877 0 0 1-0.58008-0.048828 3.08 3.08 0 0 0 2.873 2.1328 6.157 6.157 0 0 1-3.8164 1.3125 6.36 6.36 0 0 1-0.74219-0.03711 8.688 8.688 0 0 0 4.7207 1.3809 8.687 8.687 0 0 0 8.748-8.748c0-0.133-0.001719-0.26544-0.011719-0.39844v-0.001953a6.608 6.608 0 0 0 1.543-1.5879 6.163 6.163 0 0 1-1.7695 0.47266 3.066 3.066 0 0 0 1.3496-1.6836 6.053 6.053 0 0 1-1.9492 0.74219 3.077 3.077 0 0 0-2.2031-0.9707z"/>
    </g>
    <g id="twitter-secondary" class="hidden secondary-fill">
        <path d="m0 0v1 26 1h1 26 1v-1-27h-27-1zm1 1h26v26h-26v-26zm15.928 6.9121a3.077 3.077 0 0 0-3.1172 3.0703 3.47 3.47 0 0 0 0.076172 0.70117 8.738 8.738 0 0 1-6.3379-3.2188 3.079 3.079 0 0 0 0.95117 4.1133 3.1 3.1 0 0 1-1.3906-0.39062v0.037109a3.075 3.075 0 0 0 2.4648 3.0234 3.251 3.251 0 0 1-0.80859 0.099609 3.877 3.877 0 0 1-0.58008-0.048828 3.08 3.08 0 0 0 2.873 2.1328 6.157 6.157 0 0 1-3.8164 1.3125 6.36 6.36 0 0 1-0.74219-0.03711 8.688 8.688 0 0 0 4.7207 1.3809 8.687 8.687 0 0 0 8.748-8.748c0-0.133-0.001719-0.26544-0.011719-0.39844v-0.001953a6.608 6.608 0 0 0 1.543-1.5879 6.163 6.163 0 0 1-1.7695 0.47266 3.066 3.066 0 0 0 1.3496-1.6836 6.053 6.053 0 0 1-1.9492 0.74219 3.077 3.077 0 0 0-2.2031-0.9707z"/>
    </g>
    <g id="twitter-primary" class="hidden primary-fill">
        <path d="m0 0v1 26 1h1 26 1v-1-27h-27-1zm1 1h26v26h-26v-26zm15.928 6.9121a3.077 3.077 0 0 0-3.1172 3.0703 3.47 3.47 0 0 0 0.076172 0.70117 8.738 8.738 0 0 1-6.3379-3.2188 3.079 3.079 0 0 0 0.95117 4.1133 3.1 3.1 0 0 1-1.3906-0.39062v0.037109a3.075 3.075 0 0 0 2.4648 3.0234 3.251 3.251 0 0 1-0.80859 0.099609 3.877 3.877 0 0 1-0.58008-0.048828 3.08 3.08 0 0 0 2.873 2.1328 6.157 6.157 0 0 1-3.8164 1.3125 6.36 6.36 0 0 1-0.74219-0.03711 8.688 8.688 0 0 0 4.7207 1.3809 8.687 8.687 0 0 0 8.748-8.748c0-0.133-0.001719-0.26544-0.011719-0.39844v-0.001953a6.608 6.608 0 0 0 1.543-1.5879 6.163 6.163 0 0 1-1.7695 0.47266 3.066 3.066 0 0 0 1.3496-1.6836 6.053 6.053 0 0 1-1.9492 0.74219 3.077 3.077 0 0 0-2.2031-0.9707z"/>
    </g>

    <g id="pinterest-black" class="hidden black-fill">
        <path d="m0 0v1 26 1h1 26 1v-1-27h-27-1zm1 1h26v26h-26v-26zm13.383 5.0352c-3.275 0-6.5117 2.1838-6.5117 5.7168 0 2.247 1.2652 3.5254 2.0312 3.5254 0.316 0 0.5-0.87991 0.5-1.1289 0-0.3-0.75586-0.92906-0.75586-2.1641a4.313 4.313 0 0 1 4.4785-4.3887c2.174 0 3.7812 1.235 3.7812 3.5 0 1.695-0.67886 4.875-2.8809 4.875a1.417 1.417 0 0 1-1.4746-1.3926c0-1.206 0.8418-2.3751 0.8418-3.6191 0-2.113-3-1.7307-3 0.82227a3.75 3.75 0 0 0 0.30859 1.6172c-0.44 1.9-1.3398 4.7208-1.3398 6.6738 0 0.6 0.086531 1.1988 0.14453 1.7988 0.109 0.121 0.05275 0.10983 0.21875 0.048828 1.609-2.2 1.5513-2.6336 2.2793-5.5156a2.589 2.589 0 0 0 2.2129 1.1504c3.39 0 4.9121-3.3003 4.9121-6.2812 0-3.17-2.7391-5.2383-5.7461-5.2383z"/>
    </g>
    <g id="pinterest-white" class="hidden white-fill">
        <path d="m0 0v1 26 1h1 26 1v-1-27h-27-1zm1 1h26v26h-26v-26zm13.383 5.0352c-3.275 0-6.5117 2.1838-6.5117 5.7168 0 2.247 1.2652 3.5254 2.0312 3.5254 0.316 0 0.5-0.87991 0.5-1.1289 0-0.3-0.75586-0.92906-0.75586-2.1641a4.313 4.313 0 0 1 4.4785-4.3887c2.174 0 3.7812 1.235 3.7812 3.5 0 1.695-0.67886 4.875-2.8809 4.875a1.417 1.417 0 0 1-1.4746-1.3926c0-1.206 0.8418-2.3751 0.8418-3.6191 0-2.113-3-1.7307-3 0.82227a3.75 3.75 0 0 0 0.30859 1.6172c-0.44 1.9-1.3398 4.7208-1.3398 6.6738 0 0.6 0.086531 1.1988 0.14453 1.7988 0.109 0.121 0.05275 0.10983 0.21875 0.048828 1.609-2.2 1.5513-2.6336 2.2793-5.5156a2.589 2.589 0 0 0 2.2129 1.1504c3.39 0 4.9121-3.3003 4.9121-6.2812 0-3.17-2.7391-5.2383-5.7461-5.2383z"/>
    </g>
    <g id="pinterest-secondary" class="hidden secondary-fill">
        <path d="m0 0v1 26 1h1 26 1v-1-27h-27-1zm1 1h26v26h-26v-26zm13.383 5.0352c-3.275 0-6.5117 2.1838-6.5117 5.7168 0 2.247 1.2652 3.5254 2.0312 3.5254 0.316 0 0.5-0.87991 0.5-1.1289 0-0.3-0.75586-0.92906-0.75586-2.1641a4.313 4.313 0 0 1 4.4785-4.3887c2.174 0 3.7812 1.235 3.7812 3.5 0 1.695-0.67886 4.875-2.8809 4.875a1.417 1.417 0 0 1-1.4746-1.3926c0-1.206 0.8418-2.3751 0.8418-3.6191 0-2.113-3-1.7307-3 0.82227a3.75 3.75 0 0 0 0.30859 1.6172c-0.44 1.9-1.3398 4.7208-1.3398 6.6738 0 0.6 0.086531 1.1988 0.14453 1.7988 0.109 0.121 0.05275 0.10983 0.21875 0.048828 1.609-2.2 1.5513-2.6336 2.2793-5.5156a2.589 2.589 0 0 0 2.2129 1.1504c3.39 0 4.9121-3.3003 4.9121-6.2812 0-3.17-2.7391-5.2383-5.7461-5.2383z"/>
    </g>
    <g id="pinterest-primary" class="hidden primary-fill">
        <path d="m0 0v1 26 1h1 26 1v-1-27h-27-1zm1 1h26v26h-26v-26zm13.383 5.0352c-3.275 0-6.5117 2.1838-6.5117 5.7168 0 2.247 1.2652 3.5254 2.0312 3.5254 0.316 0 0.5-0.87991 0.5-1.1289 0-0.3-0.75586-0.92906-0.75586-2.1641a4.313 4.313 0 0 1 4.4785-4.3887c2.174 0 3.7812 1.235 3.7812 3.5 0 1.695-0.67886 4.875-2.8809 4.875a1.417 1.417 0 0 1-1.4746-1.3926c0-1.206 0.8418-2.3751 0.8418-3.6191 0-2.113-3-1.7307-3 0.82227a3.75 3.75 0 0 0 0.30859 1.6172c-0.44 1.9-1.3398 4.7208-1.3398 6.6738 0 0.6 0.086531 1.1988 0.14453 1.7988 0.109 0.121 0.05275 0.10983 0.21875 0.048828 1.609-2.2 1.5513-2.6336 2.2793-5.5156a2.589 2.589 0 0 0 2.2129 1.1504c3.39 0 4.9121-3.3003 4.9121-6.2812 0-3.17-2.7391-5.2383-5.7461-5.2383z"/>
    </g>

    <g id="youtobe-black" class="hidden black-fill">
        <path d="m0 0v1 26 1h1 26 1v-1-27h-27-1zm1 1h26v26h-26v-26zm12.381 6.5723a54.251 54.251 0 0 0-6.5195 0.38867 2.3 2.3 0 0 0-1.6152 1.627 24.082 24.082 0 0 0-0.38086 4.4258 24.082 24.082 0 0 0 0.38086 4.4258 2.261 2.261 0 0 0 1.6152 1.5996 54.252 54.252 0 0 0 7.1387 0.38477 54.251 54.251 0 0 0 7.1387-0.38477 2.261 2.261 0 0 0 1.6152-1.5996 24.082 24.082 0 0 0 0.38086-4.4258 24.082 24.082 0 0 0-0.38086-4.4258 2.3 2.3 0 0 0-1.6152-1.627 54.251 54.251 0 0 0-7.1387-0.38477 54.251 54.251 0 0 0-0.61914-0.0039063zm-1.25 3.7246 4.7754 2.7168-4.7754 2.7168v-5.4336z"/>
    </g>
    <g id="youtobe-white" class="hidden white-fill">
        <path d="m0 0v1 26 1h1 26 1v-1-27h-27-1zm1 1h26v26h-26v-26zm12.381 6.5723a54.251 54.251 0 0 0-6.5195 0.38867 2.3 2.3 0 0 0-1.6152 1.627 24.082 24.082 0 0 0-0.38086 4.4258 24.082 24.082 0 0 0 0.38086 4.4258 2.261 2.261 0 0 0 1.6152 1.5996 54.252 54.252 0 0 0 7.1387 0.38477 54.251 54.251 0 0 0 7.1387-0.38477 2.261 2.261 0 0 0 1.6152-1.5996 24.082 24.082 0 0 0 0.38086-4.4258 24.082 24.082 0 0 0-0.38086-4.4258 2.3 2.3 0 0 0-1.6152-1.627 54.251 54.251 0 0 0-7.1387-0.38477 54.251 54.251 0 0 0-0.61914-0.0039063zm-1.25 3.7246 4.7754 2.7168-4.7754 2.7168v-5.4336z"/>
    </g>
    <g id="youtobe-secondary" class="hidden secondary-fill">
        <path d="m0 0v1 26 1h1 26 1v-1-27h-27-1zm1 1h26v26h-26v-26zm12.381 6.5723a54.251 54.251 0 0 0-6.5195 0.38867 2.3 2.3 0 0 0-1.6152 1.627 24.082 24.082 0 0 0-0.38086 4.4258 24.082 24.082 0 0 0 0.38086 4.4258 2.261 2.261 0 0 0 1.6152 1.5996 54.252 54.252 0 0 0 7.1387 0.38477 54.251 54.251 0 0 0 7.1387-0.38477 2.261 2.261 0 0 0 1.6152-1.5996 24.082 24.082 0 0 0 0.38086-4.4258 24.082 24.082 0 0 0-0.38086-4.4258 2.3 2.3 0 0 0-1.6152-1.627 54.251 54.251 0 0 0-7.1387-0.38477 54.251 54.251 0 0 0-0.61914-0.0039063zm-1.25 3.7246 4.7754 2.7168-4.7754 2.7168v-5.4336z"/>
    </g>
    <g id="youtobe-primary" class="hidden primary-fill">
        <path d="m0 0v1 26 1h1 26 1v-1-27h-27-1zm1 1h26v26h-26v-26zm12.381 6.5723a54.251 54.251 0 0 0-6.5195 0.38867 2.3 2.3 0 0 0-1.6152 1.627 24.082 24.082 0 0 0-0.38086 4.4258 24.082 24.082 0 0 0 0.38086 4.4258 2.261 2.261 0 0 0 1.6152 1.5996 54.252 54.252 0 0 0 7.1387 0.38477 54.251 54.251 0 0 0 7.1387-0.38477 2.261 2.261 0 0 0 1.6152-1.5996 24.082 24.082 0 0 0 0.38086-4.4258 24.082 24.082 0 0 0-0.38086-4.4258 2.3 2.3 0 0 0-1.6152-1.627 54.251 54.251 0 0 0-7.1387-0.38477 54.251 54.251 0 0 0-0.61914-0.0039063zm-1.25 3.7246 4.7754 2.7168-4.7754 2.7168v-5.4336z"/>
    </g>
</svg>
