<svg width="11" height="11" version="1.1" viewBox="0 0 11 11" xmlns="http://www.w3.org/2000/svg">
    <style>
        .hidden { display: none; }
        .secondary-fill {fill: #cbccd4}
        .primary-fill {fill: #8c2837}
        :target { display: block; }
    </style>
    <g id="primary" class="hidden primary-fill">
        <path d="m1.9275 10.335c0.13731-0.812 0.22686-1.648 0.43283-2.455a1.2935 1.3 0 0 0-0.47064-1.51 22.095 22.206 0 0 1-1.7283-1.688 0.54626 0.549 0 0 1-0.15821-0.448 0.60397 0.607 0 0 1 0.41194-0.292c0.99501-0.166 1.99-0.309 2.985-0.445a0.39801 0.4 0 0 0 0.34925-0.258c0.43084-0.895 0.87263-1.783 1.3074-2.675 0.089551-0.183 0.18806-0.343 0.42388-0.343 0.23582 0 0.33532 0.161 0.42388 0.344 0.43184 0.883 0.86865 1.764 1.2935 2.65a0.42388 0.426 0 0 0 0.36418 0.282c0.98805 0.135 1.9741 0.29 2.9612 0.433 0.199 0.029 0.38308 0.082 0.45572 0.3 0.07264 0.218-0.05672 0.35-0.19403 0.484-0.72138 0.707-1.4458 1.409-2.1562 2.127a0.50646 0.509 0 0 0-0.12438 0.383c0.15622 0.991 0.33333 1.977 0.50646 2.964 0.034826 0.2 0.064676 0.43-0.14428 0.517a0.68855 0.692 0 0 1-0.51044-0.027c-0.85074-0.428-1.6915-0.87-2.5263-1.334a0.64178 0.645 0 0 0-0.70845 0c-0.84079 0.468-1.6915 0.911-2.5452 1.358-0.36019 0.19-0.66367 0.019-0.64875-0.367z" stroke-width="1"/>
    </g>
    <g id="secondary" class="hidden secondary-fill">
        <path d="m1.9275 10.335c0.13731-0.812 0.22686-1.648 0.43283-2.455a1.2935 1.3 0 0 0-0.47064-1.51 22.095 22.206 0 0 1-1.7283-1.688 0.54626 0.549 0 0 1-0.15821-0.448 0.60397 0.607 0 0 1 0.41194-0.292c0.99501-0.166 1.99-0.309 2.985-0.445a0.39801 0.4 0 0 0 0.34925-0.258c0.43084-0.895 0.87263-1.783 1.3074-2.675 0.089551-0.183 0.18806-0.343 0.42388-0.343 0.23582 0 0.33532 0.161 0.42388 0.344 0.43184 0.883 0.86865 1.764 1.2935 2.65a0.42388 0.426 0 0 0 0.36418 0.282c0.98805 0.135 1.9741 0.29 2.9612 0.433 0.199 0.029 0.38308 0.082 0.45572 0.3 0.07264 0.218-0.05672 0.35-0.19403 0.484-0.72138 0.707-1.4458 1.409-2.1562 2.127a0.50646 0.509 0 0 0-0.12438 0.383c0.15622 0.991 0.33333 1.977 0.50646 2.964 0.034826 0.2 0.064676 0.43-0.14428 0.517a0.68855 0.692 0 0 1-0.51044-0.027c-0.85074-0.428-1.6915-0.87-2.5263-1.334a0.64178 0.645 0 0 0-0.70845 0c-0.84079 0.468-1.6915 0.911-2.5452 1.358-0.36019 0.19-0.66367 0.019-0.64875-0.367z" stroke-width="1"/>
    </g>
</svg>
