<svg width="140" height="44" version="1.1" viewBox="0 0 140.58 44.452" xmlns="http://www.w3.org/2000/svg">
    <style>
        .hidden { display: none; }
        .black-fill {fill: #000000}
        .secondary-fill {fill: #cbccd4}
        .white-fill {fill: #ffffff}
        .primary-fill {fill: #8c2837}
        :target { display: block; }
    </style>
    <g id="logo-black" class="hidden black-fill">
        <path d="m112.78 0.22656v20.818l-12.5-20.811h-0.31445v-0.0058594h-5.2012l-0.29883 1.1953h2.7188l0.001953 0.0019531v26.871h2.082v-21.424l13.025 21.42h2.5664v-28.066h-2.0801zm-91.701 0.0019531-0.29883 1.1953h2.6562l-5.3164 19.391-0.023438-0.86914-5.5156-19.715h-7.293l-0.29883 1.1953h2.6582l-7.3496 26.869h2.1523l6.5938-24.537 6.9141 24.537h2.3086l6.582-24.496 6.9004 24.496h3.0488v-0.007813h1.5391l-7.8398-28.059h-7.418zm-20.781 28.066h-0.0039063l0.0039063 0.001953v-0.001953zm38.871-28.066-0.29883 1.1953h2.6562l-0.00586 0.0019531v26.861h4.4883v-28.059h-6.8398zm13.357 0-0.29883 1.1953h2.6562l-0.001953 0.0019531v26.865h13.623l0.48828-1.7852h-9.627v-26.277h-6.8398zm23.941 0.0019531-0.29883 1.1953h2.7773l-0.33398 1.2188-7.0156 25.652h2.1484l2.1406-7.9648h9.125l2.2441 7.9648h3.0527v-0.007813h1.541c-2.6181-9.3715-5.2187-18.672-7.8418-28.059h-7.5391zm48.445 0-0.29883 1.1953h2.7773l-0.33398 1.2188-7.0156 25.652h2.1562l2.1387-7.9648h9.125l2.2441 7.9648h3.0488v-0.007813h1.5391l-2.4766-8.8633v-0.12305h-0.03515l-5.3301-19.072h-7.5391zm-44.566 3.5273 4.2207 14.98h-8.2461l4.0254-14.98zm48.445 0 4.2207 14.98h-8.2461l4.0254-14.98zm-65.539 35.025-0.076172 0.16211-2.3594 5.0469-0.054687 0.11719h0.61133l0.021484-0.048828 0.74805-1.6816h2.0059l0.77344 1.6816 0.023437 0.048828h0.79688l-0.054687-0.11719-2.3594-5.0469h0.001953l-0.078125-0.16211zm-40.613 0.14844a2.2128 2.1984 0 0 0-0.375 0.03125 1.3942 1.3851 0 0 0-0.51367 2.6523 14.871 14.775 0 0 0 1.4863 0.47656c0.8405 0.26417 0.68333 1.4484-0.41211 1.5137a1.8583 1.8462 0 0 1-1.5234-0.63281l-0.39062 0.31836a2.2476 2.233 0 0 0 2.1797 0.86914 1.436 1.4267 0 0 0 0.52539-2.7266 14.209 14.117 0 0 0-1.4941-0.45703h0.007812c-0.82955-0.25823-0.67406-1.4113 0.39648-1.4746a1.8364 1.8244 0 0 1 1.4941 0.61524l0.38477-0.30664a2.2128 2.1984 0 0 0-1.7656-0.87891zm23.602 0a2.2128 2.1984 0 0 0-0.37305 0.03125 1.3942 1.3851 0 0 0-0.51562 2.6523 14.938 14.841 0 0 0 1.4863 0.47656c0.8405 0.26417 0.68528 1.4484-0.41016 1.5137a1.8583 1.8462 0 0 1-1.5254-0.63281l-0.38867 0.31836a2.2476 2.233 0 0 0 2.1777 0.86914 1.436 1.4267 0 0 0 0.52539-2.7266 14.269 14.176 0 0 0-1.4941-0.45703h0.007813c-0.82954-0.25823-0.67111-1.4113 0.39844-1.4746a1.8373 1.8254 0 0 1 1.4941 0.61524l0.38281-0.30664a2.2128 2.1984 0 0 0-1.7656-0.87891zm39.791 0a2.2108 2.1964 0 0 0-0.375 0.03125 1.3942 1.3851 0 0 0-0.51562 2.6523 14.951 14.854 0 0 0 1.4863 0.47656c0.8415 0.26417 0.68528 1.4484-0.41016 1.5137a1.8583 1.8462 0 0 1-1.5234-0.63281l-0.39062 0.31836a2.2476 2.233 0 0 0 2.1777 0.86914 1.436 1.4267 0 0 0 0.52539-2.7266 14.281 14.188 0 0 0-1.4941-0.45703h0.007812c-0.82955-0.25823-0.67111-1.4113 0.39844-1.4746a1.8373 1.8254 0 0 1 1.4941 0.61524l0.38281-0.30664a2.2108 2.1964 0 0 0-1.7637-0.87891zm5.5586 0a2.2118 2.1974 0 0 0-0.37305 0.03125 1.3942 1.3851 0 0 0-0.51562 2.6523 14.901 14.804 0 0 0 1.4863 0.47656c0.8405 0.26417 0.6803 1.4484-0.41016 1.5137a1.8593 1.8472 0 0 1-1.5254-0.63281l-0.39062 0.31836a2.2476 2.233 0 0 0 2.1777 0.86914 1.436 1.4267 0 0 0 0.52539-2.7266 14.229 14.136 0 0 0-1.4941-0.45703h0.007813c-0.82955-0.25823-0.6721-1.4113 0.39844-1.4746a1.8364 1.8244 0 0 1 1.4941 0.61524l0.38281-0.30664a2.2118 2.1974 0 0 0-1.7637-0.87891zm26.266 0a2.2118 2.1974 0 0 0-0.375 0.03125 1.3942 1.3851 0 0 0-0.51563 2.6523 14.893 14.796 0 0 0 1.4863 0.47656c0.8405 0.26417 0.6803 1.4484-0.41016 1.5137a1.8563 1.8442 0 0 1-1.5234-0.63281l-0.39062 0.31836a2.2476 2.233 0 0 0 2.1777 0.86914 1.436 1.4267 0 0 0 0.52539-2.7266 14.232 14.139 0 0 0-1.4941-0.45703h0.00782c-0.82955-0.25823-0.67211-1.4113 0.39843-1.4746a1.8354 1.8234 0 0 1 1.4942 0.61524l0.38281-0.30664a2.2118 2.1974 0 0 0-1.7637-0.87891zm-63.811 0.021484a1.6521 1.6414 0 0 0-0.27539 0.025391 1.3464 1.3377 0 0 0-0.25391 0.070312 1.3703 1.3614 0 0 0-0.2207 0.10938 1.195 1.1873 0 0 0-0.19336 0.14648 1.1353 1.1279 0 0 0-0.15625 0.17383 1.0954 1.0883 0 0 0-0.11719 0.19922 1.0875 1.0804 0 0 0-0.070313 0.2168 1.1243 1.117 0 0 0-0.02539 0.23047 1.2837 1.2753 0 0 0 0.013672 0.19141 1.1871 1.1793 0 0 0 0.042968 0.18164 1.5934 1.583 0 0 0 0.0625 0.16406 1.448 1.4386 0 0 0 0.080079 0.14844c0.02788 0.044519 0.05702 0.088319 0.08789 0.13086 0.03187 0.041554 0.06575 0.083467 0.09961 0.12305 0.03684 0.037593 0.068739 0.073782 0.099609 0.10742l0.015625 0.015625c-0.0249 0.01484-0.050319 0.029092-0.074219 0.044922a1.7816 1.77 0 0 0-0.17188 0.13281 1.9688 1.956 0 0 0-0.16602 0.16016 2.1042 2.0906 0 0 0-0.14844 0.18164 1.8035 1.7918 0 0 0-0.12891 0.20508 1.7656 1.7542 0 0 0-0.09961 0.22656 1.4788 1.4692 0 0 0-0.066406 0.24219 1.5057 1.496 0 0 0-0.023437 0.25586 1.2438 1.2357 0 0 0 0.015625 0.19726 1.5017 1.492 0 0 0 0.12695 0.41211 1.7039 1.6928 0 0 0 0.11719 0.20312 1.443 1.4336 0 0 0 0.1543 0.19726 1.6402 1.6295 0 0 0 0.19141 0.17578 1.5705 1.5603 0 0 0 0.23633 0.14844 1.8423 1.8304 0 0 0 0.27344 0.11524 1.8164 1.8046 0 0 0 0.32227 0.074218 2.6032 2.5863 0 0 0 0.36328 0.025391 2.0564 2.0431 0 0 0 0.30469-0.023438 1.8204 1.8086 0 0 0 0.2832-0.064453 2.4378 2.422 0 0 0 0.26367-0.099609 1.7557 1.7443 0 0 0 0.22852-0.12305 2.159 2.145 0 0 0 0.19922-0.14258c0.03187-0.02968 0.066749-0.059174 0.099609-0.089844l0.52539 0.58398h0.98438l-1.0566-1.1641c0.03385-0.067278 0.063917-0.13197 0.091797-0.19727a1.9917 1.9788 0 0 0 0.087891-0.26172 2.399 2.3834 0 0 0 0.054687-0.25977 2.1212 2.1074 0 0 0 0.023438-0.25781 2.2427 2.2281 0 0 0 0-0.25 2.2476 2.233 0 0 0-0.03125-0.23828c-0.01394-0.078162-0.032815-0.1534-0.052735-0.22266l-0.011718-0.039062h0.95508v-0.65039h-1.9629v0.65039h0.28125a1.2588 1.2506 0 0 1 0.0625 0.12305 1.7288 1.7176 0 0 1 0.080078 0.22656 1.673 1.6622 0 0 1 0.046875 0.24414 2.0574 2.0441 0 0 1 0.009766 0.25781 1.683 1.6721 0 0 1-0.033203 0.26367c-0.00996 0.044527-0.020254 0.090246-0.033203 0.13477l-1.4941-1.5918c-0.058755-0.062331-0.11802-0.12421-0.17578-0.18555-0.051789-0.057384-0.10554-0.11358-0.15234-0.16602a1.5645 1.5543 0 0 1-0.11719-0.14648 1.1034 1.0962 0 0 1-0.08789-0.14062 0.61245 0.60847 0 0 1-0.052735-0.14062 0.70208 0.69752 0 0 1-0.017578-0.15625 0.78473 0.77964 0 0 1 0.019531-0.17578 0.6971 0.69257 0 0 1 0.054688-0.1543 0.56166 0.55801 0 0 1 0.085938-0.12695 0.59751 0.59363 0 0 1 0.11914-0.099609 0.48797 0.4848 0 0 1 0.14453-0.0625 0.74191 0.73709 0 0 1 0.18164-0.021484 0.86042 0.85483 0 0 1 0.15234 0.015625 0.71502 0.71038 0 0 1 0.13867 0.042968 0.92017 0.91419 0 0 1 0.12891 0.066407 0.89627 0.89045 0 0 1 0.11328 0.082031 1.2139 1.2061 0 0 1 0.099609 0.099609 1.1134 1.1061 0 0 1 0.080079 0.097657l0.068359 0.09375 0.066406-0.09375 0.24609-0.33984 0.042969-0.060547-0.052735-0.052734a1.2946 1.2862 0 0 0-0.2168-0.17774 1.3454 1.3367 0 0 0-0.25195-0.13086 1.4709 1.4613 0 0 0-0.29883-0.080078 2.0315 2.0183 0 0 0-0.33594-0.027344zm-18.838 0.048828a2.7476 2.7297 0 0 0-0.41602 0.033203 2.5255 2.5091 0 0 0-0.39844 0.097656 2.6888 2.6713 0 0 0-0.375 0.15625 2.5683 2.5516 0 0 0-0.33984 0.20898 2.6211 2.6041 0 0 0-0.29883 0.25781 2.7575 2.7396 0 0 0-0.25976 0.29688 2.6131 2.5962 0 0 0-0.21094 0.33789 2.7157 2.6981 0 0 0-0.15625 0.37305 2.4717 2.4557 0 0 0-0.099609 0.39453 2.7595 2.7416 0 0 0-0.033203 0.41992 2.7396 2.7218 0 0 0 0.033203 0.41797 2.5424 2.5259 0 0 0 0.099609 0.39648 2.5763 2.5595 0 0 0 0.36719 0.70703 2.6888 2.6713 0 0 0 0.26172 0.30274 2.635 2.6179 0 0 0 0.29883 0.25391 2.6998 2.6822 0 0 0 0.33984 0.21094 2.7675 2.7495 0 0 0 0.375 0.1543 2.5135 2.4972 0 0 0 0.39844 0.09961 2.7247 2.707 0 0 0 0.42188 0.033203 2.7227 2.705 0 0 0 0.42188-0.033203 2.5444 2.5279 0 0 0 0.39844-0.09961 2.6709 2.6535 0 0 0 0.375-0.15625 2.5026 2.4863 0 0 0 0.33984-0.20703 2.6181 2.6011 0 0 0 0.29883-0.25586 2.6171 2.6001 0 0 0 0.47266-0.63867 2.5155 2.4992 0 0 0 0.15625-0.37109 2.5364 2.52 0 0 0 0.09961-0.39648 2.7486 2.7307 0 0 0 0.035156-0.41602 2.7794 2.7614 0 0 0-0.035156-0.42188h-0.003907a2.5633 2.5467 0 0 0-0.099609-0.39453 2.5892 2.5724 0 0 0-0.15625-0.37305 2.6261 2.609 0 0 0-0.21094-0.33594 2.6998 2.6822 0 0 0-0.25977-0.29688 2.5603 2.5437 0 0 0-0.29883-0.25781 2.6042 2.5872 0 0 0-0.33984-0.21094 2.7087 2.6911 0 0 0-0.37305-0.1543 2.4528 2.4369 0 0 0-0.39844-0.09961 2.7515 2.7337 0 0 0-0.42383-0.033203 2.7476 2.7297 0 0 0-0.00586 0zm34.35 0.003906a2.4189 2.4032 0 0 0-0.77148 0.12891 2.5016 2.4853 0 0 0-0.6875 0.36328 2.5325 2.516 0 0 0-0.29883 0.25586 2.6261 2.609 0 0 0-0.25391 0.29492 2.7705 2.7525 0 0 0-0.20703 0.33984 2.8043 2.7861 0 0 0-0.1543 0.37305 2.5255 2.5091 0 0 0-0.09961 0.40039 2.8262 2.8079 0 0 0-0.033203 0.42578 2.9876 2.9682 0 0 0 0.03125 0.43164l-0.003906 0.003907a2.6171 2.6001 0 0 0 0.099609 0.40625 2.8501 2.8316 0 0 0 0.15039 0.37305 2.4896 2.4735 0 0 0 0.20508 0.33789 2.4289 2.4131 0 0 0 0.25 0.29688 2.4777 2.4616 0 0 0 0.29102 0.25195 2.5673 2.5506 0 0 0 0.32617 0.20312 2.4418 2.426 0 0 0 0.35547 0.15039 2.398 2.3824 0 0 0 0.38086 0.091797 2.6251 2.608 0 0 0 0.39844 0.03125 2.396 2.3805 0 0 0 0.29297-0.017578 2.1909 2.1767 0 0 0 0.27734-0.056641 2.7326 2.7149 0 0 0 0.26172-0.085938 2.5653 2.5487 0 0 0 0.24414-0.10742c0.078673-0.039576 0.15199-0.076574 0.2207-0.12109 0.068714-0.044524 0.13549-0.095142 0.19922-0.13867 0.063735-0.043531 0.122-0.096078 0.17578-0.14258 0.054442-0.047489 0.10396-0.094452 0.14844-0.14062l0.054687-0.056641-0.052734-0.058594-0.1875-0.19726-0.056641-0.060547-0.0625 0.054687c-0.034853 0.03166-0.072451 0.06498-0.11328 0.09961l-0.13477 0.10547c-0.048797 0.037591-0.09949 0.074745-0.15625 0.10937-0.056763 0.034626-0.1179 0.070839-0.18164 0.10547a1.8672 1.8551 0 0 1-0.19922 0.097657c-0.068713 0.02671-0.14203 0.053411-0.2207 0.076171a1.8005 1.7888 0 0 1-0.24414 0.050782 2.2008 2.1865 0 0 1-0.26367 0.017578 1.5256 1.5157 0 0 1-0.33984-0.041016 1.4539 1.4445 0 0 1-0.31836-0.11523 1.682 1.6711 0 0 1-0.29297-0.1875 1.7766 1.7651 0 0 1-0.25391-0.25 2.0027 1.9897 0 0 1-0.21289-0.30664 2.3632 2.3478 0 0 1-0.16211-0.35938 2.2905 2.2756 0 0 1-0.099609-0.40234 2.8173 2.799 0 0 1-0.035157-0.44141 2.7356 2.7178 0 0 1 0.019532-0.3418 2.5275 2.5111 0 0 1 0.064453-0.32617 2.3801 2.3646 0 0 1 0.099609-0.30469 2.2068 2.1925 0 0 1 0.13867-0.2793 1.9519 1.9392 0 0 1 0.16992-0.24609 1.7696 1.7581 0 0 1 0.19922-0.21094 1.674 1.6632 0 0 1 0.22461-0.17188 1.6203 1.6097 0 0 1 0.25391-0.12891 1.4679 1.4584 0 0 1 0.27344-0.080079 1.6681 1.6572 0 0 1 0.29883-0.027343 1.5256 1.5157 0 0 1 0.23242 0.017578 1.6641 1.6533 0 0 1 0.22852 0.054687 1.8214 1.8096 0 0 1 0.22656 0.091797 1.923 1.9105 0 0 1 0.21484 0.12109 1.9569 1.9441 0 0 1 0.19922 0.1543 2.0584 2.0451 0 0 1 0.18945 0.18164l0.066406 0.072266 0.0625-0.074219 0.32227-0.39648 0.054687-0.06836-0.070313-0.050781c-0.066722-0.0465-0.13916-0.099984-0.21484-0.14648-0.075685-0.046496-0.15463-0.089283-0.23828-0.13281a2.4787 2.4626 0 0 0-0.27344-0.11914 2.9876 2.9682 0 0 0-0.29883-0.09375 2.5334 2.517 0 0 0-0.33594-0.0625 3.1867 3.166 0 0 0-0.36719-0.021485 2.4189 2.4032 0 0 0-0.005859 0zm5.7324 0a2.4229 2.4072 0 0 0-0.77148 0.12891 2.4697 2.4537 0 0 0-0.35938 0.1543 2.5056 2.4893 0 0 0-0.32812 0.20898 2.5334 2.517 0 0 0-0.29883 0.25586 2.6261 2.609 0 0 0-0.25391 0.29492 2.5892 2.5724 0 0 0-0.20703 0.33984 2.7117 2.6941 0 0 0-0.1543 0.37305 2.5384 2.5219 0 0 0-0.099609 0.40039 2.7496 2.7317 0 0 0-0.033203 0.42578 2.888 2.8692 0 0 0 0.033203 0.43164l-0.005859 0.003907a2.6171 2.6001 0 0 0 0.099609 0.40625 2.6649 2.6476 0 0 0 0.15234 0.37305 2.399 2.3834 0 0 0 0.19922 0.33789 2.4647 2.4487 0 0 0 0.86719 0.75195 2.4418 2.426 0 0 0 0.35547 0.15039 2.4279 2.4121 0 0 0 0.38086 0.091797 2.6221 2.6051 0 0 0 0.39844 0.03125 2.405 2.3894 0 0 0 0.29297-0.017578 2.2217 2.2073 0 0 0 0.27734-0.056641 2.6818 2.6644 0 0 0 0.26172-0.085938 2.5364 2.52 0 0 0 0.24219-0.10742c0.078671-0.039576 0.15199-0.076574 0.2207-0.12109 0.068714-0.044524 0.13648-0.095142 0.19922-0.13867 0.062739-0.043531 0.12396-0.096078 0.17774-0.14258 0.054441-0.047489 0.10396-0.094452 0.14844-0.14062l0.052735-0.056641-0.052735-0.058594-0.1875-0.19726-0.05664-0.060547-0.060547 0.054687c-0.035853 0.03166-0.074405 0.06498-0.11524 0.09961l-0.13281 0.10547c-0.048797 0.037591-0.10144 0.074745-0.1582 0.10937-0.056764 0.034626-0.11791 0.070839-0.18164 0.10547a1.923 1.9105 0 0 1-0.19922 0.097657c-0.06971 0.026709-0.14203 0.053411-0.2207 0.076171a1.8174 1.8056 0 0 1-0.24219 0.050782 2.1839 2.1697 0 0 1-0.26367 0.017578 1.5266 1.5167 0 0 1-0.3418-0.041016 1.4609 1.4514 0 0 1-0.31836-0.11523 1.6641 1.6533 0 0 1-0.29102-0.1875 1.8134 1.8017 0 0 1-0.25586-0.25 1.9847 1.9718 0 0 1-0.21289-0.30664 2.3512 2.3359 0 0 1-0.16211-0.35938 2.2905 2.2756 0 0 1-0.09961-0.40234 2.7336 2.7159 0 0 1-0.035156-0.44141 2.7107 2.6931 0 0 1 0.021484-0.3418 2.5275 2.5111 0 0 1 0.0625-0.32617 2.3432 2.328 0 0 1 0.09961-0.30469 2.2686 2.2538 0 0 1 0.13867-0.2793 2.0256 2.0124 0 0 1 0.16992-0.24609 1.8802 1.868 0 0 1 0.19922-0.21094 1.6282 1.6176 0 0 1 0.22461-0.17188 1.6511 1.6404 0 0 1 0.25391-0.12891 1.4938 1.4841 0 0 1 0.27344-0.080079 1.6671 1.6562 0 0 1 0.29883-0.027343 1.5117 1.5019 0 0 1 0.23047 0.017578 1.6432 1.6325 0 0 1 0.22852 0.054687 1.7836 1.772 0 0 1 0.22852 0.091797 1.9399 1.9273 0 0 1 0.21484 0.12109 2.0315 2.0183 0 0 1 0.20508 0.1543 2.2546 2.24 0 0 1 0.18945 0.18164l0.066406 0.072266 0.0625-0.074219 0.32226-0.39648 0.056641-0.06836-0.072266-0.050781c-0.066722-0.0465-0.1382-0.099984-0.21289-0.14648-0.074689-0.046496-0.15658-0.089283-0.24024-0.13281a2.4428 2.427 0 0 0-0.27344-0.11914 3.0214 3.0018 0 0 0-0.29883-0.09375 2.5354 2.519 0 0 0-0.33594-0.0625 3.1977 3.1769 0 0 0-0.36719-0.021485 2.4229 2.4072 0 0 0-0.00586 0zm22.35 0.00586a2.7635 2.7455 0 0 0-0.41797 0.03125 2.5404 2.5239 0 0 0-0.39844 0.099609 2.7037 2.6862 0 0 0-0.37305 0.15625 2.5892 2.5724 0 0 0-0.3418 0.20898 2.5564 2.5398 0 0 0-0.29883 0.25781 2.6729 2.6555 0 0 0-0.25977 0.29688 2.6002 2.5833 0 0 0-0.21094 0.33594 2.6579 2.6407 0 0 0-0.15625 0.37305 2.5036 2.4873 0 0 0-0.09961 0.39648 2.7366 2.7188 0 0 0-0.035156 0.41992 2.7177 2.7 0 0 0 0.035156 0.41602 2.5693 2.5526 0 0 0 0.09961 0.39648 2.6061 2.5892 0 0 0 0.15625 0.37109 2.5703 2.5536 0 0 0 0.21094 0.33594 2.6111 2.5942 0 0 0 0.26172 0.30273 2.6749 2.6575 0 0 0 0.29883 0.25586 2.7217 2.704 0 0 0 0.3418 0.20898 2.8123 2.794 0 0 0 0.37305 0.15625 2.5593 2.5427 0 0 0 0.39844 0.099609 2.7326 2.7149 0 0 0 0.42188 0.033203 2.7316 2.7139 0 0 0 0.42383-0.033203 2.5673 2.5506 0 0 0 0.39844-0.099609 2.7595 2.7416 0 0 0 0.37305-0.15625 2.5086 2.4923 0 0 0 0.33984-0.20703 2.6629 2.6456 0 0 0 0.29883-0.25586 2.6131 2.5962 0 0 0 0.47266-0.64062 2.6679 2.6506 0 0 0 0.15625-0.36914 2.4608 2.4448 0 0 0 0.09961-0.39648 2.7416 2.7238 0 0 0 0.03515-0.41797 2.7715 2.7535 0 0 0-0.03515-0.41992 2.4896 2.4735 0 0 0-0.09961-0.39648 2.7496 2.7317 0 0 0-0.1582-0.37109 2.5484 2.5318 0 0 0-0.21094-0.33789 2.6888 2.6713 0 0 0-0.25781-0.29688 2.5663 2.5496 0 0 0-0.29883-0.25781 2.6022 2.5853 0 0 0-0.33984-0.20898 2.6948 2.6773 0 0 0-0.375-0.15625 2.4468 2.4309 0 0 0-0.39844-0.097656 2.7555 2.7376 0 0 0-0.42578-0.033203 2.7635 2.7455 0 0 0-0.003906 0zm-70.836 0.041015v5.0449h0.72461v-2.3555h2.4043v2.3555h0.72461v-4.9609h-0.001953v-0.083985h-0.72266v2.2148h-2.4043v-2.2148h-0.72461zm12.875 0v5.0469h3.0586v-0.42969-0.087891h-0.083984l-2.252 0.042969v-1.8379l2.1582 0.013672h0.083984v-0.50391h-0.083984l-2.1582 0.013672v-1.7793l2.252 0.041016h0.083984v-0.51953h-3.0586zm68.211 0v5.0469h0.72851v-4.9629-0.083985h-0.72851zm3.291 0v5.0469h3.0606v-0.42969-0.087891h-0.08594l-2.252 0.042969v-1.8379l2.1602 0.013672h0.08398v-0.50391h-0.08398l-2.1602 0.013672v-1.7793l2.252 0.041016h0.08594v-0.51953h-3.0606zm-32.096 0.007813v5.0469h3.0605v-0.42969-0.085937h-0.085937l-2.25 0.041015v-1.8379l2.1582 0.013672h0.083984v-0.50391h-0.083984l-2.1582 0.013671v-1.7793l2.25 0.041016h0.085937v-0.51953h-3.0605zm22.988 0.001953v5.0449h0.72461v-2.4551l0.09961 0.11523 2.1289 2.3145 0.02344 0.025391h0.9707l-0.13086-0.13867-1.8203-1.957c0.05173-0.00518 0.10243-0.011907 0.15234-0.019531a1.8642 1.8521 0 0 0 0.31836-0.082032 1.8055 1.7938 0 0 0 0.28516-0.13086 1.5436 1.5335 0 0 0 0.25-0.17188 1.4221 1.4128 0 0 0 0.20507-0.21289 1.4101 1.401 0 0 0 0.1543-0.24414 1.2438 1.2357 0 0 0 0.09961-0.27344 1.3603 1.3515 0 0 0 0.03516-0.29492 1.4778 1.4682 0 0 0-0.03711-0.3125 1.3643 1.3555 0 0 0-0.09961-0.28906 1.4032 1.394 0 0 0-0.16211-0.25977 1.449 1.4396 0 0 0-0.2168-0.22266 1.6113 1.6008 0 0 0-0.26758-0.18359 1.9578 1.9451 0 0 0-0.30859-0.13672 2.1281 2.1143 0 0 0-0.3457-0.085937 2.39 2.3745 0 0 0-0.37696-0.029297h-1.6816zm-66.861 0.40234a1.7139 1.7027 0 0 1 0.37109 0.041015 1.5934 1.583 0 0 1 0.34375 0.12109 1.8085 1.7967 0 0 1 0.3125 0.19727 1.8832 1.8709 0 0 1 0.26953 0.25391 2.0086 1.9956 0 0 1 0.22461 0.3125 2.3363 2.3211 0 0 1 0.16992 0.36133 2.3273 2.3122 0 0 1 0.10742 0.39453 2.6759 2.6585 0 0 1 0.03711 0.43359 2.644 2.6268 0 0 1-0.03711 0.43164l-0.001953-0.003907a2.2825 2.2677 0 0 1-0.10742 0.39648 2.39 2.3745 0 0 1-0.16992 0.35938 1.9817 1.9689 0 0 1-0.22266 0.31055 1.8603 1.8482 0 0 1-0.27148 0.25391 1.7806 1.769 0 0 1-0.31055 0.19141 1.5535 1.5434 0 0 1-0.3457 0.12109 1.7069 1.6958 0 0 1-0.37109 0.041016 1.6999 1.6889 0 0 1-0.36914-0.041016 1.5366 1.5266 0 0 1-0.34375-0.12109 1.7119 1.7008 0 0 1-0.3125-0.19141 1.8921 1.8798 0 0 1-0.27148-0.25391 2.0375 2.0243 0 0 1-0.22266-0.31055 2.2367 2.2222 0 0 1-0.16992-0.35938 2.2984 2.2835 0 0 1-0.10742-0.39648 2.5822 2.5655 0 0 1 0-0.86523 2.3104 2.2954 0 0 1 0.10742-0.39453 2.3532 2.3379 0 0 1 0.16992-0.36133 2.0913 2.0777 0 0 1 0.22266-0.3125 1.8184 1.8066 0 0 1 0.58398-0.44727 1.5934 1.583 0 0 1 0.34375-0.12109 1.7079 1.6968 0 0 1 0.37109-0.041015zm62.43 0.007812a1.7159 1.7047 0 0 1 0.37305 0.041016 1.6053 1.5949 0 0 1 0.34375 0.12109 1.8045 1.7928 0 0 1 0.3125 0.19726 1.8832 1.8709 0 0 1 0.26953 0.25391 2.0614 2.048 0 0 1 0.22461 0.3125 2.3313 2.3162 0 0 1 0.16992 0.36133 2.3263 2.3112 0 0 1 0.10547 0.39453 2.6042 2.5872 0 0 1 0.037109 0.43359 2.5753 2.5586 0 0 1-0.037109 0.43164l-0.001953-0.003906a2.3472 2.332 0 0 1-0.10547 0.39648 2.3094 2.2944 0 0 1-0.16992 0.35938 2.0764 2.0629 0 0 1-0.22461 0.31055 1.8603 1.8482 0 0 1-0.26953 0.25391 1.7786 1.767 0 0 1-0.31055 0.19141 1.5515 1.5415 0 0 1-0.3457 0.12109 1.7089 1.6978 0 0 1-0.37109 0.041015 1.693 1.682 0 0 1-0.37109-0.041015 1.5535 1.5434 0 0 1-0.34375-0.12109 1.7129 1.7017 0 0 1-0.3125-0.19141 1.8921 1.8798 0 0 1-0.26953-0.25391 1.9917 1.9788 0 0 1-0.22461-0.31055 2.172 2.1579 0 0 1-0.16797-0.35938 2.2905 2.2756 0 0 1-0.10742-0.39453 2.5783 2.5615 0 0 1 0-0.86719 2.3711 2.3557 0 0 1 0.10742-0.39453 2.2237 2.2093 0 0 1 0.16797-0.36133 2.0783 2.0648 0 0 1 0.22461-0.3125 1.8164 1.8046 0 0 1 0.58203-0.44726 1.6123 1.6018 0 0 1 0.3457-0.12109 1.7039 1.6928 0 0 1 0.36914-0.041016zm5.1523 0.060547 0.9082 0.001953a1.3942 1.3851 0 0 1 0.41992 0.0625 1.1183 1.1111 0 0 1 0.1875 0.080078 1.0446 1.0379 0 0 1 0.16602 0.11133 0.86938 0.86373 0 0 1 0.13867 0.14453 0.94108 0.93497 0 0 1 0.10351 0.17773 1.0108 1.0042 0 0 1 0.06836 0.21289 1.432 1.4227 0 0 1 0.02344 0.25586 1.4251 1.4158 0 0 1-0.02344 0.25195 1.0098 1.0032 0 0 1-0.06836 0.21289 0.90623 0.90034 0 0 1-0.10546 0.17773 0.85245 0.84691 0 0 1-0.13672 0.14453 0.97494 0.96861 0 0 1-0.16602 0.11133 1.0954 1.0883 0 0 1-0.1875 0.080078 1.3842 1.3752 0 0 1-0.41992 0.0625h-0.9082v-2.0879zm-39.662 0.62891 0.80274 1.7422h-1.582l0.7793-1.7422zm-9.5781 1.3594 1.6152 1.7227-0.025391 0.023437 0.001953 0.007813c-0.02888 0.0287-0.05889 0.057247-0.09375 0.085937-0.036849 0.03068-0.076357 0.061154-0.11719 0.089844-0.042823 0.02968-0.08605 0.058264-0.13086 0.083984-0.043813 0.02573-0.092788 0.050496-0.14258 0.072266a1.4171 1.4079 0 0 1-0.1543 0.05664 1.0755 1.0685 0 0 1-0.1582 0.039063 1.0875 1.0804 0 0 1-0.16406 0.013672 1.1144 1.1071 0 0 1-0.23047-0.025391 0.90921 0.90331 0 0 1-0.21094-0.072265 1.1861 1.1784 0 0 1-0.18945-0.11328 1.0735 1.0666 0 0 1-0.1582-0.14453 1.2807 1.2724 0 0 1-0.13281-0.17578 1.2438 1.2357 0 0 1-0.09961-0.19727 1.1552 1.1477 0 0 1-0.060547-0.20508 1.1532 1.1457 0 0 1-0.021484-0.21094 1.7537 1.7423 0 0 1 0.021484-0.25977 1.2866 1.2783 0 0 1 0.054688-0.22461 1.2438 1.2357 0 0 1 0.082031-0.19922 1.0954 1.0883 0 0 1 0.10547-0.16211 1.3434 1.3347 0 0 1 0.12695-0.13672c0.02589-0.02375 0.053151-0.04659 0.082031-0.06836z" stroke-width="1"/>
    </g>
    <g id="logo-white" class="hidden white-fill">
        <path d="m112.78 0.22656v20.818l-12.5-20.811h-0.31445v-0.0058594h-5.2012l-0.29883 1.1953h2.7188l0.001953 0.0019531v26.871h2.082v-21.424l13.025 21.42h2.5664v-28.066h-2.0801zm-91.701 0.0019531-0.29883 1.1953h2.6562l-5.3164 19.391-0.023438-0.86914-5.5156-19.715h-7.293l-0.29883 1.1953h2.6582l-7.3496 26.869h2.1523l6.5938-24.537 6.9141 24.537h2.3086l6.582-24.496 6.9004 24.496h3.0488v-0.007813h1.5391l-7.8398-28.059h-7.418zm-20.781 28.066h-0.0039063l0.0039063 0.001953v-0.001953zm38.871-28.066-0.29883 1.1953h2.6562l-0.00586 0.0019531v26.861h4.4883v-28.059h-6.8398zm13.357 0-0.29883 1.1953h2.6562l-0.001953 0.0019531v26.865h13.623l0.48828-1.7852h-9.627v-26.277h-6.8398zm23.941 0.0019531-0.29883 1.1953h2.7773l-0.33398 1.2188-7.0156 25.652h2.1484l2.1406-7.9648h9.125l2.2441 7.9648h3.0527v-0.007813h1.541c-2.6181-9.3715-5.2187-18.672-7.8418-28.059h-7.5391zm48.445 0-0.29883 1.1953h2.7773l-0.33398 1.2188-7.0156 25.652h2.1562l2.1387-7.9648h9.125l2.2441 7.9648h3.0488v-0.007813h1.5391l-2.4766-8.8633v-0.12305h-0.03515l-5.3301-19.072h-7.5391zm-44.566 3.5273 4.2207 14.98h-8.2461l4.0254-14.98zm48.445 0 4.2207 14.98h-8.2461l4.0254-14.98zm-65.539 35.025-0.076172 0.16211-2.3594 5.0469-0.054687 0.11719h0.61133l0.021484-0.048828 0.74805-1.6816h2.0059l0.77344 1.6816 0.023437 0.048828h0.79688l-0.054687-0.11719-2.3594-5.0469h0.001953l-0.078125-0.16211zm-40.613 0.14844a2.2128 2.1984 0 0 0-0.375 0.03125 1.3942 1.3851 0 0 0-0.51367 2.6523 14.871 14.775 0 0 0 1.4863 0.47656c0.8405 0.26417 0.68333 1.4484-0.41211 1.5137a1.8583 1.8462 0 0 1-1.5234-0.63281l-0.39062 0.31836a2.2476 2.233 0 0 0 2.1797 0.86914 1.436 1.4267 0 0 0 0.52539-2.7266 14.209 14.117 0 0 0-1.4941-0.45703h0.007812c-0.82955-0.25823-0.67406-1.4113 0.39648-1.4746a1.8364 1.8244 0 0 1 1.4941 0.61524l0.38477-0.30664a2.2128 2.1984 0 0 0-1.7656-0.87891zm23.602 0a2.2128 2.1984 0 0 0-0.37305 0.03125 1.3942 1.3851 0 0 0-0.51562 2.6523 14.938 14.841 0 0 0 1.4863 0.47656c0.8405 0.26417 0.68528 1.4484-0.41016 1.5137a1.8583 1.8462 0 0 1-1.5254-0.63281l-0.38867 0.31836a2.2476 2.233 0 0 0 2.1777 0.86914 1.436 1.4267 0 0 0 0.52539-2.7266 14.269 14.176 0 0 0-1.4941-0.45703h0.007813c-0.82954-0.25823-0.67111-1.4113 0.39844-1.4746a1.8373 1.8254 0 0 1 1.4941 0.61524l0.38281-0.30664a2.2128 2.1984 0 0 0-1.7656-0.87891zm39.791 0a2.2108 2.1964 0 0 0-0.375 0.03125 1.3942 1.3851 0 0 0-0.51562 2.6523 14.951 14.854 0 0 0 1.4863 0.47656c0.8415 0.26417 0.68528 1.4484-0.41016 1.5137a1.8583 1.8462 0 0 1-1.5234-0.63281l-0.39062 0.31836a2.2476 2.233 0 0 0 2.1777 0.86914 1.436 1.4267 0 0 0 0.52539-2.7266 14.281 14.188 0 0 0-1.4941-0.45703h0.007812c-0.82955-0.25823-0.67111-1.4113 0.39844-1.4746a1.8373 1.8254 0 0 1 1.4941 0.61524l0.38281-0.30664a2.2108 2.1964 0 0 0-1.7637-0.87891zm5.5586 0a2.2118 2.1974 0 0 0-0.37305 0.03125 1.3942 1.3851 0 0 0-0.51562 2.6523 14.901 14.804 0 0 0 1.4863 0.47656c0.8405 0.26417 0.6803 1.4484-0.41016 1.5137a1.8593 1.8472 0 0 1-1.5254-0.63281l-0.39062 0.31836a2.2476 2.233 0 0 0 2.1777 0.86914 1.436 1.4267 0 0 0 0.52539-2.7266 14.229 14.136 0 0 0-1.4941-0.45703h0.007813c-0.82955-0.25823-0.6721-1.4113 0.39844-1.4746a1.8364 1.8244 0 0 1 1.4941 0.61524l0.38281-0.30664a2.2118 2.1974 0 0 0-1.7637-0.87891zm26.266 0a2.2118 2.1974 0 0 0-0.375 0.03125 1.3942 1.3851 0 0 0-0.51563 2.6523 14.893 14.796 0 0 0 1.4863 0.47656c0.8405 0.26417 0.6803 1.4484-0.41016 1.5137a1.8563 1.8442 0 0 1-1.5234-0.63281l-0.39062 0.31836a2.2476 2.233 0 0 0 2.1777 0.86914 1.436 1.4267 0 0 0 0.52539-2.7266 14.232 14.139 0 0 0-1.4941-0.45703h0.00782c-0.82955-0.25823-0.67211-1.4113 0.39843-1.4746a1.8354 1.8234 0 0 1 1.4942 0.61524l0.38281-0.30664a2.2118 2.1974 0 0 0-1.7637-0.87891zm-63.811 0.021484a1.6521 1.6414 0 0 0-0.27539 0.025391 1.3464 1.3377 0 0 0-0.25391 0.070312 1.3703 1.3614 0 0 0-0.2207 0.10938 1.195 1.1873 0 0 0-0.19336 0.14648 1.1353 1.1279 0 0 0-0.15625 0.17383 1.0954 1.0883 0 0 0-0.11719 0.19922 1.0875 1.0804 0 0 0-0.070313 0.2168 1.1243 1.117 0 0 0-0.02539 0.23047 1.2837 1.2753 0 0 0 0.013672 0.19141 1.1871 1.1793 0 0 0 0.042968 0.18164 1.5934 1.583 0 0 0 0.0625 0.16406 1.448 1.4386 0 0 0 0.080079 0.14844c0.02788 0.044519 0.05702 0.088319 0.08789 0.13086 0.03187 0.041554 0.06575 0.083467 0.09961 0.12305 0.03684 0.037593 0.068739 0.073782 0.099609 0.10742l0.015625 0.015625c-0.0249 0.01484-0.050319 0.029092-0.074219 0.044922a1.7816 1.77 0 0 0-0.17188 0.13281 1.9688 1.956 0 0 0-0.16602 0.16016 2.1042 2.0906 0 0 0-0.14844 0.18164 1.8035 1.7918 0 0 0-0.12891 0.20508 1.7656 1.7542 0 0 0-0.09961 0.22656 1.4788 1.4692 0 0 0-0.066406 0.24219 1.5057 1.496 0 0 0-0.023437 0.25586 1.2438 1.2357 0 0 0 0.015625 0.19726 1.5017 1.492 0 0 0 0.12695 0.41211 1.7039 1.6928 0 0 0 0.11719 0.20312 1.443 1.4336 0 0 0 0.1543 0.19726 1.6402 1.6295 0 0 0 0.19141 0.17578 1.5705 1.5603 0 0 0 0.23633 0.14844 1.8423 1.8304 0 0 0 0.27344 0.11524 1.8164 1.8046 0 0 0 0.32227 0.074218 2.6032 2.5863 0 0 0 0.36328 0.025391 2.0564 2.0431 0 0 0 0.30469-0.023438 1.8204 1.8086 0 0 0 0.2832-0.064453 2.4378 2.422 0 0 0 0.26367-0.099609 1.7557 1.7443 0 0 0 0.22852-0.12305 2.159 2.145 0 0 0 0.19922-0.14258c0.03187-0.02968 0.066749-0.059174 0.099609-0.089844l0.52539 0.58398h0.98438l-1.0566-1.1641c0.03385-0.067278 0.063917-0.13197 0.091797-0.19727a1.9917 1.9788 0 0 0 0.087891-0.26172 2.399 2.3834 0 0 0 0.054687-0.25977 2.1212 2.1074 0 0 0 0.023438-0.25781 2.2427 2.2281 0 0 0 0-0.25 2.2476 2.233 0 0 0-0.03125-0.23828c-0.01394-0.078162-0.032815-0.1534-0.052735-0.22266l-0.011718-0.039062h0.95508v-0.65039h-1.9629v0.65039h0.28125a1.2588 1.2506 0 0 1 0.0625 0.12305 1.7288 1.7176 0 0 1 0.080078 0.22656 1.673 1.6622 0 0 1 0.046875 0.24414 2.0574 2.0441 0 0 1 0.009766 0.25781 1.683 1.6721 0 0 1-0.033203 0.26367c-0.00996 0.044527-0.020254 0.090246-0.033203 0.13477l-1.4941-1.5918c-0.058755-0.062331-0.11802-0.12421-0.17578-0.18555-0.051789-0.057384-0.10554-0.11358-0.15234-0.16602a1.5645 1.5543 0 0 1-0.11719-0.14648 1.1034 1.0962 0 0 1-0.08789-0.14062 0.61245 0.60847 0 0 1-0.052735-0.14062 0.70208 0.69752 0 0 1-0.017578-0.15625 0.78473 0.77964 0 0 1 0.019531-0.17578 0.6971 0.69257 0 0 1 0.054688-0.1543 0.56166 0.55801 0 0 1 0.085938-0.12695 0.59751 0.59363 0 0 1 0.11914-0.099609 0.48797 0.4848 0 0 1 0.14453-0.0625 0.74191 0.73709 0 0 1 0.18164-0.021484 0.86042 0.85483 0 0 1 0.15234 0.015625 0.71502 0.71038 0 0 1 0.13867 0.042968 0.92017 0.91419 0 0 1 0.12891 0.066407 0.89627 0.89045 0 0 1 0.11328 0.082031 1.2139 1.2061 0 0 1 0.099609 0.099609 1.1134 1.1061 0 0 1 0.080079 0.097657l0.068359 0.09375 0.066406-0.09375 0.24609-0.33984 0.042969-0.060547-0.052735-0.052734a1.2946 1.2862 0 0 0-0.2168-0.17774 1.3454 1.3367 0 0 0-0.25195-0.13086 1.4709 1.4613 0 0 0-0.29883-0.080078 2.0315 2.0183 0 0 0-0.33594-0.027344zm-18.838 0.048828a2.7476 2.7297 0 0 0-0.41602 0.033203 2.5255 2.5091 0 0 0-0.39844 0.097656 2.6888 2.6713 0 0 0-0.375 0.15625 2.5683 2.5516 0 0 0-0.33984 0.20898 2.6211 2.6041 0 0 0-0.29883 0.25781 2.7575 2.7396 0 0 0-0.25976 0.29688 2.6131 2.5962 0 0 0-0.21094 0.33789 2.7157 2.6981 0 0 0-0.15625 0.37305 2.4717 2.4557 0 0 0-0.099609 0.39453 2.7595 2.7416 0 0 0-0.033203 0.41992 2.7396 2.7218 0 0 0 0.033203 0.41797 2.5424 2.5259 0 0 0 0.099609 0.39648 2.5763 2.5595 0 0 0 0.36719 0.70703 2.6888 2.6713 0 0 0 0.26172 0.30274 2.635 2.6179 0 0 0 0.29883 0.25391 2.6998 2.6822 0 0 0 0.33984 0.21094 2.7675 2.7495 0 0 0 0.375 0.1543 2.5135 2.4972 0 0 0 0.39844 0.09961 2.7247 2.707 0 0 0 0.42188 0.033203 2.7227 2.705 0 0 0 0.42188-0.033203 2.5444 2.5279 0 0 0 0.39844-0.09961 2.6709 2.6535 0 0 0 0.375-0.15625 2.5026 2.4863 0 0 0 0.33984-0.20703 2.6181 2.6011 0 0 0 0.29883-0.25586 2.6171 2.6001 0 0 0 0.47266-0.63867 2.5155 2.4992 0 0 0 0.15625-0.37109 2.5364 2.52 0 0 0 0.09961-0.39648 2.7486 2.7307 0 0 0 0.035156-0.41602 2.7794 2.7614 0 0 0-0.035156-0.42188h-0.003907a2.5633 2.5467 0 0 0-0.099609-0.39453 2.5892 2.5724 0 0 0-0.15625-0.37305 2.6261 2.609 0 0 0-0.21094-0.33594 2.6998 2.6822 0 0 0-0.25977-0.29688 2.5603 2.5437 0 0 0-0.29883-0.25781 2.6042 2.5872 0 0 0-0.33984-0.21094 2.7087 2.6911 0 0 0-0.37305-0.1543 2.4528 2.4369 0 0 0-0.39844-0.09961 2.7515 2.7337 0 0 0-0.42383-0.033203 2.7476 2.7297 0 0 0-0.00586 0zm34.35 0.003906a2.4189 2.4032 0 0 0-0.77148 0.12891 2.5016 2.4853 0 0 0-0.6875 0.36328 2.5325 2.516 0 0 0-0.29883 0.25586 2.6261 2.609 0 0 0-0.25391 0.29492 2.7705 2.7525 0 0 0-0.20703 0.33984 2.8043 2.7861 0 0 0-0.1543 0.37305 2.5255 2.5091 0 0 0-0.09961 0.40039 2.8262 2.8079 0 0 0-0.033203 0.42578 2.9876 2.9682 0 0 0 0.03125 0.43164l-0.003906 0.003907a2.6171 2.6001 0 0 0 0.099609 0.40625 2.8501 2.8316 0 0 0 0.15039 0.37305 2.4896 2.4735 0 0 0 0.20508 0.33789 2.4289 2.4131 0 0 0 0.25 0.29688 2.4777 2.4616 0 0 0 0.29102 0.25195 2.5673 2.5506 0 0 0 0.32617 0.20312 2.4418 2.426 0 0 0 0.35547 0.15039 2.398 2.3824 0 0 0 0.38086 0.091797 2.6251 2.608 0 0 0 0.39844 0.03125 2.396 2.3805 0 0 0 0.29297-0.017578 2.1909 2.1767 0 0 0 0.27734-0.056641 2.7326 2.7149 0 0 0 0.26172-0.085938 2.5653 2.5487 0 0 0 0.24414-0.10742c0.078673-0.039576 0.15199-0.076574 0.2207-0.12109 0.068714-0.044524 0.13549-0.095142 0.19922-0.13867 0.063735-0.043531 0.122-0.096078 0.17578-0.14258 0.054442-0.047489 0.10396-0.094452 0.14844-0.14062l0.054687-0.056641-0.052734-0.058594-0.1875-0.19726-0.056641-0.060547-0.0625 0.054687c-0.034853 0.03166-0.072451 0.06498-0.11328 0.09961l-0.13477 0.10547c-0.048797 0.037591-0.09949 0.074745-0.15625 0.10937-0.056763 0.034626-0.1179 0.070839-0.18164 0.10547a1.8672 1.8551 0 0 1-0.19922 0.097657c-0.068713 0.02671-0.14203 0.053411-0.2207 0.076171a1.8005 1.7888 0 0 1-0.24414 0.050782 2.2008 2.1865 0 0 1-0.26367 0.017578 1.5256 1.5157 0 0 1-0.33984-0.041016 1.4539 1.4445 0 0 1-0.31836-0.11523 1.682 1.6711 0 0 1-0.29297-0.1875 1.7766 1.7651 0 0 1-0.25391-0.25 2.0027 1.9897 0 0 1-0.21289-0.30664 2.3632 2.3478 0 0 1-0.16211-0.35938 2.2905 2.2756 0 0 1-0.099609-0.40234 2.8173 2.799 0 0 1-0.035157-0.44141 2.7356 2.7178 0 0 1 0.019532-0.3418 2.5275 2.5111 0 0 1 0.064453-0.32617 2.3801 2.3646 0 0 1 0.099609-0.30469 2.2068 2.1925 0 0 1 0.13867-0.2793 1.9519 1.9392 0 0 1 0.16992-0.24609 1.7696 1.7581 0 0 1 0.19922-0.21094 1.674 1.6632 0 0 1 0.22461-0.17188 1.6203 1.6097 0 0 1 0.25391-0.12891 1.4679 1.4584 0 0 1 0.27344-0.080079 1.6681 1.6572 0 0 1 0.29883-0.027343 1.5256 1.5157 0 0 1 0.23242 0.017578 1.6641 1.6533 0 0 1 0.22852 0.054687 1.8214 1.8096 0 0 1 0.22656 0.091797 1.923 1.9105 0 0 1 0.21484 0.12109 1.9569 1.9441 0 0 1 0.19922 0.1543 2.0584 2.0451 0 0 1 0.18945 0.18164l0.066406 0.072266 0.0625-0.074219 0.32227-0.39648 0.054687-0.06836-0.070313-0.050781c-0.066722-0.0465-0.13916-0.099984-0.21484-0.14648-0.075685-0.046496-0.15463-0.089283-0.23828-0.13281a2.4787 2.4626 0 0 0-0.27344-0.11914 2.9876 2.9682 0 0 0-0.29883-0.09375 2.5334 2.517 0 0 0-0.33594-0.0625 3.1867 3.166 0 0 0-0.36719-0.021485 2.4189 2.4032 0 0 0-0.005859 0zm5.7324 0a2.4229 2.4072 0 0 0-0.77148 0.12891 2.4697 2.4537 0 0 0-0.35938 0.1543 2.5056 2.4893 0 0 0-0.32812 0.20898 2.5334 2.517 0 0 0-0.29883 0.25586 2.6261 2.609 0 0 0-0.25391 0.29492 2.5892 2.5724 0 0 0-0.20703 0.33984 2.7117 2.6941 0 0 0-0.1543 0.37305 2.5384 2.5219 0 0 0-0.099609 0.40039 2.7496 2.7317 0 0 0-0.033203 0.42578 2.888 2.8692 0 0 0 0.033203 0.43164l-0.005859 0.003907a2.6171 2.6001 0 0 0 0.099609 0.40625 2.6649 2.6476 0 0 0 0.15234 0.37305 2.399 2.3834 0 0 0 0.19922 0.33789 2.4647 2.4487 0 0 0 0.86719 0.75195 2.4418 2.426 0 0 0 0.35547 0.15039 2.4279 2.4121 0 0 0 0.38086 0.091797 2.6221 2.6051 0 0 0 0.39844 0.03125 2.405 2.3894 0 0 0 0.29297-0.017578 2.2217 2.2073 0 0 0 0.27734-0.056641 2.6818 2.6644 0 0 0 0.26172-0.085938 2.5364 2.52 0 0 0 0.24219-0.10742c0.078671-0.039576 0.15199-0.076574 0.2207-0.12109 0.068714-0.044524 0.13648-0.095142 0.19922-0.13867 0.062739-0.043531 0.12396-0.096078 0.17774-0.14258 0.054441-0.047489 0.10396-0.094452 0.14844-0.14062l0.052735-0.056641-0.052735-0.058594-0.1875-0.19726-0.05664-0.060547-0.060547 0.054687c-0.035853 0.03166-0.074405 0.06498-0.11524 0.09961l-0.13281 0.10547c-0.048797 0.037591-0.10144 0.074745-0.1582 0.10937-0.056764 0.034626-0.11791 0.070839-0.18164 0.10547a1.923 1.9105 0 0 1-0.19922 0.097657c-0.06971 0.026709-0.14203 0.053411-0.2207 0.076171a1.8174 1.8056 0 0 1-0.24219 0.050782 2.1839 2.1697 0 0 1-0.26367 0.017578 1.5266 1.5167 0 0 1-0.3418-0.041016 1.4609 1.4514 0 0 1-0.31836-0.11523 1.6641 1.6533 0 0 1-0.29102-0.1875 1.8134 1.8017 0 0 1-0.25586-0.25 1.9847 1.9718 0 0 1-0.21289-0.30664 2.3512 2.3359 0 0 1-0.16211-0.35938 2.2905 2.2756 0 0 1-0.09961-0.40234 2.7336 2.7159 0 0 1-0.035156-0.44141 2.7107 2.6931 0 0 1 0.021484-0.3418 2.5275 2.5111 0 0 1 0.0625-0.32617 2.3432 2.328 0 0 1 0.09961-0.30469 2.2686 2.2538 0 0 1 0.13867-0.2793 2.0256 2.0124 0 0 1 0.16992-0.24609 1.8802 1.868 0 0 1 0.19922-0.21094 1.6282 1.6176 0 0 1 0.22461-0.17188 1.6511 1.6404 0 0 1 0.25391-0.12891 1.4938 1.4841 0 0 1 0.27344-0.080079 1.6671 1.6562 0 0 1 0.29883-0.027343 1.5117 1.5019 0 0 1 0.23047 0.017578 1.6432 1.6325 0 0 1 0.22852 0.054687 1.7836 1.772 0 0 1 0.22852 0.091797 1.9399 1.9273 0 0 1 0.21484 0.12109 2.0315 2.0183 0 0 1 0.20508 0.1543 2.2546 2.24 0 0 1 0.18945 0.18164l0.066406 0.072266 0.0625-0.074219 0.32226-0.39648 0.056641-0.06836-0.072266-0.050781c-0.066722-0.0465-0.1382-0.099984-0.21289-0.14648-0.074689-0.046496-0.15658-0.089283-0.24024-0.13281a2.4428 2.427 0 0 0-0.27344-0.11914 3.0214 3.0018 0 0 0-0.29883-0.09375 2.5354 2.519 0 0 0-0.33594-0.0625 3.1977 3.1769 0 0 0-0.36719-0.021485 2.4229 2.4072 0 0 0-0.00586 0zm22.35 0.00586a2.7635 2.7455 0 0 0-0.41797 0.03125 2.5404 2.5239 0 0 0-0.39844 0.099609 2.7037 2.6862 0 0 0-0.37305 0.15625 2.5892 2.5724 0 0 0-0.3418 0.20898 2.5564 2.5398 0 0 0-0.29883 0.25781 2.6729 2.6555 0 0 0-0.25977 0.29688 2.6002 2.5833 0 0 0-0.21094 0.33594 2.6579 2.6407 0 0 0-0.15625 0.37305 2.5036 2.4873 0 0 0-0.09961 0.39648 2.7366 2.7188 0 0 0-0.035156 0.41992 2.7177 2.7 0 0 0 0.035156 0.41602 2.5693 2.5526 0 0 0 0.09961 0.39648 2.6061 2.5892 0 0 0 0.15625 0.37109 2.5703 2.5536 0 0 0 0.21094 0.33594 2.6111 2.5942 0 0 0 0.26172 0.30273 2.6749 2.6575 0 0 0 0.29883 0.25586 2.7217 2.704 0 0 0 0.3418 0.20898 2.8123 2.794 0 0 0 0.37305 0.15625 2.5593 2.5427 0 0 0 0.39844 0.099609 2.7326 2.7149 0 0 0 0.42188 0.033203 2.7316 2.7139 0 0 0 0.42383-0.033203 2.5673 2.5506 0 0 0 0.39844-0.099609 2.7595 2.7416 0 0 0 0.37305-0.15625 2.5086 2.4923 0 0 0 0.33984-0.20703 2.6629 2.6456 0 0 0 0.29883-0.25586 2.6131 2.5962 0 0 0 0.47266-0.64062 2.6679 2.6506 0 0 0 0.15625-0.36914 2.4608 2.4448 0 0 0 0.09961-0.39648 2.7416 2.7238 0 0 0 0.03515-0.41797 2.7715 2.7535 0 0 0-0.03515-0.41992 2.4896 2.4735 0 0 0-0.09961-0.39648 2.7496 2.7317 0 0 0-0.1582-0.37109 2.5484 2.5318 0 0 0-0.21094-0.33789 2.6888 2.6713 0 0 0-0.25781-0.29688 2.5663 2.5496 0 0 0-0.29883-0.25781 2.6022 2.5853 0 0 0-0.33984-0.20898 2.6948 2.6773 0 0 0-0.375-0.15625 2.4468 2.4309 0 0 0-0.39844-0.097656 2.7555 2.7376 0 0 0-0.42578-0.033203 2.7635 2.7455 0 0 0-0.003906 0zm-70.836 0.041015v5.0449h0.72461v-2.3555h2.4043v2.3555h0.72461v-4.9609h-0.001953v-0.083985h-0.72266v2.2148h-2.4043v-2.2148h-0.72461zm12.875 0v5.0469h3.0586v-0.42969-0.087891h-0.083984l-2.252 0.042969v-1.8379l2.1582 0.013672h0.083984v-0.50391h-0.083984l-2.1582 0.013672v-1.7793l2.252 0.041016h0.083984v-0.51953h-3.0586zm68.211 0v5.0469h0.72851v-4.9629-0.083985h-0.72851zm3.291 0v5.0469h3.0606v-0.42969-0.087891h-0.08594l-2.252 0.042969v-1.8379l2.1602 0.013672h0.08398v-0.50391h-0.08398l-2.1602 0.013672v-1.7793l2.252 0.041016h0.08594v-0.51953h-3.0606zm-32.096 0.007813v5.0469h3.0605v-0.42969-0.085937h-0.085937l-2.25 0.041015v-1.8379l2.1582 0.013672h0.083984v-0.50391h-0.083984l-2.1582 0.013671v-1.7793l2.25 0.041016h0.085937v-0.51953h-3.0605zm22.988 0.001953v5.0449h0.72461v-2.4551l0.09961 0.11523 2.1289 2.3145 0.02344 0.025391h0.9707l-0.13086-0.13867-1.8203-1.957c0.05173-0.00518 0.10243-0.011907 0.15234-0.019531a1.8642 1.8521 0 0 0 0.31836-0.082032 1.8055 1.7938 0 0 0 0.28516-0.13086 1.5436 1.5335 0 0 0 0.25-0.17188 1.4221 1.4128 0 0 0 0.20507-0.21289 1.4101 1.401 0 0 0 0.1543-0.24414 1.2438 1.2357 0 0 0 0.09961-0.27344 1.3603 1.3515 0 0 0 0.03516-0.29492 1.4778 1.4682 0 0 0-0.03711-0.3125 1.3643 1.3555 0 0 0-0.09961-0.28906 1.4032 1.394 0 0 0-0.16211-0.25977 1.449 1.4396 0 0 0-0.2168-0.22266 1.6113 1.6008 0 0 0-0.26758-0.18359 1.9578 1.9451 0 0 0-0.30859-0.13672 2.1281 2.1143 0 0 0-0.3457-0.085937 2.39 2.3745 0 0 0-0.37696-0.029297h-1.6816zm-66.861 0.40234a1.7139 1.7027 0 0 1 0.37109 0.041015 1.5934 1.583 0 0 1 0.34375 0.12109 1.8085 1.7967 0 0 1 0.3125 0.19727 1.8832 1.8709 0 0 1 0.26953 0.25391 2.0086 1.9956 0 0 1 0.22461 0.3125 2.3363 2.3211 0 0 1 0.16992 0.36133 2.3273 2.3122 0 0 1 0.10742 0.39453 2.6759 2.6585 0 0 1 0.03711 0.43359 2.644 2.6268 0 0 1-0.03711 0.43164l-0.001953-0.003907a2.2825 2.2677 0 0 1-0.10742 0.39648 2.39 2.3745 0 0 1-0.16992 0.35938 1.9817 1.9689 0 0 1-0.22266 0.31055 1.8603 1.8482 0 0 1-0.27148 0.25391 1.7806 1.769 0 0 1-0.31055 0.19141 1.5535 1.5434 0 0 1-0.3457 0.12109 1.7069 1.6958 0 0 1-0.37109 0.041016 1.6999 1.6889 0 0 1-0.36914-0.041016 1.5366 1.5266 0 0 1-0.34375-0.12109 1.7119 1.7008 0 0 1-0.3125-0.19141 1.8921 1.8798 0 0 1-0.27148-0.25391 2.0375 2.0243 0 0 1-0.22266-0.31055 2.2367 2.2222 0 0 1-0.16992-0.35938 2.2984 2.2835 0 0 1-0.10742-0.39648 2.5822 2.5655 0 0 1 0-0.86523 2.3104 2.2954 0 0 1 0.10742-0.39453 2.3532 2.3379 0 0 1 0.16992-0.36133 2.0913 2.0777 0 0 1 0.22266-0.3125 1.8184 1.8066 0 0 1 0.58398-0.44727 1.5934 1.583 0 0 1 0.34375-0.12109 1.7079 1.6968 0 0 1 0.37109-0.041015zm62.43 0.007812a1.7159 1.7047 0 0 1 0.37305 0.041016 1.6053 1.5949 0 0 1 0.34375 0.12109 1.8045 1.7928 0 0 1 0.3125 0.19726 1.8832 1.8709 0 0 1 0.26953 0.25391 2.0614 2.048 0 0 1 0.22461 0.3125 2.3313 2.3162 0 0 1 0.16992 0.36133 2.3263 2.3112 0 0 1 0.10547 0.39453 2.6042 2.5872 0 0 1 0.037109 0.43359 2.5753 2.5586 0 0 1-0.037109 0.43164l-0.001953-0.003906a2.3472 2.332 0 0 1-0.10547 0.39648 2.3094 2.2944 0 0 1-0.16992 0.35938 2.0764 2.0629 0 0 1-0.22461 0.31055 1.8603 1.8482 0 0 1-0.26953 0.25391 1.7786 1.767 0 0 1-0.31055 0.19141 1.5515 1.5415 0 0 1-0.3457 0.12109 1.7089 1.6978 0 0 1-0.37109 0.041015 1.693 1.682 0 0 1-0.37109-0.041015 1.5535 1.5434 0 0 1-0.34375-0.12109 1.7129 1.7017 0 0 1-0.3125-0.19141 1.8921 1.8798 0 0 1-0.26953-0.25391 1.9917 1.9788 0 0 1-0.22461-0.31055 2.172 2.1579 0 0 1-0.16797-0.35938 2.2905 2.2756 0 0 1-0.10742-0.39453 2.5783 2.5615 0 0 1 0-0.86719 2.3711 2.3557 0 0 1 0.10742-0.39453 2.2237 2.2093 0 0 1 0.16797-0.36133 2.0783 2.0648 0 0 1 0.22461-0.3125 1.8164 1.8046 0 0 1 0.58203-0.44726 1.6123 1.6018 0 0 1 0.3457-0.12109 1.7039 1.6928 0 0 1 0.36914-0.041016zm5.1523 0.060547 0.9082 0.001953a1.3942 1.3851 0 0 1 0.41992 0.0625 1.1183 1.1111 0 0 1 0.1875 0.080078 1.0446 1.0379 0 0 1 0.16602 0.11133 0.86938 0.86373 0 0 1 0.13867 0.14453 0.94108 0.93497 0 0 1 0.10351 0.17773 1.0108 1.0042 0 0 1 0.06836 0.21289 1.432 1.4227 0 0 1 0.02344 0.25586 1.4251 1.4158 0 0 1-0.02344 0.25195 1.0098 1.0032 0 0 1-0.06836 0.21289 0.90623 0.90034 0 0 1-0.10546 0.17773 0.85245 0.84691 0 0 1-0.13672 0.14453 0.97494 0.96861 0 0 1-0.16602 0.11133 1.0954 1.0883 0 0 1-0.1875 0.080078 1.3842 1.3752 0 0 1-0.41992 0.0625h-0.9082v-2.0879zm-39.662 0.62891 0.80274 1.7422h-1.582l0.7793-1.7422zm-9.5781 1.3594 1.6152 1.7227-0.025391 0.023437 0.001953 0.007813c-0.02888 0.0287-0.05889 0.057247-0.09375 0.085937-0.036849 0.03068-0.076357 0.061154-0.11719 0.089844-0.042823 0.02968-0.08605 0.058264-0.13086 0.083984-0.043813 0.02573-0.092788 0.050496-0.14258 0.072266a1.4171 1.4079 0 0 1-0.1543 0.05664 1.0755 1.0685 0 0 1-0.1582 0.039063 1.0875 1.0804 0 0 1-0.16406 0.013672 1.1144 1.1071 0 0 1-0.23047-0.025391 0.90921 0.90331 0 0 1-0.21094-0.072265 1.1861 1.1784 0 0 1-0.18945-0.11328 1.0735 1.0666 0 0 1-0.1582-0.14453 1.2807 1.2724 0 0 1-0.13281-0.17578 1.2438 1.2357 0 0 1-0.09961-0.19727 1.1552 1.1477 0 0 1-0.060547-0.20508 1.1532 1.1457 0 0 1-0.021484-0.21094 1.7537 1.7423 0 0 1 0.021484-0.25977 1.2866 1.2783 0 0 1 0.054688-0.22461 1.2438 1.2357 0 0 1 0.082031-0.19922 1.0954 1.0883 0 0 1 0.10547-0.16211 1.3434 1.3347 0 0 1 0.12695-0.13672c0.02589-0.02375 0.053151-0.04659 0.082031-0.06836z" stroke-width="1"/>
    </g>
    <g id="logo-secondary" class="hidden secondary-fill">
        <path d="m112.78 0.22656v20.818l-12.5-20.811h-0.31445v-0.0058594h-5.2012l-0.29883 1.1953h2.7188l0.001953 0.0019531v26.871h2.082v-21.424l13.025 21.42h2.5664v-28.066h-2.0801zm-91.701 0.0019531-0.29883 1.1953h2.6562l-5.3164 19.391-0.023438-0.86914-5.5156-19.715h-7.293l-0.29883 1.1953h2.6582l-7.3496 26.869h2.1523l6.5938-24.537 6.9141 24.537h2.3086l6.582-24.496 6.9004 24.496h3.0488v-0.007813h1.5391l-7.8398-28.059h-7.418zm-20.781 28.066h-0.0039063l0.0039063 0.001953v-0.001953zm38.871-28.066-0.29883 1.1953h2.6562l-0.00586 0.0019531v26.861h4.4883v-28.059h-6.8398zm13.357 0-0.29883 1.1953h2.6562l-0.001953 0.0019531v26.865h13.623l0.48828-1.7852h-9.627v-26.277h-6.8398zm23.941 0.0019531-0.29883 1.1953h2.7773l-0.33398 1.2188-7.0156 25.652h2.1484l2.1406-7.9648h9.125l2.2441 7.9648h3.0527v-0.007813h1.541c-2.6181-9.3715-5.2187-18.672-7.8418-28.059h-7.5391zm48.445 0-0.29883 1.1953h2.7773l-0.33398 1.2188-7.0156 25.652h2.1562l2.1387-7.9648h9.125l2.2441 7.9648h3.0488v-0.007813h1.5391l-2.4766-8.8633v-0.12305h-0.03515l-5.3301-19.072h-7.5391zm-44.566 3.5273 4.2207 14.98h-8.2461l4.0254-14.98zm48.445 0 4.2207 14.98h-8.2461l4.0254-14.98zm-65.539 35.025-0.076172 0.16211-2.3594 5.0469-0.054687 0.11719h0.61133l0.021484-0.048828 0.74805-1.6816h2.0059l0.77344 1.6816 0.023437 0.048828h0.79688l-0.054687-0.11719-2.3594-5.0469h0.001953l-0.078125-0.16211zm-40.613 0.14844a2.2128 2.1984 0 0 0-0.375 0.03125 1.3942 1.3851 0 0 0-0.51367 2.6523 14.871 14.775 0 0 0 1.4863 0.47656c0.8405 0.26417 0.68333 1.4484-0.41211 1.5137a1.8583 1.8462 0 0 1-1.5234-0.63281l-0.39062 0.31836a2.2476 2.233 0 0 0 2.1797 0.86914 1.436 1.4267 0 0 0 0.52539-2.7266 14.209 14.117 0 0 0-1.4941-0.45703h0.007812c-0.82955-0.25823-0.67406-1.4113 0.39648-1.4746a1.8364 1.8244 0 0 1 1.4941 0.61524l0.38477-0.30664a2.2128 2.1984 0 0 0-1.7656-0.87891zm23.602 0a2.2128 2.1984 0 0 0-0.37305 0.03125 1.3942 1.3851 0 0 0-0.51562 2.6523 14.938 14.841 0 0 0 1.4863 0.47656c0.8405 0.26417 0.68528 1.4484-0.41016 1.5137a1.8583 1.8462 0 0 1-1.5254-0.63281l-0.38867 0.31836a2.2476 2.233 0 0 0 2.1777 0.86914 1.436 1.4267 0 0 0 0.52539-2.7266 14.269 14.176 0 0 0-1.4941-0.45703h0.007813c-0.82954-0.25823-0.67111-1.4113 0.39844-1.4746a1.8373 1.8254 0 0 1 1.4941 0.61524l0.38281-0.30664a2.2128 2.1984 0 0 0-1.7656-0.87891zm39.791 0a2.2108 2.1964 0 0 0-0.375 0.03125 1.3942 1.3851 0 0 0-0.51562 2.6523 14.951 14.854 0 0 0 1.4863 0.47656c0.8415 0.26417 0.68528 1.4484-0.41016 1.5137a1.8583 1.8462 0 0 1-1.5234-0.63281l-0.39062 0.31836a2.2476 2.233 0 0 0 2.1777 0.86914 1.436 1.4267 0 0 0 0.52539-2.7266 14.281 14.188 0 0 0-1.4941-0.45703h0.007812c-0.82955-0.25823-0.67111-1.4113 0.39844-1.4746a1.8373 1.8254 0 0 1 1.4941 0.61524l0.38281-0.30664a2.2108 2.1964 0 0 0-1.7637-0.87891zm5.5586 0a2.2118 2.1974 0 0 0-0.37305 0.03125 1.3942 1.3851 0 0 0-0.51562 2.6523 14.901 14.804 0 0 0 1.4863 0.47656c0.8405 0.26417 0.6803 1.4484-0.41016 1.5137a1.8593 1.8472 0 0 1-1.5254-0.63281l-0.39062 0.31836a2.2476 2.233 0 0 0 2.1777 0.86914 1.436 1.4267 0 0 0 0.52539-2.7266 14.229 14.136 0 0 0-1.4941-0.45703h0.007813c-0.82955-0.25823-0.6721-1.4113 0.39844-1.4746a1.8364 1.8244 0 0 1 1.4941 0.61524l0.38281-0.30664a2.2118 2.1974 0 0 0-1.7637-0.87891zm26.266 0a2.2118 2.1974 0 0 0-0.375 0.03125 1.3942 1.3851 0 0 0-0.51563 2.6523 14.893 14.796 0 0 0 1.4863 0.47656c0.8405 0.26417 0.6803 1.4484-0.41016 1.5137a1.8563 1.8442 0 0 1-1.5234-0.63281l-0.39062 0.31836a2.2476 2.233 0 0 0 2.1777 0.86914 1.436 1.4267 0 0 0 0.52539-2.7266 14.232 14.139 0 0 0-1.4941-0.45703h0.00782c-0.82955-0.25823-0.67211-1.4113 0.39843-1.4746a1.8354 1.8234 0 0 1 1.4942 0.61524l0.38281-0.30664a2.2118 2.1974 0 0 0-1.7637-0.87891zm-63.811 0.021484a1.6521 1.6414 0 0 0-0.27539 0.025391 1.3464 1.3377 0 0 0-0.25391 0.070312 1.3703 1.3614 0 0 0-0.2207 0.10938 1.195 1.1873 0 0 0-0.19336 0.14648 1.1353 1.1279 0 0 0-0.15625 0.17383 1.0954 1.0883 0 0 0-0.11719 0.19922 1.0875 1.0804 0 0 0-0.070313 0.2168 1.1243 1.117 0 0 0-0.02539 0.23047 1.2837 1.2753 0 0 0 0.013672 0.19141 1.1871 1.1793 0 0 0 0.042968 0.18164 1.5934 1.583 0 0 0 0.0625 0.16406 1.448 1.4386 0 0 0 0.080079 0.14844c0.02788 0.044519 0.05702 0.088319 0.08789 0.13086 0.03187 0.041554 0.06575 0.083467 0.09961 0.12305 0.03684 0.037593 0.068739 0.073782 0.099609 0.10742l0.015625 0.015625c-0.0249 0.01484-0.050319 0.029092-0.074219 0.044922a1.7816 1.77 0 0 0-0.17188 0.13281 1.9688 1.956 0 0 0-0.16602 0.16016 2.1042 2.0906 0 0 0-0.14844 0.18164 1.8035 1.7918 0 0 0-0.12891 0.20508 1.7656 1.7542 0 0 0-0.09961 0.22656 1.4788 1.4692 0 0 0-0.066406 0.24219 1.5057 1.496 0 0 0-0.023437 0.25586 1.2438 1.2357 0 0 0 0.015625 0.19726 1.5017 1.492 0 0 0 0.12695 0.41211 1.7039 1.6928 0 0 0 0.11719 0.20312 1.443 1.4336 0 0 0 0.1543 0.19726 1.6402 1.6295 0 0 0 0.19141 0.17578 1.5705 1.5603 0 0 0 0.23633 0.14844 1.8423 1.8304 0 0 0 0.27344 0.11524 1.8164 1.8046 0 0 0 0.32227 0.074218 2.6032 2.5863 0 0 0 0.36328 0.025391 2.0564 2.0431 0 0 0 0.30469-0.023438 1.8204 1.8086 0 0 0 0.2832-0.064453 2.4378 2.422 0 0 0 0.26367-0.099609 1.7557 1.7443 0 0 0 0.22852-0.12305 2.159 2.145 0 0 0 0.19922-0.14258c0.03187-0.02968 0.066749-0.059174 0.099609-0.089844l0.52539 0.58398h0.98438l-1.0566-1.1641c0.03385-0.067278 0.063917-0.13197 0.091797-0.19727a1.9917 1.9788 0 0 0 0.087891-0.26172 2.399 2.3834 0 0 0 0.054687-0.25977 2.1212 2.1074 0 0 0 0.023438-0.25781 2.2427 2.2281 0 0 0 0-0.25 2.2476 2.233 0 0 0-0.03125-0.23828c-0.01394-0.078162-0.032815-0.1534-0.052735-0.22266l-0.011718-0.039062h0.95508v-0.65039h-1.9629v0.65039h0.28125a1.2588 1.2506 0 0 1 0.0625 0.12305 1.7288 1.7176 0 0 1 0.080078 0.22656 1.673 1.6622 0 0 1 0.046875 0.24414 2.0574 2.0441 0 0 1 0.009766 0.25781 1.683 1.6721 0 0 1-0.033203 0.26367c-0.00996 0.044527-0.020254 0.090246-0.033203 0.13477l-1.4941-1.5918c-0.058755-0.062331-0.11802-0.12421-0.17578-0.18555-0.051789-0.057384-0.10554-0.11358-0.15234-0.16602a1.5645 1.5543 0 0 1-0.11719-0.14648 1.1034 1.0962 0 0 1-0.08789-0.14062 0.61245 0.60847 0 0 1-0.052735-0.14062 0.70208 0.69752 0 0 1-0.017578-0.15625 0.78473 0.77964 0 0 1 0.019531-0.17578 0.6971 0.69257 0 0 1 0.054688-0.1543 0.56166 0.55801 0 0 1 0.085938-0.12695 0.59751 0.59363 0 0 1 0.11914-0.099609 0.48797 0.4848 0 0 1 0.14453-0.0625 0.74191 0.73709 0 0 1 0.18164-0.021484 0.86042 0.85483 0 0 1 0.15234 0.015625 0.71502 0.71038 0 0 1 0.13867 0.042968 0.92017 0.91419 0 0 1 0.12891 0.066407 0.89627 0.89045 0 0 1 0.11328 0.082031 1.2139 1.2061 0 0 1 0.099609 0.099609 1.1134 1.1061 0 0 1 0.080079 0.097657l0.068359 0.09375 0.066406-0.09375 0.24609-0.33984 0.042969-0.060547-0.052735-0.052734a1.2946 1.2862 0 0 0-0.2168-0.17774 1.3454 1.3367 0 0 0-0.25195-0.13086 1.4709 1.4613 0 0 0-0.29883-0.080078 2.0315 2.0183 0 0 0-0.33594-0.027344zm-18.838 0.048828a2.7476 2.7297 0 0 0-0.41602 0.033203 2.5255 2.5091 0 0 0-0.39844 0.097656 2.6888 2.6713 0 0 0-0.375 0.15625 2.5683 2.5516 0 0 0-0.33984 0.20898 2.6211 2.6041 0 0 0-0.29883 0.25781 2.7575 2.7396 0 0 0-0.25976 0.29688 2.6131 2.5962 0 0 0-0.21094 0.33789 2.7157 2.6981 0 0 0-0.15625 0.37305 2.4717 2.4557 0 0 0-0.099609 0.39453 2.7595 2.7416 0 0 0-0.033203 0.41992 2.7396 2.7218 0 0 0 0.033203 0.41797 2.5424 2.5259 0 0 0 0.099609 0.39648 2.5763 2.5595 0 0 0 0.36719 0.70703 2.6888 2.6713 0 0 0 0.26172 0.30274 2.635 2.6179 0 0 0 0.29883 0.25391 2.6998 2.6822 0 0 0 0.33984 0.21094 2.7675 2.7495 0 0 0 0.375 0.1543 2.5135 2.4972 0 0 0 0.39844 0.09961 2.7247 2.707 0 0 0 0.42188 0.033203 2.7227 2.705 0 0 0 0.42188-0.033203 2.5444 2.5279 0 0 0 0.39844-0.09961 2.6709 2.6535 0 0 0 0.375-0.15625 2.5026 2.4863 0 0 0 0.33984-0.20703 2.6181 2.6011 0 0 0 0.29883-0.25586 2.6171 2.6001 0 0 0 0.47266-0.63867 2.5155 2.4992 0 0 0 0.15625-0.37109 2.5364 2.52 0 0 0 0.09961-0.39648 2.7486 2.7307 0 0 0 0.035156-0.41602 2.7794 2.7614 0 0 0-0.035156-0.42188h-0.003907a2.5633 2.5467 0 0 0-0.099609-0.39453 2.5892 2.5724 0 0 0-0.15625-0.37305 2.6261 2.609 0 0 0-0.21094-0.33594 2.6998 2.6822 0 0 0-0.25977-0.29688 2.5603 2.5437 0 0 0-0.29883-0.25781 2.6042 2.5872 0 0 0-0.33984-0.21094 2.7087 2.6911 0 0 0-0.37305-0.1543 2.4528 2.4369 0 0 0-0.39844-0.09961 2.7515 2.7337 0 0 0-0.42383-0.033203 2.7476 2.7297 0 0 0-0.00586 0zm34.35 0.003906a2.4189 2.4032 0 0 0-0.77148 0.12891 2.5016 2.4853 0 0 0-0.6875 0.36328 2.5325 2.516 0 0 0-0.29883 0.25586 2.6261 2.609 0 0 0-0.25391 0.29492 2.7705 2.7525 0 0 0-0.20703 0.33984 2.8043 2.7861 0 0 0-0.1543 0.37305 2.5255 2.5091 0 0 0-0.09961 0.40039 2.8262 2.8079 0 0 0-0.033203 0.42578 2.9876 2.9682 0 0 0 0.03125 0.43164l-0.003906 0.003907a2.6171 2.6001 0 0 0 0.099609 0.40625 2.8501 2.8316 0 0 0 0.15039 0.37305 2.4896 2.4735 0 0 0 0.20508 0.33789 2.4289 2.4131 0 0 0 0.25 0.29688 2.4777 2.4616 0 0 0 0.29102 0.25195 2.5673 2.5506 0 0 0 0.32617 0.20312 2.4418 2.426 0 0 0 0.35547 0.15039 2.398 2.3824 0 0 0 0.38086 0.091797 2.6251 2.608 0 0 0 0.39844 0.03125 2.396 2.3805 0 0 0 0.29297-0.017578 2.1909 2.1767 0 0 0 0.27734-0.056641 2.7326 2.7149 0 0 0 0.26172-0.085938 2.5653 2.5487 0 0 0 0.24414-0.10742c0.078673-0.039576 0.15199-0.076574 0.2207-0.12109 0.068714-0.044524 0.13549-0.095142 0.19922-0.13867 0.063735-0.043531 0.122-0.096078 0.17578-0.14258 0.054442-0.047489 0.10396-0.094452 0.14844-0.14062l0.054687-0.056641-0.052734-0.058594-0.1875-0.19726-0.056641-0.060547-0.0625 0.054687c-0.034853 0.03166-0.072451 0.06498-0.11328 0.09961l-0.13477 0.10547c-0.048797 0.037591-0.09949 0.074745-0.15625 0.10937-0.056763 0.034626-0.1179 0.070839-0.18164 0.10547a1.8672 1.8551 0 0 1-0.19922 0.097657c-0.068713 0.02671-0.14203 0.053411-0.2207 0.076171a1.8005 1.7888 0 0 1-0.24414 0.050782 2.2008 2.1865 0 0 1-0.26367 0.017578 1.5256 1.5157 0 0 1-0.33984-0.041016 1.4539 1.4445 0 0 1-0.31836-0.11523 1.682 1.6711 0 0 1-0.29297-0.1875 1.7766 1.7651 0 0 1-0.25391-0.25 2.0027 1.9897 0 0 1-0.21289-0.30664 2.3632 2.3478 0 0 1-0.16211-0.35938 2.2905 2.2756 0 0 1-0.099609-0.40234 2.8173 2.799 0 0 1-0.035157-0.44141 2.7356 2.7178 0 0 1 0.019532-0.3418 2.5275 2.5111 0 0 1 0.064453-0.32617 2.3801 2.3646 0 0 1 0.099609-0.30469 2.2068 2.1925 0 0 1 0.13867-0.2793 1.9519 1.9392 0 0 1 0.16992-0.24609 1.7696 1.7581 0 0 1 0.19922-0.21094 1.674 1.6632 0 0 1 0.22461-0.17188 1.6203 1.6097 0 0 1 0.25391-0.12891 1.4679 1.4584 0 0 1 0.27344-0.080079 1.6681 1.6572 0 0 1 0.29883-0.027343 1.5256 1.5157 0 0 1 0.23242 0.017578 1.6641 1.6533 0 0 1 0.22852 0.054687 1.8214 1.8096 0 0 1 0.22656 0.091797 1.923 1.9105 0 0 1 0.21484 0.12109 1.9569 1.9441 0 0 1 0.19922 0.1543 2.0584 2.0451 0 0 1 0.18945 0.18164l0.066406 0.072266 0.0625-0.074219 0.32227-0.39648 0.054687-0.06836-0.070313-0.050781c-0.066722-0.0465-0.13916-0.099984-0.21484-0.14648-0.075685-0.046496-0.15463-0.089283-0.23828-0.13281a2.4787 2.4626 0 0 0-0.27344-0.11914 2.9876 2.9682 0 0 0-0.29883-0.09375 2.5334 2.517 0 0 0-0.33594-0.0625 3.1867 3.166 0 0 0-0.36719-0.021485 2.4189 2.4032 0 0 0-0.005859 0zm5.7324 0a2.4229 2.4072 0 0 0-0.77148 0.12891 2.4697 2.4537 0 0 0-0.35938 0.1543 2.5056 2.4893 0 0 0-0.32812 0.20898 2.5334 2.517 0 0 0-0.29883 0.25586 2.6261 2.609 0 0 0-0.25391 0.29492 2.5892 2.5724 0 0 0-0.20703 0.33984 2.7117 2.6941 0 0 0-0.1543 0.37305 2.5384 2.5219 0 0 0-0.099609 0.40039 2.7496 2.7317 0 0 0-0.033203 0.42578 2.888 2.8692 0 0 0 0.033203 0.43164l-0.005859 0.003907a2.6171 2.6001 0 0 0 0.099609 0.40625 2.6649 2.6476 0 0 0 0.15234 0.37305 2.399 2.3834 0 0 0 0.19922 0.33789 2.4647 2.4487 0 0 0 0.86719 0.75195 2.4418 2.426 0 0 0 0.35547 0.15039 2.4279 2.4121 0 0 0 0.38086 0.091797 2.6221 2.6051 0 0 0 0.39844 0.03125 2.405 2.3894 0 0 0 0.29297-0.017578 2.2217 2.2073 0 0 0 0.27734-0.056641 2.6818 2.6644 0 0 0 0.26172-0.085938 2.5364 2.52 0 0 0 0.24219-0.10742c0.078671-0.039576 0.15199-0.076574 0.2207-0.12109 0.068714-0.044524 0.13648-0.095142 0.19922-0.13867 0.062739-0.043531 0.12396-0.096078 0.17774-0.14258 0.054441-0.047489 0.10396-0.094452 0.14844-0.14062l0.052735-0.056641-0.052735-0.058594-0.1875-0.19726-0.05664-0.060547-0.060547 0.054687c-0.035853 0.03166-0.074405 0.06498-0.11524 0.09961l-0.13281 0.10547c-0.048797 0.037591-0.10144 0.074745-0.1582 0.10937-0.056764 0.034626-0.11791 0.070839-0.18164 0.10547a1.923 1.9105 0 0 1-0.19922 0.097657c-0.06971 0.026709-0.14203 0.053411-0.2207 0.076171a1.8174 1.8056 0 0 1-0.24219 0.050782 2.1839 2.1697 0 0 1-0.26367 0.017578 1.5266 1.5167 0 0 1-0.3418-0.041016 1.4609 1.4514 0 0 1-0.31836-0.11523 1.6641 1.6533 0 0 1-0.29102-0.1875 1.8134 1.8017 0 0 1-0.25586-0.25 1.9847 1.9718 0 0 1-0.21289-0.30664 2.3512 2.3359 0 0 1-0.16211-0.35938 2.2905 2.2756 0 0 1-0.09961-0.40234 2.7336 2.7159 0 0 1-0.035156-0.44141 2.7107 2.6931 0 0 1 0.021484-0.3418 2.5275 2.5111 0 0 1 0.0625-0.32617 2.3432 2.328 0 0 1 0.09961-0.30469 2.2686 2.2538 0 0 1 0.13867-0.2793 2.0256 2.0124 0 0 1 0.16992-0.24609 1.8802 1.868 0 0 1 0.19922-0.21094 1.6282 1.6176 0 0 1 0.22461-0.17188 1.6511 1.6404 0 0 1 0.25391-0.12891 1.4938 1.4841 0 0 1 0.27344-0.080079 1.6671 1.6562 0 0 1 0.29883-0.027343 1.5117 1.5019 0 0 1 0.23047 0.017578 1.6432 1.6325 0 0 1 0.22852 0.054687 1.7836 1.772 0 0 1 0.22852 0.091797 1.9399 1.9273 0 0 1 0.21484 0.12109 2.0315 2.0183 0 0 1 0.20508 0.1543 2.2546 2.24 0 0 1 0.18945 0.18164l0.066406 0.072266 0.0625-0.074219 0.32226-0.39648 0.056641-0.06836-0.072266-0.050781c-0.066722-0.0465-0.1382-0.099984-0.21289-0.14648-0.074689-0.046496-0.15658-0.089283-0.24024-0.13281a2.4428 2.427 0 0 0-0.27344-0.11914 3.0214 3.0018 0 0 0-0.29883-0.09375 2.5354 2.519 0 0 0-0.33594-0.0625 3.1977 3.1769 0 0 0-0.36719-0.021485 2.4229 2.4072 0 0 0-0.00586 0zm22.35 0.00586a2.7635 2.7455 0 0 0-0.41797 0.03125 2.5404 2.5239 0 0 0-0.39844 0.099609 2.7037 2.6862 0 0 0-0.37305 0.15625 2.5892 2.5724 0 0 0-0.3418 0.20898 2.5564 2.5398 0 0 0-0.29883 0.25781 2.6729 2.6555 0 0 0-0.25977 0.29688 2.6002 2.5833 0 0 0-0.21094 0.33594 2.6579 2.6407 0 0 0-0.15625 0.37305 2.5036 2.4873 0 0 0-0.09961 0.39648 2.7366 2.7188 0 0 0-0.035156 0.41992 2.7177 2.7 0 0 0 0.035156 0.41602 2.5693 2.5526 0 0 0 0.09961 0.39648 2.6061 2.5892 0 0 0 0.15625 0.37109 2.5703 2.5536 0 0 0 0.21094 0.33594 2.6111 2.5942 0 0 0 0.26172 0.30273 2.6749 2.6575 0 0 0 0.29883 0.25586 2.7217 2.704 0 0 0 0.3418 0.20898 2.8123 2.794 0 0 0 0.37305 0.15625 2.5593 2.5427 0 0 0 0.39844 0.099609 2.7326 2.7149 0 0 0 0.42188 0.033203 2.7316 2.7139 0 0 0 0.42383-0.033203 2.5673 2.5506 0 0 0 0.39844-0.099609 2.7595 2.7416 0 0 0 0.37305-0.15625 2.5086 2.4923 0 0 0 0.33984-0.20703 2.6629 2.6456 0 0 0 0.29883-0.25586 2.6131 2.5962 0 0 0 0.47266-0.64062 2.6679 2.6506 0 0 0 0.15625-0.36914 2.4608 2.4448 0 0 0 0.09961-0.39648 2.7416 2.7238 0 0 0 0.03515-0.41797 2.7715 2.7535 0 0 0-0.03515-0.41992 2.4896 2.4735 0 0 0-0.09961-0.39648 2.7496 2.7317 0 0 0-0.1582-0.37109 2.5484 2.5318 0 0 0-0.21094-0.33789 2.6888 2.6713 0 0 0-0.25781-0.29688 2.5663 2.5496 0 0 0-0.29883-0.25781 2.6022 2.5853 0 0 0-0.33984-0.20898 2.6948 2.6773 0 0 0-0.375-0.15625 2.4468 2.4309 0 0 0-0.39844-0.097656 2.7555 2.7376 0 0 0-0.42578-0.033203 2.7635 2.7455 0 0 0-0.003906 0zm-70.836 0.041015v5.0449h0.72461v-2.3555h2.4043v2.3555h0.72461v-4.9609h-0.001953v-0.083985h-0.72266v2.2148h-2.4043v-2.2148h-0.72461zm12.875 0v5.0469h3.0586v-0.42969-0.087891h-0.083984l-2.252 0.042969v-1.8379l2.1582 0.013672h0.083984v-0.50391h-0.083984l-2.1582 0.013672v-1.7793l2.252 0.041016h0.083984v-0.51953h-3.0586zm68.211 0v5.0469h0.72851v-4.9629-0.083985h-0.72851zm3.291 0v5.0469h3.0606v-0.42969-0.087891h-0.08594l-2.252 0.042969v-1.8379l2.1602 0.013672h0.08398v-0.50391h-0.08398l-2.1602 0.013672v-1.7793l2.252 0.041016h0.08594v-0.51953h-3.0606zm-32.096 0.007813v5.0469h3.0605v-0.42969-0.085937h-0.085937l-2.25 0.041015v-1.8379l2.1582 0.013672h0.083984v-0.50391h-0.083984l-2.1582 0.013671v-1.7793l2.25 0.041016h0.085937v-0.51953h-3.0605zm22.988 0.001953v5.0449h0.72461v-2.4551l0.09961 0.11523 2.1289 2.3145 0.02344 0.025391h0.9707l-0.13086-0.13867-1.8203-1.957c0.05173-0.00518 0.10243-0.011907 0.15234-0.019531a1.8642 1.8521 0 0 0 0.31836-0.082032 1.8055 1.7938 0 0 0 0.28516-0.13086 1.5436 1.5335 0 0 0 0.25-0.17188 1.4221 1.4128 0 0 0 0.20507-0.21289 1.4101 1.401 0 0 0 0.1543-0.24414 1.2438 1.2357 0 0 0 0.09961-0.27344 1.3603 1.3515 0 0 0 0.03516-0.29492 1.4778 1.4682 0 0 0-0.03711-0.3125 1.3643 1.3555 0 0 0-0.09961-0.28906 1.4032 1.394 0 0 0-0.16211-0.25977 1.449 1.4396 0 0 0-0.2168-0.22266 1.6113 1.6008 0 0 0-0.26758-0.18359 1.9578 1.9451 0 0 0-0.30859-0.13672 2.1281 2.1143 0 0 0-0.3457-0.085937 2.39 2.3745 0 0 0-0.37696-0.029297h-1.6816zm-66.861 0.40234a1.7139 1.7027 0 0 1 0.37109 0.041015 1.5934 1.583 0 0 1 0.34375 0.12109 1.8085 1.7967 0 0 1 0.3125 0.19727 1.8832 1.8709 0 0 1 0.26953 0.25391 2.0086 1.9956 0 0 1 0.22461 0.3125 2.3363 2.3211 0 0 1 0.16992 0.36133 2.3273 2.3122 0 0 1 0.10742 0.39453 2.6759 2.6585 0 0 1 0.03711 0.43359 2.644 2.6268 0 0 1-0.03711 0.43164l-0.001953-0.003907a2.2825 2.2677 0 0 1-0.10742 0.39648 2.39 2.3745 0 0 1-0.16992 0.35938 1.9817 1.9689 0 0 1-0.22266 0.31055 1.8603 1.8482 0 0 1-0.27148 0.25391 1.7806 1.769 0 0 1-0.31055 0.19141 1.5535 1.5434 0 0 1-0.3457 0.12109 1.7069 1.6958 0 0 1-0.37109 0.041016 1.6999 1.6889 0 0 1-0.36914-0.041016 1.5366 1.5266 0 0 1-0.34375-0.12109 1.7119 1.7008 0 0 1-0.3125-0.19141 1.8921 1.8798 0 0 1-0.27148-0.25391 2.0375 2.0243 0 0 1-0.22266-0.31055 2.2367 2.2222 0 0 1-0.16992-0.35938 2.2984 2.2835 0 0 1-0.10742-0.39648 2.5822 2.5655 0 0 1 0-0.86523 2.3104 2.2954 0 0 1 0.10742-0.39453 2.3532 2.3379 0 0 1 0.16992-0.36133 2.0913 2.0777 0 0 1 0.22266-0.3125 1.8184 1.8066 0 0 1 0.58398-0.44727 1.5934 1.583 0 0 1 0.34375-0.12109 1.7079 1.6968 0 0 1 0.37109-0.041015zm62.43 0.007812a1.7159 1.7047 0 0 1 0.37305 0.041016 1.6053 1.5949 0 0 1 0.34375 0.12109 1.8045 1.7928 0 0 1 0.3125 0.19726 1.8832 1.8709 0 0 1 0.26953 0.25391 2.0614 2.048 0 0 1 0.22461 0.3125 2.3313 2.3162 0 0 1 0.16992 0.36133 2.3263 2.3112 0 0 1 0.10547 0.39453 2.6042 2.5872 0 0 1 0.037109 0.43359 2.5753 2.5586 0 0 1-0.037109 0.43164l-0.001953-0.003906a2.3472 2.332 0 0 1-0.10547 0.39648 2.3094 2.2944 0 0 1-0.16992 0.35938 2.0764 2.0629 0 0 1-0.22461 0.31055 1.8603 1.8482 0 0 1-0.26953 0.25391 1.7786 1.767 0 0 1-0.31055 0.19141 1.5515 1.5415 0 0 1-0.3457 0.12109 1.7089 1.6978 0 0 1-0.37109 0.041015 1.693 1.682 0 0 1-0.37109-0.041015 1.5535 1.5434 0 0 1-0.34375-0.12109 1.7129 1.7017 0 0 1-0.3125-0.19141 1.8921 1.8798 0 0 1-0.26953-0.25391 1.9917 1.9788 0 0 1-0.22461-0.31055 2.172 2.1579 0 0 1-0.16797-0.35938 2.2905 2.2756 0 0 1-0.10742-0.39453 2.5783 2.5615 0 0 1 0-0.86719 2.3711 2.3557 0 0 1 0.10742-0.39453 2.2237 2.2093 0 0 1 0.16797-0.36133 2.0783 2.0648 0 0 1 0.22461-0.3125 1.8164 1.8046 0 0 1 0.58203-0.44726 1.6123 1.6018 0 0 1 0.3457-0.12109 1.7039 1.6928 0 0 1 0.36914-0.041016zm5.1523 0.060547 0.9082 0.001953a1.3942 1.3851 0 0 1 0.41992 0.0625 1.1183 1.1111 0 0 1 0.1875 0.080078 1.0446 1.0379 0 0 1 0.16602 0.11133 0.86938 0.86373 0 0 1 0.13867 0.14453 0.94108 0.93497 0 0 1 0.10351 0.17773 1.0108 1.0042 0 0 1 0.06836 0.21289 1.432 1.4227 0 0 1 0.02344 0.25586 1.4251 1.4158 0 0 1-0.02344 0.25195 1.0098 1.0032 0 0 1-0.06836 0.21289 0.90623 0.90034 0 0 1-0.10546 0.17773 0.85245 0.84691 0 0 1-0.13672 0.14453 0.97494 0.96861 0 0 1-0.16602 0.11133 1.0954 1.0883 0 0 1-0.1875 0.080078 1.3842 1.3752 0 0 1-0.41992 0.0625h-0.9082v-2.0879zm-39.662 0.62891 0.80274 1.7422h-1.582l0.7793-1.7422zm-9.5781 1.3594 1.6152 1.7227-0.025391 0.023437 0.001953 0.007813c-0.02888 0.0287-0.05889 0.057247-0.09375 0.085937-0.036849 0.03068-0.076357 0.061154-0.11719 0.089844-0.042823 0.02968-0.08605 0.058264-0.13086 0.083984-0.043813 0.02573-0.092788 0.050496-0.14258 0.072266a1.4171 1.4079 0 0 1-0.1543 0.05664 1.0755 1.0685 0 0 1-0.1582 0.039063 1.0875 1.0804 0 0 1-0.16406 0.013672 1.1144 1.1071 0 0 1-0.23047-0.025391 0.90921 0.90331 0 0 1-0.21094-0.072265 1.1861 1.1784 0 0 1-0.18945-0.11328 1.0735 1.0666 0 0 1-0.1582-0.14453 1.2807 1.2724 0 0 1-0.13281-0.17578 1.2438 1.2357 0 0 1-0.09961-0.19727 1.1552 1.1477 0 0 1-0.060547-0.20508 1.1532 1.1457 0 0 1-0.021484-0.21094 1.7537 1.7423 0 0 1 0.021484-0.25977 1.2866 1.2783 0 0 1 0.054688-0.22461 1.2438 1.2357 0 0 1 0.082031-0.19922 1.0954 1.0883 0 0 1 0.10547-0.16211 1.3434 1.3347 0 0 1 0.12695-0.13672c0.02589-0.02375 0.053151-0.04659 0.082031-0.06836z" stroke-width="1"/>
    </g>
    <g id="logo-primary" class="hidden primary-fill">
        <path d="m112.78 0.22656v20.818l-12.5-20.811h-0.31445v-0.0058594h-5.2012l-0.29883 1.1953h2.7188l0.001953 0.0019531v26.871h2.082v-21.424l13.025 21.42h2.5664v-28.066h-2.0801zm-91.701 0.0019531-0.29883 1.1953h2.6562l-5.3164 19.391-0.023438-0.86914-5.5156-19.715h-7.293l-0.29883 1.1953h2.6582l-7.3496 26.869h2.1523l6.5938-24.537 6.9141 24.537h2.3086l6.582-24.496 6.9004 24.496h3.0488v-0.007813h1.5391l-7.8398-28.059h-7.418zm-20.781 28.066h-0.0039063l0.0039063 0.001953v-0.001953zm38.871-28.066-0.29883 1.1953h2.6562l-0.00586 0.0019531v26.861h4.4883v-28.059h-6.8398zm13.357 0-0.29883 1.1953h2.6562l-0.001953 0.0019531v26.865h13.623l0.48828-1.7852h-9.627v-26.277h-6.8398zm23.941 0.0019531-0.29883 1.1953h2.7773l-0.33398 1.2188-7.0156 25.652h2.1484l2.1406-7.9648h9.125l2.2441 7.9648h3.0527v-0.007813h1.541c-2.6181-9.3715-5.2187-18.672-7.8418-28.059h-7.5391zm48.445 0-0.29883 1.1953h2.7773l-0.33398 1.2188-7.0156 25.652h2.1562l2.1387-7.9648h9.125l2.2441 7.9648h3.0488v-0.007813h1.5391l-2.4766-8.8633v-0.12305h-0.03515l-5.3301-19.072h-7.5391zm-44.566 3.5273 4.2207 14.98h-8.2461l4.0254-14.98zm48.445 0 4.2207 14.98h-8.2461l4.0254-14.98zm-65.539 35.025-0.076172 0.16211-2.3594 5.0469-0.054687 0.11719h0.61133l0.021484-0.048828 0.74805-1.6816h2.0059l0.77344 1.6816 0.023437 0.048828h0.79688l-0.054687-0.11719-2.3594-5.0469h0.001953l-0.078125-0.16211zm-40.613 0.14844a2.2128 2.1984 0 0 0-0.375 0.03125 1.3942 1.3851 0 0 0-0.51367 2.6523 14.871 14.775 0 0 0 1.4863 0.47656c0.8405 0.26417 0.68333 1.4484-0.41211 1.5137a1.8583 1.8462 0 0 1-1.5234-0.63281l-0.39062 0.31836a2.2476 2.233 0 0 0 2.1797 0.86914 1.436 1.4267 0 0 0 0.52539-2.7266 14.209 14.117 0 0 0-1.4941-0.45703h0.007812c-0.82955-0.25823-0.67406-1.4113 0.39648-1.4746a1.8364 1.8244 0 0 1 1.4941 0.61524l0.38477-0.30664a2.2128 2.1984 0 0 0-1.7656-0.87891zm23.602 0a2.2128 2.1984 0 0 0-0.37305 0.03125 1.3942 1.3851 0 0 0-0.51562 2.6523 14.938 14.841 0 0 0 1.4863 0.47656c0.8405 0.26417 0.68528 1.4484-0.41016 1.5137a1.8583 1.8462 0 0 1-1.5254-0.63281l-0.38867 0.31836a2.2476 2.233 0 0 0 2.1777 0.86914 1.436 1.4267 0 0 0 0.52539-2.7266 14.269 14.176 0 0 0-1.4941-0.45703h0.007813c-0.82954-0.25823-0.67111-1.4113 0.39844-1.4746a1.8373 1.8254 0 0 1 1.4941 0.61524l0.38281-0.30664a2.2128 2.1984 0 0 0-1.7656-0.87891zm39.791 0a2.2108 2.1964 0 0 0-0.375 0.03125 1.3942 1.3851 0 0 0-0.51562 2.6523 14.951 14.854 0 0 0 1.4863 0.47656c0.8415 0.26417 0.68528 1.4484-0.41016 1.5137a1.8583 1.8462 0 0 1-1.5234-0.63281l-0.39062 0.31836a2.2476 2.233 0 0 0 2.1777 0.86914 1.436 1.4267 0 0 0 0.52539-2.7266 14.281 14.188 0 0 0-1.4941-0.45703h0.007812c-0.82955-0.25823-0.67111-1.4113 0.39844-1.4746a1.8373 1.8254 0 0 1 1.4941 0.61524l0.38281-0.30664a2.2108 2.1964 0 0 0-1.7637-0.87891zm5.5586 0a2.2118 2.1974 0 0 0-0.37305 0.03125 1.3942 1.3851 0 0 0-0.51562 2.6523 14.901 14.804 0 0 0 1.4863 0.47656c0.8405 0.26417 0.6803 1.4484-0.41016 1.5137a1.8593 1.8472 0 0 1-1.5254-0.63281l-0.39062 0.31836a2.2476 2.233 0 0 0 2.1777 0.86914 1.436 1.4267 0 0 0 0.52539-2.7266 14.229 14.136 0 0 0-1.4941-0.45703h0.007813c-0.82955-0.25823-0.6721-1.4113 0.39844-1.4746a1.8364 1.8244 0 0 1 1.4941 0.61524l0.38281-0.30664a2.2118 2.1974 0 0 0-1.7637-0.87891zm26.266 0a2.2118 2.1974 0 0 0-0.375 0.03125 1.3942 1.3851 0 0 0-0.51563 2.6523 14.893 14.796 0 0 0 1.4863 0.47656c0.8405 0.26417 0.6803 1.4484-0.41016 1.5137a1.8563 1.8442 0 0 1-1.5234-0.63281l-0.39062 0.31836a2.2476 2.233 0 0 0 2.1777 0.86914 1.436 1.4267 0 0 0 0.52539-2.7266 14.232 14.139 0 0 0-1.4941-0.45703h0.00782c-0.82955-0.25823-0.67211-1.4113 0.39843-1.4746a1.8354 1.8234 0 0 1 1.4942 0.61524l0.38281-0.30664a2.2118 2.1974 0 0 0-1.7637-0.87891zm-63.811 0.021484a1.6521 1.6414 0 0 0-0.27539 0.025391 1.3464 1.3377 0 0 0-0.25391 0.070312 1.3703 1.3614 0 0 0-0.2207 0.10938 1.195 1.1873 0 0 0-0.19336 0.14648 1.1353 1.1279 0 0 0-0.15625 0.17383 1.0954 1.0883 0 0 0-0.11719 0.19922 1.0875 1.0804 0 0 0-0.070313 0.2168 1.1243 1.117 0 0 0-0.02539 0.23047 1.2837 1.2753 0 0 0 0.013672 0.19141 1.1871 1.1793 0 0 0 0.042968 0.18164 1.5934 1.583 0 0 0 0.0625 0.16406 1.448 1.4386 0 0 0 0.080079 0.14844c0.02788 0.044519 0.05702 0.088319 0.08789 0.13086 0.03187 0.041554 0.06575 0.083467 0.09961 0.12305 0.03684 0.037593 0.068739 0.073782 0.099609 0.10742l0.015625 0.015625c-0.0249 0.01484-0.050319 0.029092-0.074219 0.044922a1.7816 1.77 0 0 0-0.17188 0.13281 1.9688 1.956 0 0 0-0.16602 0.16016 2.1042 2.0906 0 0 0-0.14844 0.18164 1.8035 1.7918 0 0 0-0.12891 0.20508 1.7656 1.7542 0 0 0-0.09961 0.22656 1.4788 1.4692 0 0 0-0.066406 0.24219 1.5057 1.496 0 0 0-0.023437 0.25586 1.2438 1.2357 0 0 0 0.015625 0.19726 1.5017 1.492 0 0 0 0.12695 0.41211 1.7039 1.6928 0 0 0 0.11719 0.20312 1.443 1.4336 0 0 0 0.1543 0.19726 1.6402 1.6295 0 0 0 0.19141 0.17578 1.5705 1.5603 0 0 0 0.23633 0.14844 1.8423 1.8304 0 0 0 0.27344 0.11524 1.8164 1.8046 0 0 0 0.32227 0.074218 2.6032 2.5863 0 0 0 0.36328 0.025391 2.0564 2.0431 0 0 0 0.30469-0.023438 1.8204 1.8086 0 0 0 0.2832-0.064453 2.4378 2.422 0 0 0 0.26367-0.099609 1.7557 1.7443 0 0 0 0.22852-0.12305 2.159 2.145 0 0 0 0.19922-0.14258c0.03187-0.02968 0.066749-0.059174 0.099609-0.089844l0.52539 0.58398h0.98438l-1.0566-1.1641c0.03385-0.067278 0.063917-0.13197 0.091797-0.19727a1.9917 1.9788 0 0 0 0.087891-0.26172 2.399 2.3834 0 0 0 0.054687-0.25977 2.1212 2.1074 0 0 0 0.023438-0.25781 2.2427 2.2281 0 0 0 0-0.25 2.2476 2.233 0 0 0-0.03125-0.23828c-0.01394-0.078162-0.032815-0.1534-0.052735-0.22266l-0.011718-0.039062h0.95508v-0.65039h-1.9629v0.65039h0.28125a1.2588 1.2506 0 0 1 0.0625 0.12305 1.7288 1.7176 0 0 1 0.080078 0.22656 1.673 1.6622 0 0 1 0.046875 0.24414 2.0574 2.0441 0 0 1 0.009766 0.25781 1.683 1.6721 0 0 1-0.033203 0.26367c-0.00996 0.044527-0.020254 0.090246-0.033203 0.13477l-1.4941-1.5918c-0.058755-0.062331-0.11802-0.12421-0.17578-0.18555-0.051789-0.057384-0.10554-0.11358-0.15234-0.16602a1.5645 1.5543 0 0 1-0.11719-0.14648 1.1034 1.0962 0 0 1-0.08789-0.14062 0.61245 0.60847 0 0 1-0.052735-0.14062 0.70208 0.69752 0 0 1-0.017578-0.15625 0.78473 0.77964 0 0 1 0.019531-0.17578 0.6971 0.69257 0 0 1 0.054688-0.1543 0.56166 0.55801 0 0 1 0.085938-0.12695 0.59751 0.59363 0 0 1 0.11914-0.099609 0.48797 0.4848 0 0 1 0.14453-0.0625 0.74191 0.73709 0 0 1 0.18164-0.021484 0.86042 0.85483 0 0 1 0.15234 0.015625 0.71502 0.71038 0 0 1 0.13867 0.042968 0.92017 0.91419 0 0 1 0.12891 0.066407 0.89627 0.89045 0 0 1 0.11328 0.082031 1.2139 1.2061 0 0 1 0.099609 0.099609 1.1134 1.1061 0 0 1 0.080079 0.097657l0.068359 0.09375 0.066406-0.09375 0.24609-0.33984 0.042969-0.060547-0.052735-0.052734a1.2946 1.2862 0 0 0-0.2168-0.17774 1.3454 1.3367 0 0 0-0.25195-0.13086 1.4709 1.4613 0 0 0-0.29883-0.080078 2.0315 2.0183 0 0 0-0.33594-0.027344zm-18.838 0.048828a2.7476 2.7297 0 0 0-0.41602 0.033203 2.5255 2.5091 0 0 0-0.39844 0.097656 2.6888 2.6713 0 0 0-0.375 0.15625 2.5683 2.5516 0 0 0-0.33984 0.20898 2.6211 2.6041 0 0 0-0.29883 0.25781 2.7575 2.7396 0 0 0-0.25976 0.29688 2.6131 2.5962 0 0 0-0.21094 0.33789 2.7157 2.6981 0 0 0-0.15625 0.37305 2.4717 2.4557 0 0 0-0.099609 0.39453 2.7595 2.7416 0 0 0-0.033203 0.41992 2.7396 2.7218 0 0 0 0.033203 0.41797 2.5424 2.5259 0 0 0 0.099609 0.39648 2.5763 2.5595 0 0 0 0.36719 0.70703 2.6888 2.6713 0 0 0 0.26172 0.30274 2.635 2.6179 0 0 0 0.29883 0.25391 2.6998 2.6822 0 0 0 0.33984 0.21094 2.7675 2.7495 0 0 0 0.375 0.1543 2.5135 2.4972 0 0 0 0.39844 0.09961 2.7247 2.707 0 0 0 0.42188 0.033203 2.7227 2.705 0 0 0 0.42188-0.033203 2.5444 2.5279 0 0 0 0.39844-0.09961 2.6709 2.6535 0 0 0 0.375-0.15625 2.5026 2.4863 0 0 0 0.33984-0.20703 2.6181 2.6011 0 0 0 0.29883-0.25586 2.6171 2.6001 0 0 0 0.47266-0.63867 2.5155 2.4992 0 0 0 0.15625-0.37109 2.5364 2.52 0 0 0 0.09961-0.39648 2.7486 2.7307 0 0 0 0.035156-0.41602 2.7794 2.7614 0 0 0-0.035156-0.42188h-0.003907a2.5633 2.5467 0 0 0-0.099609-0.39453 2.5892 2.5724 0 0 0-0.15625-0.37305 2.6261 2.609 0 0 0-0.21094-0.33594 2.6998 2.6822 0 0 0-0.25977-0.29688 2.5603 2.5437 0 0 0-0.29883-0.25781 2.6042 2.5872 0 0 0-0.33984-0.21094 2.7087 2.6911 0 0 0-0.37305-0.1543 2.4528 2.4369 0 0 0-0.39844-0.09961 2.7515 2.7337 0 0 0-0.42383-0.033203 2.7476 2.7297 0 0 0-0.00586 0zm34.35 0.003906a2.4189 2.4032 0 0 0-0.77148 0.12891 2.5016 2.4853 0 0 0-0.6875 0.36328 2.5325 2.516 0 0 0-0.29883 0.25586 2.6261 2.609 0 0 0-0.25391 0.29492 2.7705 2.7525 0 0 0-0.20703 0.33984 2.8043 2.7861 0 0 0-0.1543 0.37305 2.5255 2.5091 0 0 0-0.09961 0.40039 2.8262 2.8079 0 0 0-0.033203 0.42578 2.9876 2.9682 0 0 0 0.03125 0.43164l-0.003906 0.003907a2.6171 2.6001 0 0 0 0.099609 0.40625 2.8501 2.8316 0 0 0 0.15039 0.37305 2.4896 2.4735 0 0 0 0.20508 0.33789 2.4289 2.4131 0 0 0 0.25 0.29688 2.4777 2.4616 0 0 0 0.29102 0.25195 2.5673 2.5506 0 0 0 0.32617 0.20312 2.4418 2.426 0 0 0 0.35547 0.15039 2.398 2.3824 0 0 0 0.38086 0.091797 2.6251 2.608 0 0 0 0.39844 0.03125 2.396 2.3805 0 0 0 0.29297-0.017578 2.1909 2.1767 0 0 0 0.27734-0.056641 2.7326 2.7149 0 0 0 0.26172-0.085938 2.5653 2.5487 0 0 0 0.24414-0.10742c0.078673-0.039576 0.15199-0.076574 0.2207-0.12109 0.068714-0.044524 0.13549-0.095142 0.19922-0.13867 0.063735-0.043531 0.122-0.096078 0.17578-0.14258 0.054442-0.047489 0.10396-0.094452 0.14844-0.14062l0.054687-0.056641-0.052734-0.058594-0.1875-0.19726-0.056641-0.060547-0.0625 0.054687c-0.034853 0.03166-0.072451 0.06498-0.11328 0.09961l-0.13477 0.10547c-0.048797 0.037591-0.09949 0.074745-0.15625 0.10937-0.056763 0.034626-0.1179 0.070839-0.18164 0.10547a1.8672 1.8551 0 0 1-0.19922 0.097657c-0.068713 0.02671-0.14203 0.053411-0.2207 0.076171a1.8005 1.7888 0 0 1-0.24414 0.050782 2.2008 2.1865 0 0 1-0.26367 0.017578 1.5256 1.5157 0 0 1-0.33984-0.041016 1.4539 1.4445 0 0 1-0.31836-0.11523 1.682 1.6711 0 0 1-0.29297-0.1875 1.7766 1.7651 0 0 1-0.25391-0.25 2.0027 1.9897 0 0 1-0.21289-0.30664 2.3632 2.3478 0 0 1-0.16211-0.35938 2.2905 2.2756 0 0 1-0.099609-0.40234 2.8173 2.799 0 0 1-0.035157-0.44141 2.7356 2.7178 0 0 1 0.019532-0.3418 2.5275 2.5111 0 0 1 0.064453-0.32617 2.3801 2.3646 0 0 1 0.099609-0.30469 2.2068 2.1925 0 0 1 0.13867-0.2793 1.9519 1.9392 0 0 1 0.16992-0.24609 1.7696 1.7581 0 0 1 0.19922-0.21094 1.674 1.6632 0 0 1 0.22461-0.17188 1.6203 1.6097 0 0 1 0.25391-0.12891 1.4679 1.4584 0 0 1 0.27344-0.080079 1.6681 1.6572 0 0 1 0.29883-0.027343 1.5256 1.5157 0 0 1 0.23242 0.017578 1.6641 1.6533 0 0 1 0.22852 0.054687 1.8214 1.8096 0 0 1 0.22656 0.091797 1.923 1.9105 0 0 1 0.21484 0.12109 1.9569 1.9441 0 0 1 0.19922 0.1543 2.0584 2.0451 0 0 1 0.18945 0.18164l0.066406 0.072266 0.0625-0.074219 0.32227-0.39648 0.054687-0.06836-0.070313-0.050781c-0.066722-0.0465-0.13916-0.099984-0.21484-0.14648-0.075685-0.046496-0.15463-0.089283-0.23828-0.13281a2.4787 2.4626 0 0 0-0.27344-0.11914 2.9876 2.9682 0 0 0-0.29883-0.09375 2.5334 2.517 0 0 0-0.33594-0.0625 3.1867 3.166 0 0 0-0.36719-0.021485 2.4189 2.4032 0 0 0-0.005859 0zm5.7324 0a2.4229 2.4072 0 0 0-0.77148 0.12891 2.4697 2.4537 0 0 0-0.35938 0.1543 2.5056 2.4893 0 0 0-0.32812 0.20898 2.5334 2.517 0 0 0-0.29883 0.25586 2.6261 2.609 0 0 0-0.25391 0.29492 2.5892 2.5724 0 0 0-0.20703 0.33984 2.7117 2.6941 0 0 0-0.1543 0.37305 2.5384 2.5219 0 0 0-0.099609 0.40039 2.7496 2.7317 0 0 0-0.033203 0.42578 2.888 2.8692 0 0 0 0.033203 0.43164l-0.005859 0.003907a2.6171 2.6001 0 0 0 0.099609 0.40625 2.6649 2.6476 0 0 0 0.15234 0.37305 2.399 2.3834 0 0 0 0.19922 0.33789 2.4647 2.4487 0 0 0 0.86719 0.75195 2.4418 2.426 0 0 0 0.35547 0.15039 2.4279 2.4121 0 0 0 0.38086 0.091797 2.6221 2.6051 0 0 0 0.39844 0.03125 2.405 2.3894 0 0 0 0.29297-0.017578 2.2217 2.2073 0 0 0 0.27734-0.056641 2.6818 2.6644 0 0 0 0.26172-0.085938 2.5364 2.52 0 0 0 0.24219-0.10742c0.078671-0.039576 0.15199-0.076574 0.2207-0.12109 0.068714-0.044524 0.13648-0.095142 0.19922-0.13867 0.062739-0.043531 0.12396-0.096078 0.17774-0.14258 0.054441-0.047489 0.10396-0.094452 0.14844-0.14062l0.052735-0.056641-0.052735-0.058594-0.1875-0.19726-0.05664-0.060547-0.060547 0.054687c-0.035853 0.03166-0.074405 0.06498-0.11524 0.09961l-0.13281 0.10547c-0.048797 0.037591-0.10144 0.074745-0.1582 0.10937-0.056764 0.034626-0.11791 0.070839-0.18164 0.10547a1.923 1.9105 0 0 1-0.19922 0.097657c-0.06971 0.026709-0.14203 0.053411-0.2207 0.076171a1.8174 1.8056 0 0 1-0.24219 0.050782 2.1839 2.1697 0 0 1-0.26367 0.017578 1.5266 1.5167 0 0 1-0.3418-0.041016 1.4609 1.4514 0 0 1-0.31836-0.11523 1.6641 1.6533 0 0 1-0.29102-0.1875 1.8134 1.8017 0 0 1-0.25586-0.25 1.9847 1.9718 0 0 1-0.21289-0.30664 2.3512 2.3359 0 0 1-0.16211-0.35938 2.2905 2.2756 0 0 1-0.09961-0.40234 2.7336 2.7159 0 0 1-0.035156-0.44141 2.7107 2.6931 0 0 1 0.021484-0.3418 2.5275 2.5111 0 0 1 0.0625-0.32617 2.3432 2.328 0 0 1 0.09961-0.30469 2.2686 2.2538 0 0 1 0.13867-0.2793 2.0256 2.0124 0 0 1 0.16992-0.24609 1.8802 1.868 0 0 1 0.19922-0.21094 1.6282 1.6176 0 0 1 0.22461-0.17188 1.6511 1.6404 0 0 1 0.25391-0.12891 1.4938 1.4841 0 0 1 0.27344-0.080079 1.6671 1.6562 0 0 1 0.29883-0.027343 1.5117 1.5019 0 0 1 0.23047 0.017578 1.6432 1.6325 0 0 1 0.22852 0.054687 1.7836 1.772 0 0 1 0.22852 0.091797 1.9399 1.9273 0 0 1 0.21484 0.12109 2.0315 2.0183 0 0 1 0.20508 0.1543 2.2546 2.24 0 0 1 0.18945 0.18164l0.066406 0.072266 0.0625-0.074219 0.32226-0.39648 0.056641-0.06836-0.072266-0.050781c-0.066722-0.0465-0.1382-0.099984-0.21289-0.14648-0.074689-0.046496-0.15658-0.089283-0.24024-0.13281a2.4428 2.427 0 0 0-0.27344-0.11914 3.0214 3.0018 0 0 0-0.29883-0.09375 2.5354 2.519 0 0 0-0.33594-0.0625 3.1977 3.1769 0 0 0-0.36719-0.021485 2.4229 2.4072 0 0 0-0.00586 0zm22.35 0.00586a2.7635 2.7455 0 0 0-0.41797 0.03125 2.5404 2.5239 0 0 0-0.39844 0.099609 2.7037 2.6862 0 0 0-0.37305 0.15625 2.5892 2.5724 0 0 0-0.3418 0.20898 2.5564 2.5398 0 0 0-0.29883 0.25781 2.6729 2.6555 0 0 0-0.25977 0.29688 2.6002 2.5833 0 0 0-0.21094 0.33594 2.6579 2.6407 0 0 0-0.15625 0.37305 2.5036 2.4873 0 0 0-0.09961 0.39648 2.7366 2.7188 0 0 0-0.035156 0.41992 2.7177 2.7 0 0 0 0.035156 0.41602 2.5693 2.5526 0 0 0 0.09961 0.39648 2.6061 2.5892 0 0 0 0.15625 0.37109 2.5703 2.5536 0 0 0 0.21094 0.33594 2.6111 2.5942 0 0 0 0.26172 0.30273 2.6749 2.6575 0 0 0 0.29883 0.25586 2.7217 2.704 0 0 0 0.3418 0.20898 2.8123 2.794 0 0 0 0.37305 0.15625 2.5593 2.5427 0 0 0 0.39844 0.099609 2.7326 2.7149 0 0 0 0.42188 0.033203 2.7316 2.7139 0 0 0 0.42383-0.033203 2.5673 2.5506 0 0 0 0.39844-0.099609 2.7595 2.7416 0 0 0 0.37305-0.15625 2.5086 2.4923 0 0 0 0.33984-0.20703 2.6629 2.6456 0 0 0 0.29883-0.25586 2.6131 2.5962 0 0 0 0.47266-0.64062 2.6679 2.6506 0 0 0 0.15625-0.36914 2.4608 2.4448 0 0 0 0.09961-0.39648 2.7416 2.7238 0 0 0 0.03515-0.41797 2.7715 2.7535 0 0 0-0.03515-0.41992 2.4896 2.4735 0 0 0-0.09961-0.39648 2.7496 2.7317 0 0 0-0.1582-0.37109 2.5484 2.5318 0 0 0-0.21094-0.33789 2.6888 2.6713 0 0 0-0.25781-0.29688 2.5663 2.5496 0 0 0-0.29883-0.25781 2.6022 2.5853 0 0 0-0.33984-0.20898 2.6948 2.6773 0 0 0-0.375-0.15625 2.4468 2.4309 0 0 0-0.39844-0.097656 2.7555 2.7376 0 0 0-0.42578-0.033203 2.7635 2.7455 0 0 0-0.003906 0zm-70.836 0.041015v5.0449h0.72461v-2.3555h2.4043v2.3555h0.72461v-4.9609h-0.001953v-0.083985h-0.72266v2.2148h-2.4043v-2.2148h-0.72461zm12.875 0v5.0469h3.0586v-0.42969-0.087891h-0.083984l-2.252 0.042969v-1.8379l2.1582 0.013672h0.083984v-0.50391h-0.083984l-2.1582 0.013672v-1.7793l2.252 0.041016h0.083984v-0.51953h-3.0586zm68.211 0v5.0469h0.72851v-4.9629-0.083985h-0.72851zm3.291 0v5.0469h3.0606v-0.42969-0.087891h-0.08594l-2.252 0.042969v-1.8379l2.1602 0.013672h0.08398v-0.50391h-0.08398l-2.1602 0.013672v-1.7793l2.252 0.041016h0.08594v-0.51953h-3.0606zm-32.096 0.007813v5.0469h3.0605v-0.42969-0.085937h-0.085937l-2.25 0.041015v-1.8379l2.1582 0.013672h0.083984v-0.50391h-0.083984l-2.1582 0.013671v-1.7793l2.25 0.041016h0.085937v-0.51953h-3.0605zm22.988 0.001953v5.0449h0.72461v-2.4551l0.09961 0.11523 2.1289 2.3145 0.02344 0.025391h0.9707l-0.13086-0.13867-1.8203-1.957c0.05173-0.00518 0.10243-0.011907 0.15234-0.019531a1.8642 1.8521 0 0 0 0.31836-0.082032 1.8055 1.7938 0 0 0 0.28516-0.13086 1.5436 1.5335 0 0 0 0.25-0.17188 1.4221 1.4128 0 0 0 0.20507-0.21289 1.4101 1.401 0 0 0 0.1543-0.24414 1.2438 1.2357 0 0 0 0.09961-0.27344 1.3603 1.3515 0 0 0 0.03516-0.29492 1.4778 1.4682 0 0 0-0.03711-0.3125 1.3643 1.3555 0 0 0-0.09961-0.28906 1.4032 1.394 0 0 0-0.16211-0.25977 1.449 1.4396 0 0 0-0.2168-0.22266 1.6113 1.6008 0 0 0-0.26758-0.18359 1.9578 1.9451 0 0 0-0.30859-0.13672 2.1281 2.1143 0 0 0-0.3457-0.085937 2.39 2.3745 0 0 0-0.37696-0.029297h-1.6816zm-66.861 0.40234a1.7139 1.7027 0 0 1 0.37109 0.041015 1.5934 1.583 0 0 1 0.34375 0.12109 1.8085 1.7967 0 0 1 0.3125 0.19727 1.8832 1.8709 0 0 1 0.26953 0.25391 2.0086 1.9956 0 0 1 0.22461 0.3125 2.3363 2.3211 0 0 1 0.16992 0.36133 2.3273 2.3122 0 0 1 0.10742 0.39453 2.6759 2.6585 0 0 1 0.03711 0.43359 2.644 2.6268 0 0 1-0.03711 0.43164l-0.001953-0.003907a2.2825 2.2677 0 0 1-0.10742 0.39648 2.39 2.3745 0 0 1-0.16992 0.35938 1.9817 1.9689 0 0 1-0.22266 0.31055 1.8603 1.8482 0 0 1-0.27148 0.25391 1.7806 1.769 0 0 1-0.31055 0.19141 1.5535 1.5434 0 0 1-0.3457 0.12109 1.7069 1.6958 0 0 1-0.37109 0.041016 1.6999 1.6889 0 0 1-0.36914-0.041016 1.5366 1.5266 0 0 1-0.34375-0.12109 1.7119 1.7008 0 0 1-0.3125-0.19141 1.8921 1.8798 0 0 1-0.27148-0.25391 2.0375 2.0243 0 0 1-0.22266-0.31055 2.2367 2.2222 0 0 1-0.16992-0.35938 2.2984 2.2835 0 0 1-0.10742-0.39648 2.5822 2.5655 0 0 1 0-0.86523 2.3104 2.2954 0 0 1 0.10742-0.39453 2.3532 2.3379 0 0 1 0.16992-0.36133 2.0913 2.0777 0 0 1 0.22266-0.3125 1.8184 1.8066 0 0 1 0.58398-0.44727 1.5934 1.583 0 0 1 0.34375-0.12109 1.7079 1.6968 0 0 1 0.37109-0.041015zm62.43 0.007812a1.7159 1.7047 0 0 1 0.37305 0.041016 1.6053 1.5949 0 0 1 0.34375 0.12109 1.8045 1.7928 0 0 1 0.3125 0.19726 1.8832 1.8709 0 0 1 0.26953 0.25391 2.0614 2.048 0 0 1 0.22461 0.3125 2.3313 2.3162 0 0 1 0.16992 0.36133 2.3263 2.3112 0 0 1 0.10547 0.39453 2.6042 2.5872 0 0 1 0.037109 0.43359 2.5753 2.5586 0 0 1-0.037109 0.43164l-0.001953-0.003906a2.3472 2.332 0 0 1-0.10547 0.39648 2.3094 2.2944 0 0 1-0.16992 0.35938 2.0764 2.0629 0 0 1-0.22461 0.31055 1.8603 1.8482 0 0 1-0.26953 0.25391 1.7786 1.767 0 0 1-0.31055 0.19141 1.5515 1.5415 0 0 1-0.3457 0.12109 1.7089 1.6978 0 0 1-0.37109 0.041015 1.693 1.682 0 0 1-0.37109-0.041015 1.5535 1.5434 0 0 1-0.34375-0.12109 1.7129 1.7017 0 0 1-0.3125-0.19141 1.8921 1.8798 0 0 1-0.26953-0.25391 1.9917 1.9788 0 0 1-0.22461-0.31055 2.172 2.1579 0 0 1-0.16797-0.35938 2.2905 2.2756 0 0 1-0.10742-0.39453 2.5783 2.5615 0 0 1 0-0.86719 2.3711 2.3557 0 0 1 0.10742-0.39453 2.2237 2.2093 0 0 1 0.16797-0.36133 2.0783 2.0648 0 0 1 0.22461-0.3125 1.8164 1.8046 0 0 1 0.58203-0.44726 1.6123 1.6018 0 0 1 0.3457-0.12109 1.7039 1.6928 0 0 1 0.36914-0.041016zm5.1523 0.060547 0.9082 0.001953a1.3942 1.3851 0 0 1 0.41992 0.0625 1.1183 1.1111 0 0 1 0.1875 0.080078 1.0446 1.0379 0 0 1 0.16602 0.11133 0.86938 0.86373 0 0 1 0.13867 0.14453 0.94108 0.93497 0 0 1 0.10351 0.17773 1.0108 1.0042 0 0 1 0.06836 0.21289 1.432 1.4227 0 0 1 0.02344 0.25586 1.4251 1.4158 0 0 1-0.02344 0.25195 1.0098 1.0032 0 0 1-0.06836 0.21289 0.90623 0.90034 0 0 1-0.10546 0.17773 0.85245 0.84691 0 0 1-0.13672 0.14453 0.97494 0.96861 0 0 1-0.16602 0.11133 1.0954 1.0883 0 0 1-0.1875 0.080078 1.3842 1.3752 0 0 1-0.41992 0.0625h-0.9082v-2.0879zm-39.662 0.62891 0.80274 1.7422h-1.582l0.7793-1.7422zm-9.5781 1.3594 1.6152 1.7227-0.025391 0.023437 0.001953 0.007813c-0.02888 0.0287-0.05889 0.057247-0.09375 0.085937-0.036849 0.03068-0.076357 0.061154-0.11719 0.089844-0.042823 0.02968-0.08605 0.058264-0.13086 0.083984-0.043813 0.02573-0.092788 0.050496-0.14258 0.072266a1.4171 1.4079 0 0 1-0.1543 0.05664 1.0755 1.0685 0 0 1-0.1582 0.039063 1.0875 1.0804 0 0 1-0.16406 0.013672 1.1144 1.1071 0 0 1-0.23047-0.025391 0.90921 0.90331 0 0 1-0.21094-0.072265 1.1861 1.1784 0 0 1-0.18945-0.11328 1.0735 1.0666 0 0 1-0.1582-0.14453 1.2807 1.2724 0 0 1-0.13281-0.17578 1.2438 1.2357 0 0 1-0.09961-0.19727 1.1552 1.1477 0 0 1-0.060547-0.20508 1.1532 1.1457 0 0 1-0.021484-0.21094 1.7537 1.7423 0 0 1 0.021484-0.25977 1.2866 1.2783 0 0 1 0.054688-0.22461 1.2438 1.2357 0 0 1 0.082031-0.19922 1.0954 1.0883 0 0 1 0.10547-0.16211 1.3434 1.3347 0 0 1 0.12695-0.13672c0.02589-0.02375 0.053151-0.04659 0.082031-0.06836z" stroke-width="1"/>
    </g>
</svg>
