<svg xmlns="http://www.w3.org/2000/svg" width="127" height="127" viewBox="0 0 127 127">
  <g id="Group_4837" data-name="Group 4837" transform="translate(-1138 -8441.711)">
    <g id="Group_4791" data-name="Group 4791" transform="translate(1165.304 8451.61)">
      <g id="Group_4784" data-name="Group 4784" transform="translate(12.359 20.736)">
        <path id="Path_9831" data-name="Path 9831" d="M1766.167,1482.569q-.583,0-1.181-.023c-7.538-.292-13.445-2.75-17.558-7.306-6.8-7.528-6.216-17.984-6.188-18.425l1.924.121c-.006.1-.547,10.111,5.707,17.025,3.751,4.148,9.2,6.388,16.19,6.659,6.151.234,11.052-1.5,14.583-5.169,7.479-7.77,6.5-21.756,6.485-21.9l0-.075v-6.311c-2.126-.844-8.758-3.842-11.047-9.172-2.792,3.825-10.944,12.707-28.52,16.612l-.418-1.882c21.32-4.738,28.338-17.307,28.406-17.434l1.3-2.4.5,2.687c1.2,6.524,10.963,9.98,11.061,10.014l.648.225v7.628c.075,1.018.937,15.068-7.015,23.337C1777.343,1480.624,1772.343,1482.569,1766.167,1482.569Z" transform="translate(-1741.217 -1432.89)"/>
      </g>
      <g id="Group_4785" data-name="Group 4785" transform="translate(43.453 72.693)">
        <path id="Path_9832" data-name="Path 9832" d="M1833.914,1575.442l-1.916-.22c1.271-11.06-.232-19.862-4.126-24.15a9.193,9.193,0,0,0-7.291-3.068q-.25,0-.495,0c-10.372,0-14.2-6.05-14.357-6.312l1.642-1.01c.139.223,3.479,5.394,12.715,5.394q.227,0,.46,0a11.123,11.123,0,0,1,8.752,3.7C1833.629,1554.545,1835.268,1563.66,1833.914,1575.442Z" transform="translate(-1805.729 -1540.688)"/>
      </g>
      <g id="Group_4786" data-name="Group 4786" transform="translate(0 67.646)">
        <path id="Path_9833" data-name="Path 9833" d="M1715.7,1569.946c-.672-16.628,1.619-20.533,2.473-21.4.657-1.05,5.116-7.538,15.379-8.454,2.968-.265,5.19-1.294,6.6-3.059a9.626,9.626,0,0,0,1.75-6.556l1.911-.26a11.447,11.447,0,0,1-2.142,8c-1.754,2.2-4.429,3.477-7.95,3.792-9.9.884-13.8,7.359-13.965,7.635l-.153.262-.1.036c-.311.4-2.53,3.831-1.88,19.925Z" transform="translate(-1715.575 -1530.216)"/>
      </g>
      <g id="Group_4787" data-name="Group 4787" transform="translate(42.566 76.688)">
        <rect id="Rectangle_1305" data-name="Rectangle 1305" width="30.896" height="1.928" transform="translate(0 30.494) rotate(-80.754)"/>
      </g>
      <g id="Group_4788" data-name="Group 4788" transform="translate(22.382 76.717)">
        <rect id="Rectangle_1306" data-name="Rectangle 1306" width="1.928" height="30.756" transform="translate(0 0.251) rotate(-7.472)"/>
      </g>
      <g id="Group_4789" data-name="Group 4789" transform="translate(21.782 76.625)">
        <path id="Path_9834" data-name="Path 9834" d="M1774.783,1562.14l-14.017-11.821,1.243-1.474,12.791,10.787,5.585-4.584,1.223,1.49Z" transform="translate(-1760.767 -1548.845)"/>
      </g>
      <g id="Group_4790" data-name="Group 4790" transform="translate(6.635 0)">
        <path id="Path_9835" data-name="Path 9835" d="M1730.183,1471.568c-1.869-53.844-.056-62.678.022-63.027,4.466-17.673,18.662-18.662,18.8-18.671h.054l19.771.009c18.764,2.537,18.729,18.352,18.726,18.512v55.623h-1.928v-55.638c.007-.595-.026-14.248-16.992-16.577h-19.546c-.788.054-12.958,1.15-17.013,17.19-.068.324-1.819,9.277.029,62.514Z" transform="translate(-1729.341 -1389.869)"/>
      </g>
    </g>
    <g id="Rectangle_1307" data-name="Rectangle 1307" transform="translate(1138 8441.711)" fill="none" stroke="#000" stroke-width="1.5">
      <rect width="127" height="127" stroke="none"/>
      <rect x="0.75" y="0.75" width="125.5" height="125.5" fill="none"/>
    </g>
  </g>
</svg>
