<svg width="16" height="16" version="1.1" viewBox="0 0 16 16" xmlns="http://www.w3.org/2000/svg">
 <style>
  .hidden {display: none; fill: none}
  .black-fill {fill: #000000}
  .black-stroke {stroke: #000000}
  .secondary-fill {fill: #cbccd4}
  .secondary-stroke {stroke: #cbccd4}
  .white-fill {fill: #ffffff}
  .white-stroke {stroke: #ffffff}
  .primary-fill {fill: #8c2837}
  .primary-stroke {stroke: #8c2837}
  :target {display: block}
 </style>
 <g id="filter-black" class="hidden black-stroke">
  <path d="m11.568 2.5137c-1.1893-0.12017-2.3086 1.0099-2.0985 2.2046 0.092257 1.1786 1.3698 2.1029 2.5104 1.7072 1.0433-0.28348 1.7518-1.4603 1.3835-2.506-0.2245-0.7993-0.96265-1.3863-1.7953-1.4058zm-11.568 2.0059h9.1504-9.1504zm13.506 0h2.4922-2.4922zm-6.6582 6.9707h9.1523-9.1523zm-6.8477 0.0098h3.1836-3.1836zm7.0899-1e-4c0.051387 0.79478-0.51306 1.519-1.22 1.8261-0.58397 0.27185-1.3117 0.25661-1.847-0.12104-1.0071-0.61149-1.2448-2.1752-0.4438-3.0462 0.41176-0.45018 1.0301-0.6921 1.638-0.64338 0.70614 0.038712 1.414 0.45644 1.6803 1.1292 0.12594 0.26629 0.19405 0.56048 0.19253 0.85531z"/>
 </g>
 <g id="filter-white" class="hidden white-stroke">
  <path d="m11.568 2.5137c-1.1893-0.12017-2.3086 1.0099-2.0985 2.2046 0.092257 1.1786 1.3698 2.1029 2.5104 1.7072 1.0433-0.28348 1.7518-1.4603 1.3835-2.506-0.2245-0.7993-0.96265-1.3863-1.7953-1.4058zm-11.568 2.0059h9.1504-9.1504zm13.506 0h2.4922-2.4922zm-6.6582 6.9707h9.1523-9.1523zm-6.8477 0.0098h3.1836-3.1836zm7.0899-1e-4c0.051387 0.79478-0.51306 1.519-1.22 1.8261-0.58397 0.27185-1.3117 0.25661-1.847-0.12104-1.0071-0.61149-1.2448-2.1752-0.4438-3.0462 0.41176-0.45018 1.0301-0.6921 1.638-0.64338 0.70614 0.038712 1.414 0.45644 1.6803 1.1292 0.12594 0.26629 0.19405 0.56048 0.19253 0.85531z"/>
 </g>
 <g id="filter-primary" class="hidden primary-stroke">
  <path d="m11.568 2.5137c-1.1893-0.12017-2.3086 1.0099-2.0985 2.2046 0.092257 1.1786 1.3698 2.1029 2.5104 1.7072 1.0433-0.28348 1.7518-1.4603 1.3835-2.506-0.2245-0.7993-0.96265-1.3863-1.7953-1.4058zm-11.568 2.0059h9.1504-9.1504zm13.506 0h2.4922-2.4922zm-6.6582 6.9707h9.1523-9.1523zm-6.8477 0.0098h3.1836-3.1836zm7.0899-1e-4c0.051387 0.79478-0.51306 1.519-1.22 1.8261-0.58397 0.27185-1.3117 0.25661-1.847-0.12104-1.0071-0.61149-1.2448-2.1752-0.4438-3.0462 0.41176-0.45018 1.0301-0.6921 1.638-0.64338 0.70614 0.038712 1.414 0.45644 1.6803 1.1292 0.12594 0.26629 0.19405 0.56048 0.19253 0.85531z"/>
 </g>
 <g id="filter-secondary" class="hidden secondary-stroke">
  <path d="m11.568 2.5137c-1.1893-0.12017-2.3086 1.0099-2.0985 2.2046 0.092257 1.1786 1.3698 2.1029 2.5104 1.7072 1.0433-0.28348 1.7518-1.4603 1.3835-2.506-0.2245-0.7993-0.96265-1.3863-1.7953-1.4058zm-11.568 2.0059h9.1504-9.1504zm13.506 0h2.4922-2.4922zm-6.6582 6.9707h9.1523-9.1523zm-6.8477 0.0098h3.1836-3.1836zm7.0899-1e-4c0.051387 0.79478-0.51306 1.519-1.22 1.8261-0.58397 0.27185-1.3117 0.25661-1.847-0.12104-1.0071-0.61149-1.2448-2.1752-0.4438-3.0462 0.41176-0.45018 1.0301-0.6921 1.638-0.64338 0.70614 0.038712 1.414 0.45644 1.6803 1.1292 0.12594 0.26629 0.19405 0.56048 0.19253 0.85531z"/>
 </g>

 <g id="reset-black" class="hidden black-stroke black-fill">
  <path d="m14.119 8.0531h1.6246l-2.0899 2.2956-2.0445-2.2511c0.62082-0.033174 1.1317 0.018009 1.599-0.00758 0.20189-2.1203-1.6293-5.086-4.1827-5.9353a6.1656 6.1656 0 1 0 3.4368 8.9636l0.49192 0.53836a6.8622 6.8622 0 0 1-8.0849 2.9335 6.958 6.958 0 0 1 2.0663-13.549 7.1087 7.1087 0 0 1 7.1835 7.012z" stroke-width=".23696"/>
 </g>
 <g id="reset-white" class="hidden white-stroke white-fill">
  <path d="m14.119 8.0531h1.6246l-2.0899 2.2956-2.0445-2.2511c0.62082-0.033174 1.1317 0.018009 1.599-0.00758 0.20189-2.1203-1.6293-5.086-4.1827-5.9353a6.1656 6.1656 0 1 0 3.4368 8.9636l0.49192 0.53836a6.8622 6.8622 0 0 1-8.0849 2.9335 6.958 6.958 0 0 1 2.0663-13.549 7.1087 7.1087 0 0 1 7.1835 7.012z" stroke-width=".23696"/>
 </g>
 <g id="reset-primary" class="hidden primary-stroke primary-fill">
  <path d="m14.119 8.0531h1.6246l-2.0899 2.2956-2.0445-2.2511c0.62082-0.033174 1.1317 0.018009 1.599-0.00758 0.20189-2.1203-1.6293-5.086-4.1827-5.9353a6.1656 6.1656 0 1 0 3.4368 8.9636l0.49192 0.53836a6.8622 6.8622 0 0 1-8.0849 2.9335 6.958 6.958 0 0 1 2.0663-13.549 7.1087 7.1087 0 0 1 7.1835 7.012z" stroke-width=".23696"/>
 </g>
 <g id="reset-secondary" class="hidden secondary-stroke secondary-fill">
  <path d="m14.119 8.0531h1.6246l-2.0899 2.2956-2.0445-2.2511c0.62082-0.033174 1.1317 0.018009 1.599-0.00758 0.20189-2.1203-1.6293-5.086-4.1827-5.9353a6.1656 6.1656 0 1 0 3.4368 8.9636l0.49192 0.53836a6.8622 6.8622 0 0 1-8.0849 2.9335 6.958 6.958 0 0 1 2.0663-13.549 7.1087 7.1087 0 0 1 7.1835 7.012z" stroke-width=".23696"/>
 </g>
</svg>
