<svg version="1.1" xmlns="http://www.w3.org/2000/svg" width="20" height="20" viewBox="0 0 20 20">
    <title>Icons Sprite</title>
    <style>
        .hidden { display: none; }
        .black-fill {fill: #000000}
        .black-stroke {stroke: #000000}
        .secondary-fill {fill: #cbccd4}
        .secondary-stroke {stroke: #cbccd4}
        .white-fill {fill: #ffffff}
        .white-stroke {stroke: #ffffff}
        .primary-fill {fill: #8c2837}
        .primary-stroke {stroke: #8c2837}
        :target { display: block; }
    </style>
    <g id="gift-black" class="hidden black-fill">
        <path d="m15.128 6.0879a7.9389 7.9389 0 0 0 1.0172-0.85224 4.3624 4.3624 0 0 0 1.2434-2.2868 2.5417 2.5417 0 0 0-0.62481-2.2743 2.3743 2.3743 0 0 0-1.727-0.67355 4.1238 4.1238 0 0 0-2.8354 1.2921 11.16 11.16 0 0 0-2.4918 4.4199 9.026 9.026 0 0 0-2.0956-4.2387 3.1678 3.1678 0 0 0-2.2093-0.95971 2.3206 2.3206 0 0 0-1.6657 0.6623 2.7654 2.7654 0 0 0 0.29866 3.8738 6.3731 6.3731 0 0 0 1.3971 1.0359h-4.2875v5.0597h1.2634v8.8536h15.178v-8.8523h1.2646v-5.0597zm-1.9207-3.7901a2.7417 2.7417 0 0 1 1.8294-0.87474 1.0097 1.0097 0 0 1 0.71978 0.25742c0.51484 0.51485 0.22493 1.7057-0.61856 2.5492a8.9098 8.9098 0 0 1-3.0516 1.8582h-0.9997a9.6933 9.6933 0 0 1 2.1244-3.7901zm-8.7036 0.64606a0.97096 0.97096 0 0 1 0.24118-0.76102 0.91847 0.91847 0 0 1 0.65855-0.24992 1.7495 1.7495 0 0 1 1.2046 0.54359 7.0304 7.0304 0 0 1 1.5945 3.0803l0.029991 0.10872-0.10872-0.027492a7.0304 7.0304 0 0 1-3.0803-1.592 1.7995 1.7995 0 0 1-0.53859-1.1022zm4.2312 15.793h-5.0597v-8.225h5.0597v8.2213zm0-8.8536h-6.3243v-2.5305h6.3243v2.5342zm7.589 8.8536h-5.0547v-8.225h5.0597zm1.2646-8.8498h-6.3194v-2.5342h6.3243v2.5342z" stroke-width="1"/>
    </g>
    <g id="gift-secondary" class="hidden secondary-fill">
        <path d="m15.128 6.0879a7.9389 7.9389 0 0 0 1.0172-0.85224 4.3624 4.3624 0 0 0 1.2434-2.2868 2.5417 2.5417 0 0 0-0.62481-2.2743 2.3743 2.3743 0 0 0-1.727-0.67355 4.1238 4.1238 0 0 0-2.8354 1.2921 11.16 11.16 0 0 0-2.4918 4.4199 9.026 9.026 0 0 0-2.0956-4.2387 3.1678 3.1678 0 0 0-2.2093-0.95971 2.3206 2.3206 0 0 0-1.6657 0.6623 2.7654 2.7654 0 0 0 0.29866 3.8738 6.3731 6.3731 0 0 0 1.3971 1.0359h-4.2875v5.0597h1.2634v8.8536h15.178v-8.8523h1.2646v-5.0597zm-1.9207-3.7901a2.7417 2.7417 0 0 1 1.8294-0.87474 1.0097 1.0097 0 0 1 0.71978 0.25742c0.51484 0.51485 0.22493 1.7057-0.61856 2.5492a8.9098 8.9098 0 0 1-3.0516 1.8582h-0.9997a9.6933 9.6933 0 0 1 2.1244-3.7901zm-8.7036 0.64606a0.97096 0.97096 0 0 1 0.24118-0.76102 0.91847 0.91847 0 0 1 0.65855-0.24992 1.7495 1.7495 0 0 1 1.2046 0.54359 7.0304 7.0304 0 0 1 1.5945 3.0803l0.029991 0.10872-0.10872-0.027492a7.0304 7.0304 0 0 1-3.0803-1.592 1.7995 1.7995 0 0 1-0.53859-1.1022zm4.2312 15.793h-5.0597v-8.225h5.0597v8.2213zm0-8.8536h-6.3243v-2.5305h6.3243v2.5342zm7.589 8.8536h-5.0547v-8.225h5.0597zm1.2646-8.8498h-6.3194v-2.5342h6.3243v2.5342z" stroke-width="1"/>
    </g>
    <g id="gift-primary" class="hidden primary-fill">
        <path d="m15.128 6.0879a7.9389 7.9389 0 0 0 1.0172-0.85224 4.3624 4.3624 0 0 0 1.2434-2.2868 2.5417 2.5417 0 0 0-0.62481-2.2743 2.3743 2.3743 0 0 0-1.727-0.67355 4.1238 4.1238 0 0 0-2.8354 1.2921 11.16 11.16 0 0 0-2.4918 4.4199 9.026 9.026 0 0 0-2.0956-4.2387 3.1678 3.1678 0 0 0-2.2093-0.95971 2.3206 2.3206 0 0 0-1.6657 0.6623 2.7654 2.7654 0 0 0 0.29866 3.8738 6.3731 6.3731 0 0 0 1.3971 1.0359h-4.2875v5.0597h1.2634v8.8536h15.178v-8.8523h1.2646v-5.0597zm-1.9207-3.7901a2.7417 2.7417 0 0 1 1.8294-0.87474 1.0097 1.0097 0 0 1 0.71978 0.25742c0.51484 0.51485 0.22493 1.7057-0.61856 2.5492a8.9098 8.9098 0 0 1-3.0516 1.8582h-0.9997a9.6933 9.6933 0 0 1 2.1244-3.7901zm-8.7036 0.64606a0.97096 0.97096 0 0 1 0.24118-0.76102 0.91847 0.91847 0 0 1 0.65855-0.24992 1.7495 1.7495 0 0 1 1.2046 0.54359 7.0304 7.0304 0 0 1 1.5945 3.0803l0.029991 0.10872-0.10872-0.027492a7.0304 7.0304 0 0 1-3.0803-1.592 1.7995 1.7995 0 0 1-0.53859-1.1022zm4.2312 15.793h-5.0597v-8.225h5.0597v8.2213zm0-8.8536h-6.3243v-2.5305h6.3243v2.5342zm7.589 8.8536h-5.0547v-8.225h5.0597zm1.2646-8.8498h-6.3194v-2.5342h6.3243v2.5342z" stroke-width="1"/>
    </g>
    <g id="gift-white" class="hidden white-fill">
        <path d="m15.128 6.0879a7.9389 7.9389 0 0 0 1.0172-0.85224 4.3624 4.3624 0 0 0 1.2434-2.2868 2.5417 2.5417 0 0 0-0.62481-2.2743 2.3743 2.3743 0 0 0-1.727-0.67355 4.1238 4.1238 0 0 0-2.8354 1.2921 11.16 11.16 0 0 0-2.4918 4.4199 9.026 9.026 0 0 0-2.0956-4.2387 3.1678 3.1678 0 0 0-2.2093-0.95971 2.3206 2.3206 0 0 0-1.6657 0.6623 2.7654 2.7654 0 0 0 0.29866 3.8738 6.3731 6.3731 0 0 0 1.3971 1.0359h-4.2875v5.0597h1.2634v8.8536h15.178v-8.8523h1.2646v-5.0597zm-1.9207-3.7901a2.7417 2.7417 0 0 1 1.8294-0.87474 1.0097 1.0097 0 0 1 0.71978 0.25742c0.51484 0.51485 0.22493 1.7057-0.61856 2.5492a8.9098 8.9098 0 0 1-3.0516 1.8582h-0.9997a9.6933 9.6933 0 0 1 2.1244-3.7901zm-8.7036 0.64606a0.97096 0.97096 0 0 1 0.24118-0.76102 0.91847 0.91847 0 0 1 0.65855-0.24992 1.7495 1.7495 0 0 1 1.2046 0.54359 7.0304 7.0304 0 0 1 1.5945 3.0803l0.029991 0.10872-0.10872-0.027492a7.0304 7.0304 0 0 1-3.0803-1.592 1.7995 1.7995 0 0 1-0.53859-1.1022zm4.2312 15.793h-5.0597v-8.225h5.0597v8.2213zm0-8.8536h-6.3243v-2.5305h6.3243v2.5342zm7.589 8.8536h-5.0547v-8.225h5.0597zm1.2646-8.8498h-6.3194v-2.5342h6.3243v2.5342z" stroke-width="1"/>
    </g>



    <g id="whatsapp-black" class="hidden black-fill">
        <path d="m1.6618 18.377c0.08-0.295 0.15-0.56 0.223-0.825 0.306-1.12 0.615-2.239 0.916-3.36a0.357 0.357 0 0 0-0.038-0.239 8.286 8.286 0 0 1-0.98-3.107 8.149 8.149 0 0 1 1.143-5.2 8.188 8.188 0 0 1 3.632-3.253 8.091 8.091 0 0 1 4.184-0.735 8.13 8.13 0 0 1 5.094 2.337 8.121 8.121 0 0 1 1.927 2.888 8.253 8.253 0 0 1 0.559 3.547 8.215 8.215 0 0 1-0.519 2.429 8.243 8.243 0 0 1-2.183 3.21 8.151 8.151 0 0 1-3.712 1.954 8.233 8.233 0 0 1-4.85-0.339c-0.308-0.116-0.6-0.273-0.9-0.405a0.311 0.311 0 0 0-0.188-0.023q-2.06 0.534-4.117 1.075c-0.055 0.014-0.106 0.026-0.191 0.046zm5.641-12.276a0.843 0.843 0 0 0-0.7 0.2 2.488 2.488 0 0 0-0.581 0.793 2.615 2.615 0 0 0 0.075 2.18 7.286 7.286 0 0 0 0.812 1.311 9 9 0 0 0 2.094 2.125 7.533 7.533 0 0 0 2.223 1.013 2.981 2.981 0 0 0 1.373 0.169 1.772 1.772 0 0 0 1.651-1.764 0.347 0.347 0 0 0-0.215-0.352c-0.351-0.167-0.7-0.345-1.047-0.513-0.22-0.1-0.443-0.206-0.67-0.293a0.279 0.279 0 0 0-0.375 0.122c-0.163 0.211-0.324 0.424-0.5 0.626-0.239 0.278-0.244 0.408-0.747 0.191a5.66 5.66 0 0 1-2.633-2.316c-0.157-0.257-0.135-0.321 0.056-0.548a5.569 5.569 0 0 0 0.485-0.68 0.381 0.381 0 0 0 0.017-0.3c-0.215-0.546-0.446-1.087-0.673-1.628a0.489 0.489 0 0 0-0.528-0.338c-0.041 4e-3 -0.082 4e-3 -0.117 4e-3z"/>
    </g>
    <g id="whatsapp-secondary" class="hidden secondary-fill">
        <path d="m1.6618 18.377c0.08-0.295 0.15-0.56 0.223-0.825 0.306-1.12 0.615-2.239 0.916-3.36a0.357 0.357 0 0 0-0.038-0.239 8.286 8.286 0 0 1-0.98-3.107 8.149 8.149 0 0 1 1.143-5.2 8.188 8.188 0 0 1 3.632-3.253 8.091 8.091 0 0 1 4.184-0.735 8.13 8.13 0 0 1 5.094 2.337 8.121 8.121 0 0 1 1.927 2.888 8.253 8.253 0 0 1 0.559 3.547 8.215 8.215 0 0 1-0.519 2.429 8.243 8.243 0 0 1-2.183 3.21 8.151 8.151 0 0 1-3.712 1.954 8.233 8.233 0 0 1-4.85-0.339c-0.308-0.116-0.6-0.273-0.9-0.405a0.311 0.311 0 0 0-0.188-0.023q-2.06 0.534-4.117 1.075c-0.055 0.014-0.106 0.026-0.191 0.046zm5.641-12.276a0.843 0.843 0 0 0-0.7 0.2 2.488 2.488 0 0 0-0.581 0.793 2.615 2.615 0 0 0 0.075 2.18 7.286 7.286 0 0 0 0.812 1.311 9 9 0 0 0 2.094 2.125 7.533 7.533 0 0 0 2.223 1.013 2.981 2.981 0 0 0 1.373 0.169 1.772 1.772 0 0 0 1.651-1.764 0.347 0.347 0 0 0-0.215-0.352c-0.351-0.167-0.7-0.345-1.047-0.513-0.22-0.1-0.443-0.206-0.67-0.293a0.279 0.279 0 0 0-0.375 0.122c-0.163 0.211-0.324 0.424-0.5 0.626-0.239 0.278-0.244 0.408-0.747 0.191a5.66 5.66 0 0 1-2.633-2.316c-0.157-0.257-0.135-0.321 0.056-0.548a5.569 5.569 0 0 0 0.485-0.68 0.381 0.381 0 0 0 0.017-0.3c-0.215-0.546-0.446-1.087-0.673-1.628a0.489 0.489 0 0 0-0.528-0.338c-0.041 4e-3 -0.082 4e-3 -0.117 4e-3z"/>
    </g>
    <g id="whatsapp-primary" class="hidden primary-fill">
        <path d="m1.6618 18.377c0.08-0.295 0.15-0.56 0.223-0.825 0.306-1.12 0.615-2.239 0.916-3.36a0.357 0.357 0 0 0-0.038-0.239 8.286 8.286 0 0 1-0.98-3.107 8.149 8.149 0 0 1 1.143-5.2 8.188 8.188 0 0 1 3.632-3.253 8.091 8.091 0 0 1 4.184-0.735 8.13 8.13 0 0 1 5.094 2.337 8.121 8.121 0 0 1 1.927 2.888 8.253 8.253 0 0 1 0.559 3.547 8.215 8.215 0 0 1-0.519 2.429 8.243 8.243 0 0 1-2.183 3.21 8.151 8.151 0 0 1-3.712 1.954 8.233 8.233 0 0 1-4.85-0.339c-0.308-0.116-0.6-0.273-0.9-0.405a0.311 0.311 0 0 0-0.188-0.023q-2.06 0.534-4.117 1.075c-0.055 0.014-0.106 0.026-0.191 0.046zm5.641-12.276a0.843 0.843 0 0 0-0.7 0.2 2.488 2.488 0 0 0-0.581 0.793 2.615 2.615 0 0 0 0.075 2.18 7.286 7.286 0 0 0 0.812 1.311 9 9 0 0 0 2.094 2.125 7.533 7.533 0 0 0 2.223 1.013 2.981 2.981 0 0 0 1.373 0.169 1.772 1.772 0 0 0 1.651-1.764 0.347 0.347 0 0 0-0.215-0.352c-0.351-0.167-0.7-0.345-1.047-0.513-0.22-0.1-0.443-0.206-0.67-0.293a0.279 0.279 0 0 0-0.375 0.122c-0.163 0.211-0.324 0.424-0.5 0.626-0.239 0.278-0.244 0.408-0.747 0.191a5.66 5.66 0 0 1-2.633-2.316c-0.157-0.257-0.135-0.321 0.056-0.548a5.569 5.569 0 0 0 0.485-0.68 0.381 0.381 0 0 0 0.017-0.3c-0.215-0.546-0.446-1.087-0.673-1.628a0.489 0.489 0 0 0-0.528-0.338c-0.041 4e-3 -0.082 4e-3 -0.117 4e-3z"/>
    </g>

    <g id="telegram-black" class="hidden black-fill">
        <path d="m19.457 3.4713-2.871 13.543c-0.217 0.956-0.782 1.194-1.585 0.743l-4.376-3.224-2.111 2.031a1.1 1.1 0 0 1-0.879 0.429l0.314-4.456 8.11-7.328c0.353-0.314-0.076-0.489-0.548-0.174l-10.031 6.312-4.311-1.351c-0.939-0.293-0.956-0.939 0.2-1.389l16.883-6.5c0.782-0.293 1.466 0.174 1.211 1.368z"/>
    </g>
    <g id="telegram-secondary" class="hidden secondary-fill">
        <path d="m19.457 3.4713-2.871 13.543c-0.217 0.956-0.782 1.194-1.585 0.743l-4.376-3.224-2.111 2.031a1.1 1.1 0 0 1-0.879 0.429l0.314-4.456 8.11-7.328c0.353-0.314-0.076-0.489-0.548-0.174l-10.031 6.312-4.311-1.351c-0.939-0.293-0.956-0.939 0.2-1.389l16.883-6.5c0.782-0.293 1.466 0.174 1.211 1.368z"/>
    </g>
    <g id="telegram-primary" class="hidden primary-fill">
        <path d="m19.457 3.4713-2.871 13.543c-0.217 0.956-0.782 1.194-1.585 0.743l-4.376-3.224-2.111 2.031a1.1 1.1 0 0 1-0.879 0.429l0.314-4.456 8.11-7.328c0.353-0.314-0.076-0.489-0.548-0.174l-10.031 6.312-4.311-1.351c-0.939-0.293-0.956-0.939 0.2-1.389l16.883-6.5c0.782-0.293 1.466 0.174 1.211 1.368z"/>
    </g>

    <g id="profile-black" class="hidden black-stroke" transform="translate(1.9994 1.9995)">
        <path stroke-width=".74033" d="m14.896 15.187a6.8278 6.8278 0 0 0-1.3819-4.0254 6.8209 6.8209 0 0 0-3.1864-2.3473l-0.05133-0.020729-0.02961-0.012832-0.26158-0.10562 0.23197-0.15892 0.11944-0.080943c0.07996-0.054291 0.15695-0.10562 0.23-0.15892a4.2357 4.2357 0 0 0 1.7709-2.9258 4.2534 4.2534 0 0 0-1.3148-3.7915 4.2307 4.2307 0 0 0-2.5082-1.1786 0.19742 0.19742 0 0 1-0.041458-0.0098711h-0.9417c-0.092788 0.020729-0.18656 0.038497-0.27738 0.055278a4.3433 4.3433 0 0 0-0.60016 0.14313 4.2603 4.2603 0 0 0-2.7925 2.7827 4.2367 4.2367 0 0 0 0.3139 3.4855 4.2909 4.2909 0 0 0 1.5419 1.6189l0.060214 0.039484a0.16386 0.16386 0 0 1 0.050342 0.054291v0.0079l0.098711 0.15596-0.17373 0.06811-0.077981 0.0306-0.15991 0.062188a6.8712 6.8712 0 0 0-3.7747 3.5447 6.5425 6.5425 0 0 0-0.60707 2.3207c0 0.06712-0.00987 0.13622-0.010858 0.20334 0 0.06712-0.00987 0.15991-0.01382 0.24085a0.41064 0.41064 0 0 0 0.21519 0.44518h0.26948a0.45999 0.45999 0 0 0 0.22407-0.43531 7.8968 7.8968 0 0 1 0.098711-1.0305 6.0115 6.0115 0 0 1 1.5389-3.0689 6.0964 6.0964 0 0 1 3.7362-1.9367 6.0283 6.0283 0 0 1 2.5072 0.18656 6.1043 6.1043 0 0 1 3.1222 2.0788 6.0628 6.0628 0 0 1 1.3592 3.7658 0.45308 0.45308 0 0 0 0.2221 0.44124h0.26948a0.42939 0.42939 0 0 0 0.22506-0.44321zm-6.3441-6.7676a0.59226 0.59226 0 0 1-0.098711 0.00691h-0.092788-0.061201c-0.055278 0-0.11056 0-0.16287-0.0079a1.5794 1.5794 0 0 0-0.30699 0 2.1035 2.1035 0 0 1-0.99796-0.1451 3.5852 3.5852 0 0 1-2.2476-2.1795 3.6523 3.6523 0 0 1 0.32871-3.37 3.5812 3.5812 0 0 1 1.9505-1.5369 3.3562 3.3562 0 0 1 1.0858-0.1836 3.673 3.673 0 0 1 3.5743 2.7145 3.8625 3.8625 0 0 1 0 2.0867 3.9001 3.9001 0 0 1-1.1322 1.7531 3.4549 3.4549 0 0 1-1.839 0.86174z"/>
    </g>
    <g id="profile-white" class="hidden white-stroke" transform="translate(1.9994 1.9995)">
        <path stroke-width=".74033" d="m14.896 15.187a6.8278 6.8278 0 0 0-1.3819-4.0254 6.8209 6.8209 0 0 0-3.1864-2.3473l-0.05133-0.020729-0.02961-0.012832-0.26158-0.10562 0.23197-0.15892 0.11944-0.080943c0.07996-0.054291 0.15695-0.10562 0.23-0.15892a4.2357 4.2357 0 0 0 1.7709-2.9258 4.2534 4.2534 0 0 0-1.3148-3.7915 4.2307 4.2307 0 0 0-2.5082-1.1786 0.19742 0.19742 0 0 1-0.041458-0.0098711h-0.9417c-0.092788 0.020729-0.18656 0.038497-0.27738 0.055278a4.3433 4.3433 0 0 0-0.60016 0.14313 4.2603 4.2603 0 0 0-2.7925 2.7827 4.2367 4.2367 0 0 0 0.3139 3.4855 4.2909 4.2909 0 0 0 1.5419 1.6189l0.060214 0.039484a0.16386 0.16386 0 0 1 0.050342 0.054291v0.0079l0.098711 0.15596-0.17373 0.06811-0.077981 0.0306-0.15991 0.062188a6.8712 6.8712 0 0 0-3.7747 3.5447 6.5425 6.5425 0 0 0-0.60707 2.3207c0 0.06712-0.00987 0.13622-0.010858 0.20334 0 0.06712-0.00987 0.15991-0.01382 0.24085a0.41064 0.41064 0 0 0 0.21519 0.44518h0.26948a0.45999 0.45999 0 0 0 0.22407-0.43531 7.8968 7.8968 0 0 1 0.098711-1.0305 6.0115 6.0115 0 0 1 1.5389-3.0689 6.0964 6.0964 0 0 1 3.7362-1.9367 6.0283 6.0283 0 0 1 2.5072 0.18656 6.1043 6.1043 0 0 1 3.1222 2.0788 6.0628 6.0628 0 0 1 1.3592 3.7658 0.45308 0.45308 0 0 0 0.2221 0.44124h0.26948a0.42939 0.42939 0 0 0 0.22506-0.44321zm-6.3441-6.7676a0.59226 0.59226 0 0 1-0.098711 0.00691h-0.092788-0.061201c-0.055278 0-0.11056 0-0.16287-0.0079a1.5794 1.5794 0 0 0-0.30699 0 2.1035 2.1035 0 0 1-0.99796-0.1451 3.5852 3.5852 0 0 1-2.2476-2.1795 3.6523 3.6523 0 0 1 0.32871-3.37 3.5812 3.5812 0 0 1 1.9505-1.5369 3.3562 3.3562 0 0 1 1.0858-0.1836 3.673 3.673 0 0 1 3.5743 2.7145 3.8625 3.8625 0 0 1 0 2.0867 3.9001 3.9001 0 0 1-1.1322 1.7531 3.4549 3.4549 0 0 1-1.839 0.86174z"/>
    </g>
    <g id="profile-primary" class="hidden primary-stroke" transform="translate(1.9994 1.9995)">
        <path stroke-width=".74033" d="m14.896 15.187a6.8278 6.8278 0 0 0-1.3819-4.0254 6.8209 6.8209 0 0 0-3.1864-2.3473l-0.05133-0.020729-0.02961-0.012832-0.26158-0.10562 0.23197-0.15892 0.11944-0.080943c0.07996-0.054291 0.15695-0.10562 0.23-0.15892a4.2357 4.2357 0 0 0 1.7709-2.9258 4.2534 4.2534 0 0 0-1.3148-3.7915 4.2307 4.2307 0 0 0-2.5082-1.1786 0.19742 0.19742 0 0 1-0.041458-0.0098711h-0.9417c-0.092788 0.020729-0.18656 0.038497-0.27738 0.055278a4.3433 4.3433 0 0 0-0.60016 0.14313 4.2603 4.2603 0 0 0-2.7925 2.7827 4.2367 4.2367 0 0 0 0.3139 3.4855 4.2909 4.2909 0 0 0 1.5419 1.6189l0.060214 0.039484a0.16386 0.16386 0 0 1 0.050342 0.054291v0.0079l0.098711 0.15596-0.17373 0.06811-0.077981 0.0306-0.15991 0.062188a6.8712 6.8712 0 0 0-3.7747 3.5447 6.5425 6.5425 0 0 0-0.60707 2.3207c0 0.06712-0.00987 0.13622-0.010858 0.20334 0 0.06712-0.00987 0.15991-0.01382 0.24085a0.41064 0.41064 0 0 0 0.21519 0.44518h0.26948a0.45999 0.45999 0 0 0 0.22407-0.43531 7.8968 7.8968 0 0 1 0.098711-1.0305 6.0115 6.0115 0 0 1 1.5389-3.0689 6.0964 6.0964 0 0 1 3.7362-1.9367 6.0283 6.0283 0 0 1 2.5072 0.18656 6.1043 6.1043 0 0 1 3.1222 2.0788 6.0628 6.0628 0 0 1 1.3592 3.7658 0.45308 0.45308 0 0 0 0.2221 0.44124h0.26948a0.42939 0.42939 0 0 0 0.22506-0.44321zm-6.3441-6.7676a0.59226 0.59226 0 0 1-0.098711 0.00691h-0.092788-0.061201c-0.055278 0-0.11056 0-0.16287-0.0079a1.5794 1.5794 0 0 0-0.30699 0 2.1035 2.1035 0 0 1-0.99796-0.1451 3.5852 3.5852 0 0 1-2.2476-2.1795 3.6523 3.6523 0 0 1 0.32871-3.37 3.5812 3.5812 0 0 1 1.9505-1.5369 3.3562 3.3562 0 0 1 1.0858-0.1836 3.673 3.673 0 0 1 3.5743 2.7145 3.8625 3.8625 0 0 1 0 2.0867 3.9001 3.9001 0 0 1-1.1322 1.7531 3.4549 3.4549 0 0 1-1.839 0.86174z"/>
    </g>

    <g id="basket-black" class="hidden black-stroke">
        <path stroke-width=".55" d="m5.9001 5.4222h-2.203c-0.3 0-0.358 0.089-0.38 0.128a0.848 0.848 0 0 0-0.109 0.412c-0.01 3.451-0.01 6.961-0.01 10.354v1.422c0 0.071 0 0.134 0.01 0.192a0.307 0.307 0 0 0 0.257 0.281 1.322 1.322 0 0 0 0.367 0.045h12.314c0.524 0 0.645-0.1 0.645-0.551q0-2.6 0-5.19v-0.677q0-0.785 0-1.571c0-1.429 0-2.907 0.01-4.361a0.478 0.478 0 0 0-0.146-0.374 0.625 0.625 0 0 0-0.415-0.117c-0.437 0.011-0.879 9e-3 -1.307 7e-3h-1.056c-0.469 9e-3 -0.548-0.265-0.567-0.47l-0.012-0.142a5.3 5.3 0 0 0-0.155-1.027 3.218 3.218 0 0 0-3.3-2.025 3.367 3.367 0 0 0-2.562 1.238 2.579 2.579 0 0 0-0.585 1.735v0.048c0 0.272 0 0.421-0.131 0.536a0.675 0.675 0 0 1-0.484 0.1zm2.776-2.534a2.662 2.662 0 0 1 2.226-0.2 2.141 2.141 0 0 1 1.427 1.489 2.947 2.947 0 0 1 0.057 0.476c0.01 0.083 0.01 0.162 0.019 0.24a0.433 0.433 0 0 1-0.121 0.39 0.626 0.626 0 0 1-0.427 0.139h-0.029c-0.438-7e-3 -0.886-6e-3 -1.318 0h-2.347c-0.254 0-0.557-0.078-0.572-0.486a2.111 2.111 0 0 1 1.086-2.048zm-2.116 3.445a0.445 0.445 0 0 1 0.137 0.368c-0.011 0.426-0.011 0.864 0 1.3a0.38 0.38 0 0 0 0.27 0.381 0.465 0.465 0 0 0 0.5-0.079 0.326 0.326 0 0 0 0.128-0.294v-1.331a0.428 0.428 0 0 1 0.131-0.342 0.592 0.592 0 0 1 0.391-0.119h3.77a0.592 0.592 0 0 1 0.393 0.12 0.444 0.444 0 0 1 0.135 0.359c-0.01 0.472-0.01 0.932 0 1.367 0 0.137 0.049 0.274 0.354 0.353a0.423 0.423 0 0 0 0.421-0.134 0.68 0.68 0 0 0 0.121-0.34c0.02-0.408 0.013-0.826 0.01-1.231v-0.047a0.416 0.416 0 0 1 0.131-0.334 0.569 0.569 0 0 1 0.381-0.113c0.449 7e-3 0.977 0.012 1.5 0a0.635 0.635 0 0 1 0.433 0.119 0.471 0.471 0 0 1 0.148 0.381c-0.01 1.312-0.01 2.647 0 3.937q0 0.593 0 1.187v1.089q0 2 0 3.994c0 0.2 0 0.342-0.129 0.451a0.754 0.754 0 0 1-0.521 0.107h-10.536a0.668 0.668 0 0 1-0.483-0.108c-0.118-0.106-0.118-0.239-0.118-0.424v-2.192c0-2.634 0-5.358-0.01-8.037a0.478 0.478 0 0 1 0.15-0.388 0.647 0.647 0 0 1 0.448-0.117c0.435 0.013 0.907 0.013 1.443 0a0.614 0.614 0 0 1 0.402 0.117z"/>
    </g>
    <g id="basket-white" class="hidden white-stroke">
        <path stroke-width=".55" d="m5.9001 5.4222h-2.203c-0.3 0-0.358 0.089-0.38 0.128a0.848 0.848 0 0 0-0.109 0.412c-0.01 3.451-0.01 6.961-0.01 10.354v1.422c0 0.071 0 0.134 0.01 0.192a0.307 0.307 0 0 0 0.257 0.281 1.322 1.322 0 0 0 0.367 0.045h12.314c0.524 0 0.645-0.1 0.645-0.551q0-2.6 0-5.19v-0.677q0-0.785 0-1.571c0-1.429 0-2.907 0.01-4.361a0.478 0.478 0 0 0-0.146-0.374 0.625 0.625 0 0 0-0.415-0.117c-0.437 0.011-0.879 9e-3 -1.307 7e-3h-1.056c-0.469 9e-3 -0.548-0.265-0.567-0.47l-0.012-0.142a5.3 5.3 0 0 0-0.155-1.027 3.218 3.218 0 0 0-3.3-2.025 3.367 3.367 0 0 0-2.562 1.238 2.579 2.579 0 0 0-0.585 1.735v0.048c0 0.272 0 0.421-0.131 0.536a0.675 0.675 0 0 1-0.484 0.1zm2.776-2.534a2.662 2.662 0 0 1 2.226-0.2 2.141 2.141 0 0 1 1.427 1.489 2.947 2.947 0 0 1 0.057 0.476c0.01 0.083 0.01 0.162 0.019 0.24a0.433 0.433 0 0 1-0.121 0.39 0.626 0.626 0 0 1-0.427 0.139h-0.029c-0.438-7e-3 -0.886-6e-3 -1.318 0h-2.347c-0.254 0-0.557-0.078-0.572-0.486a2.111 2.111 0 0 1 1.086-2.048zm-2.116 3.445a0.445 0.445 0 0 1 0.137 0.368c-0.011 0.426-0.011 0.864 0 1.3a0.38 0.38 0 0 0 0.27 0.381 0.465 0.465 0 0 0 0.5-0.079 0.326 0.326 0 0 0 0.128-0.294v-1.331a0.428 0.428 0 0 1 0.131-0.342 0.592 0.592 0 0 1 0.391-0.119h3.77a0.592 0.592 0 0 1 0.393 0.12 0.444 0.444 0 0 1 0.135 0.359c-0.01 0.472-0.01 0.932 0 1.367 0 0.137 0.049 0.274 0.354 0.353a0.423 0.423 0 0 0 0.421-0.134 0.68 0.68 0 0 0 0.121-0.34c0.02-0.408 0.013-0.826 0.01-1.231v-0.047a0.416 0.416 0 0 1 0.131-0.334 0.569 0.569 0 0 1 0.381-0.113c0.449 7e-3 0.977 0.012 1.5 0a0.635 0.635 0 0 1 0.433 0.119 0.471 0.471 0 0 1 0.148 0.381c-0.01 1.312-0.01 2.647 0 3.937q0 0.593 0 1.187v1.089q0 2 0 3.994c0 0.2 0 0.342-0.129 0.451a0.754 0.754 0 0 1-0.521 0.107h-10.536a0.668 0.668 0 0 1-0.483-0.108c-0.118-0.106-0.118-0.239-0.118-0.424v-2.192c0-2.634 0-5.358-0.01-8.037a0.478 0.478 0 0 1 0.15-0.388 0.647 0.647 0 0 1 0.448-0.117c0.435 0.013 0.907 0.013 1.443 0a0.614 0.614 0 0 1 0.402 0.117z"/>
    </g>
    <g id="basket-primary" class="hidden primary-stroke">
        <path stroke-width=".55" d="m5.9001 5.4222h-2.203c-0.3 0-0.358 0.089-0.38 0.128a0.848 0.848 0 0 0-0.109 0.412c-0.01 3.451-0.01 6.961-0.01 10.354v1.422c0 0.071 0 0.134 0.01 0.192a0.307 0.307 0 0 0 0.257 0.281 1.322 1.322 0 0 0 0.367 0.045h12.314c0.524 0 0.645-0.1 0.645-0.551q0-2.6 0-5.19v-0.677q0-0.785 0-1.571c0-1.429 0-2.907 0.01-4.361a0.478 0.478 0 0 0-0.146-0.374 0.625 0.625 0 0 0-0.415-0.117c-0.437 0.011-0.879 9e-3 -1.307 7e-3h-1.056c-0.469 9e-3 -0.548-0.265-0.567-0.47l-0.012-0.142a5.3 5.3 0 0 0-0.155-1.027 3.218 3.218 0 0 0-3.3-2.025 3.367 3.367 0 0 0-2.562 1.238 2.579 2.579 0 0 0-0.585 1.735v0.048c0 0.272 0 0.421-0.131 0.536a0.675 0.675 0 0 1-0.484 0.1zm2.776-2.534a2.662 2.662 0 0 1 2.226-0.2 2.141 2.141 0 0 1 1.427 1.489 2.947 2.947 0 0 1 0.057 0.476c0.01 0.083 0.01 0.162 0.019 0.24a0.433 0.433 0 0 1-0.121 0.39 0.626 0.626 0 0 1-0.427 0.139h-0.029c-0.438-7e-3 -0.886-6e-3 -1.318 0h-2.347c-0.254 0-0.557-0.078-0.572-0.486a2.111 2.111 0 0 1 1.086-2.048zm-2.116 3.445a0.445 0.445 0 0 1 0.137 0.368c-0.011 0.426-0.011 0.864 0 1.3a0.38 0.38 0 0 0 0.27 0.381 0.465 0.465 0 0 0 0.5-0.079 0.326 0.326 0 0 0 0.128-0.294v-1.331a0.428 0.428 0 0 1 0.131-0.342 0.592 0.592 0 0 1 0.391-0.119h3.77a0.592 0.592 0 0 1 0.393 0.12 0.444 0.444 0 0 1 0.135 0.359c-0.01 0.472-0.01 0.932 0 1.367 0 0.137 0.049 0.274 0.354 0.353a0.423 0.423 0 0 0 0.421-0.134 0.68 0.68 0 0 0 0.121-0.34c0.02-0.408 0.013-0.826 0.01-1.231v-0.047a0.416 0.416 0 0 1 0.131-0.334 0.569 0.569 0 0 1 0.381-0.113c0.449 7e-3 0.977 0.012 1.5 0a0.635 0.635 0 0 1 0.433 0.119 0.471 0.471 0 0 1 0.148 0.381c-0.01 1.312-0.01 2.647 0 3.937q0 0.593 0 1.187v1.089q0 2 0 3.994c0 0.2 0 0.342-0.129 0.451a0.754 0.754 0 0 1-0.521 0.107h-10.536a0.668 0.668 0 0 1-0.483-0.108c-0.118-0.106-0.118-0.239-0.118-0.424v-2.192c0-2.634 0-5.358-0.01-8.037a0.478 0.478 0 0 1 0.15-0.388 0.647 0.647 0 0 1 0.448-0.117c0.435 0.013 0.907 0.013 1.443 0a0.614 0.614 0 0 1 0.402 0.117z"/>
    </g>

    <g id="favorite-black" class="hidden black-stroke">
        <path stroke-width=".75" d="m18.15 6.8387c0-0.034 0-0.068-5e-3 -0.1a0.064 0.064 0 0 0 0-9e-3c-9e-3 -0.021-8e-3 -0.023 0-0.016s0-0.013-6e-3 -0.019a0.219 0.219 0 0 1-0.011-0.091 4.166 4.166 0 0 0-3.193-3.887 4.4 4.4 0 0 0-4.941 2.621c-1.054-2.008-2.646-3.05-4.98-2.6a4.06 4.06 0 0 0-3.173 3.9c0 0.247 0.01 0.65 0.01 0.7v0.447c0.062 0.327 0.114 0.667 0.2 1a9.646 9.646 0 0 0 2.075 3.784 22.9 22.9 0 0 0 5.622 4.727 0.4 0.4 0 0 0 0.472 0c0.584-0.392 1.184-0.762 1.752-1.175a20.277 20.277 0 0 0 4.226-4 9.248 9.248 0 0 0 1.716-3.347c0.092-0.359 0.145-0.728 0.215-1.088v0.011c0-0.026 7e-3 -0.049 7e-3 -0.049l9e-3 -0.043v-0.018c0-0.017 0-0.034 5e-3 -0.052s6e-3 -0.047 9e-3 -0.07v-0.539zm-1 2.116a9.692 9.692 0 0 1-1.922 3.266 22.135 22.135 0 0 1-4.765 4.11c-0.123 0.082-0.253 0.155-0.372 0.242a0.172 0.172 0 0 1-0.225 0 25.686 25.686 0 0 1-2.8-2.047 17.7 17.7 0 0 1-2.741-2.809 8.476 8.476 0 0 1-1.673-3.356c-0.083-0.39-0.114-0.791-0.142-1a4.394 4.394 0 0 1 0.793-2.778 3.345 3.345 0 0 1 3.8-1.094 3.859 3.859 0 0 1 2.468 2.788c0.028 0.1 0.048 0.2 0.072 0.307a0.356 0.356 0 0 0 0.353 0.323 0.355 0.355 0 0 0 0.337-0.323 4.365 4.365 0 0 1 0.5-1.374 3.529 3.529 0 0 1 3.458-1.9 3.159 3.159 0 0 1 2.877 2.2 5.087 5.087 0 0 1-0.015 3.445z"/>
    </g>
    <g id="favorite-white" class="hidden white-stroke">
        <path stroke-width=".75" d="m18.15 6.8387c0-0.034 0-0.068-5e-3 -0.1a0.064 0.064 0 0 0 0-9e-3c-9e-3 -0.021-8e-3 -0.023 0-0.016s0-0.013-6e-3 -0.019a0.219 0.219 0 0 1-0.011-0.091 4.166 4.166 0 0 0-3.193-3.887 4.4 4.4 0 0 0-4.941 2.621c-1.054-2.008-2.646-3.05-4.98-2.6a4.06 4.06 0 0 0-3.173 3.9c0 0.247 0.01 0.65 0.01 0.7v0.447c0.062 0.327 0.114 0.667 0.2 1a9.646 9.646 0 0 0 2.075 3.784 22.9 22.9 0 0 0 5.622 4.727 0.4 0.4 0 0 0 0.472 0c0.584-0.392 1.184-0.762 1.752-1.175a20.277 20.277 0 0 0 4.226-4 9.248 9.248 0 0 0 1.716-3.347c0.092-0.359 0.145-0.728 0.215-1.088v0.011c0-0.026 7e-3 -0.049 7e-3 -0.049l9e-3 -0.043v-0.018c0-0.017 0-0.034 5e-3 -0.052s6e-3 -0.047 9e-3 -0.07v-0.539zm-1 2.116a9.692 9.692 0 0 1-1.922 3.266 22.135 22.135 0 0 1-4.765 4.11c-0.123 0.082-0.253 0.155-0.372 0.242a0.172 0.172 0 0 1-0.225 0 25.686 25.686 0 0 1-2.8-2.047 17.7 17.7 0 0 1-2.741-2.809 8.476 8.476 0 0 1-1.673-3.356c-0.083-0.39-0.114-0.791-0.142-1a4.394 4.394 0 0 1 0.793-2.778 3.345 3.345 0 0 1 3.8-1.094 3.859 3.859 0 0 1 2.468 2.788c0.028 0.1 0.048 0.2 0.072 0.307a0.356 0.356 0 0 0 0.353 0.323 0.355 0.355 0 0 0 0.337-0.323 4.365 4.365 0 0 1 0.5-1.374 3.529 3.529 0 0 1 3.458-1.9 3.159 3.159 0 0 1 2.877 2.2 5.087 5.087 0 0 1-0.015 3.445z"/>
    </g>
    <g id="favorite-primary" class="hidden primary-stroke">
        <path stroke-width=".75" d="m18.15 6.8387c0-0.034 0-0.068-5e-3 -0.1a0.064 0.064 0 0 0 0-9e-3c-9e-3 -0.021-8e-3 -0.023 0-0.016s0-0.013-6e-3 -0.019a0.219 0.219 0 0 1-0.011-0.091 4.166 4.166 0 0 0-3.193-3.887 4.4 4.4 0 0 0-4.941 2.621c-1.054-2.008-2.646-3.05-4.98-2.6a4.06 4.06 0 0 0-3.173 3.9c0 0.247 0.01 0.65 0.01 0.7v0.447c0.062 0.327 0.114 0.667 0.2 1a9.646 9.646 0 0 0 2.075 3.784 22.9 22.9 0 0 0 5.622 4.727 0.4 0.4 0 0 0 0.472 0c0.584-0.392 1.184-0.762 1.752-1.175a20.277 20.277 0 0 0 4.226-4 9.248 9.248 0 0 0 1.716-3.347c0.092-0.359 0.145-0.728 0.215-1.088v0.011c0-0.026 7e-3 -0.049 7e-3 -0.049l9e-3 -0.043v-0.018c0-0.017 0-0.034 5e-3 -0.052s6e-3 -0.047 9e-3 -0.07v-0.539zm-1 2.116a9.692 9.692 0 0 1-1.922 3.266 22.135 22.135 0 0 1-4.765 4.11c-0.123 0.082-0.253 0.155-0.372 0.242a0.172 0.172 0 0 1-0.225 0 25.686 25.686 0 0 1-2.8-2.047 17.7 17.7 0 0 1-2.741-2.809 8.476 8.476 0 0 1-1.673-3.356c-0.083-0.39-0.114-0.791-0.142-1a4.394 4.394 0 0 1 0.793-2.778 3.345 3.345 0 0 1 3.8-1.094 3.859 3.859 0 0 1 2.468 2.788c0.028 0.1 0.048 0.2 0.072 0.307a0.356 0.356 0 0 0 0.353 0.323 0.355 0.355 0 0 0 0.337-0.323 4.365 4.365 0 0 1 0.5-1.374 3.529 3.529 0 0 1 3.458-1.9 3.159 3.159 0 0 1 2.877 2.2 5.087 5.087 0 0 1-0.015 3.445z"/>
    </g>
</svg>
