<svg width="20" height="20" version="1.1" viewBox="0 0 20 20" xmlns="http://www.w3.org/2000/svg">
 <g transform="translate(1.9994 1.9995)">
  <path d="m14.896 15.187a6.8278 6.8278 0 0 0-1.3819-4.0254 6.8209 6.8209 0 0 0-3.1864-2.3473l-0.05133-0.020729-0.02961-0.012832-0.26158-0.10562 0.23197-0.15892 0.11944-0.080943c0.07996-0.054291 0.15695-0.10562 0.23-0.15892a4.2357 4.2357 0 0 0 1.7709-2.9258 4.2534 4.2534 0 0 0-1.3148-3.7915 4.2307 4.2307 0 0 0-2.5082-1.1786 0.19742 0.19742 0 0 1-0.041458-0.009871h-0.9417c-0.092788 0.020729-0.18656 0.038497-0.27738 0.055278a4.3433 4.3433 0 0 0-0.60016 0.14313 4.2603 4.2603 0 0 0-2.7925 2.7827 4.2367 4.2367 0 0 0 0.3139 3.4855 4.2909 4.2909 0 0 0 1.5419 1.6189l0.060214 0.039484a0.16386 0.16386 0 0 1 0.050342 0.054291v0.0079l0.098711 0.15596-0.17373 0.06811-0.077981 0.0306-0.15991 0.062188a6.8712 6.8712 0 0 0-3.7747 3.5447 6.5425 6.5425 0 0 0-0.60707 2.3207c0 0.06712-0.00987 0.13622-0.010858 0.20334 0 0.06712-0.00987 0.15991-0.01382 0.24085a0.41064 0.41064 0 0 0 0.21519 0.44518h0.26948a0.45999 0.45999 0 0 0 0.22407-0.43531 7.8968 7.8968 0 0 1 0.098711-1.0305 6.0115 6.0115 0 0 1 1.5389-3.0689 6.0964 6.0964 0 0 1 3.7362-1.9367 6.0283 6.0283 0 0 1 2.5072 0.18656 6.1043 6.1043 0 0 1 3.1222 2.0788 6.0628 6.0628 0 0 1 1.3592 3.7658 0.45308 0.45308 0 0 0 0.2221 0.44124h0.26948a0.42939 0.42939 0 0 0 0.22506-0.44321zm-6.3441-6.7676a0.59226 0.59226 0 0 1-0.098711 0.00691h-0.15399c-0.055278 0-0.11056 0-0.16287-0.0079a1.5794 1.5794 0 0 0-0.30699 0 2.1035 2.1035 0 0 1-0.99796-0.1451 3.5852 3.5852 0 0 1-2.2476-2.1795 3.6523 3.6523 0 0 1 0.32871-3.37 3.5812 3.5812 0 0 1 1.9505-1.5369 3.3562 3.3562 0 0 1 1.0858-0.1836 3.673 3.673 0 0 1 3.5743 2.7145 3.8625 3.8625 0 0 1 0 2.0867 3.9001 3.9001 0 0 1-1.1322 1.7531 3.4549 3.4549 0 0 1-1.839 0.86174z" stroke="#000" stroke-width=".74033" data-name="Контур 11"/>
 </g>
</svg>
