<svg width="36" height="36" version="1.1" viewBox="0 0 36 36" xmlns="http://www.w3.org/2000/svg">
    <style>
        .hidden { display: none; }
        :target { display: block; }
    </style>
    <g id="brand-store" class="hidden">
        <circle cx="18" cy="18" r="18" fill="#8d2939"/>
        <path d="m8.603 24.66q0.169-0.058 0.339-0.122l0.182 0.122 8.639 5.767 0.229 0.153 0.229-0.153 8.252-5.509q-0.424-0.2-0.841-0.428l-7.641 5.1-8.158-5.446a13.5 13.5 0 0 0 2.493-1.628 14.411 14.411 0 0 0 3.013-3.337c-0.093-0.085-0.2-0.173-0.3-0.258-0.125-0.1-0.25-0.2-0.362-0.285a13.459 13.459 0 0 1-2.911 3.217 11.475 11.475 0 0 1-3.62 2.051c-0.237 0.075-0.474 0.139-0.707 0.191s-0.454 0.092-0.675 0.119c-0.148 0.019-0.292 0.032-0.431 0.039-0.121 7e-3 -0.238 8e-3 -0.352 7e-3l-0.023 0.86q0.21 0 0.425-6e-3c0.161-8e-3 0.323-0.023 0.485-0.043a7.893 7.893 0 0 0 0.845-0.154c0.292-0.069 0.59-0.156 0.89-0.257m6.708-7.5 0.049 0.04 0.025-0.058a3.69 3.69 0 0 0 0.257-1.39 2.143 2.143 0 0 0-0.277-1.138 1.121 1.121 0 0 0-0.179-0.213 0.973 0.973 0 0 0-0.218-0.151 0.84 0.84 0 0 0-0.231-0.076 0.812 0.812 0 0 0-0.242 0 0.864 0.864 0 0 0-0.2 0.051 1.021 1.021 0 0 0-0.2 0.1l-0.033 0.023-0.034 0.025a0.974 0.974 0 0 0-0.361 0.614 1.065 1.065 0 0 0 0.024 0.433 1.45 1.45 0 0 0 0.2 0.435c0.014 0.021 0.029 0.044 0.045 0.066s0.034 0.046 0.051 0.068a3.8 3.8 0 0 0 0.481 0.481c0.194 0.169 0.415 0.347 0.64 0.527zm-6.182-5.094 8.641-5.768 0.229-0.153 0.229 0.153 8.639 5.767 0.184 0.123v11.389a7.107 7.107 0 0 0 2.963 0.681l0.023 0.86a9.554 9.554 0 0 1-5.24-1.81 14.1 14.1 0 0 1-4.468-4.662l-0.026-0.048-0.045 0.038-0.362 0.3a14.713 14.713 0 0 0-2.483 2.416 2.442 2.442 0 0 0-0.324 0.65 1.713 1.713 0 0 0-0.071 0.658v0.057a0.859 0.859 0 0 0 0.118 0.3 1.069 1.069 0 0 0 0.225 0.257 0.953 0.953 0 0 0 0.291 0.167 0.753 0.753 0 0 0 0.31 0.042h0.05a0.753 0.753 0 0 0 0.31-0.042 0.954 0.954 0 0 0 0.291-0.167 1.074 1.074 0 0 0 0.225-0.258 0.868 0.868 0 0 0 0.118-0.3v-0.026-0.036a1.712 1.712 0 0 0-0.071-0.658 2.448 2.448 0 0 0-0.324-0.65q-0.048-0.07-0.1-0.139c-0.028-0.037-0.055-0.073-0.084-0.109q0.136-0.142 0.29-0.291t0.327-0.307c0.044 0.053 0.086 0.108 0.127 0.162q0.074 0.1 0.142 0.2a3.282 3.282 0 0 1 0.449 0.917 2.547 2.547 0 0 1 0.093 0.951c0 0.017 0 0.038-8e-3 0.063s-8e-3 0.053-0.013 0.079a1.723 1.723 0 0 1-0.221 0.577 1.918 1.918 0 0 1-0.419 0.488 1.823 1.823 0 0 1-0.56 0.32 1.568 1.568 0 0 1-0.6 0.088h-5e-3a1.568 1.568 0 0 1-0.605-0.088 1.822 1.822 0 0 1-0.56-0.319 1.914 1.914 0 0 1-0.419-0.487 1.715 1.715 0 0 1-0.221-0.577c0-0.026-9e-3 -0.053-0.012-0.078 0-0.025-7e-3 -0.047-8e-3 -0.064a2.539 2.539 0 0 1 0.093-0.951 3.286 3.286 0 0 1 0.449-0.917q0.128-0.189 0.289-0.385t0.35-0.4l0.033-0.036-0.036-0.033-0.18-0.163-0.189-0.169c-0.334-0.294-0.63-0.541-0.928-0.789l-7e-3 -5e-3 -0.145-0.121c-0.158-0.14-0.357-0.315-0.539-0.471s-0.356-0.3-0.465-0.375l-0.273-0.22-0.042-0.033a8.25 8.25 0 0 1-1.256-1.145c-0.027-0.034-0.051-0.066-0.073-0.1-0.024-0.034-0.047-0.067-0.068-0.1a2.3 2.3 0 0 1-0.321-0.73 1.927 1.927 0 0 1-0.031-0.749 1.833 1.833 0 0 1 0.678-1.156l0.065-0.049 0.064-0.044a1.907 1.907 0 0 1 0.37-0.19 1.71 1.71 0 0 1 0.389-0.1 1.642 1.642 0 0 1 0.485 0.011 1.7 1.7 0 0 1 0.466 0.154 1.8 1.8 0 0 1 0.4 0.277 1.963 1.963 0 0 1 0.327 0.384 3.028 3.028 0 0 1 0.418 1.649 4.785 4.785 0 0 1-0.422 1.966l-0.016 0.033 0.028 0.024c0.143 0.121 0.294 0.247 0.444 0.372l0.051 0.042 7e-3 6e-3c0.345 0.288 0.687 0.573 0.948 0.8l0.219 0.2 0.208 0.189 0.033 0.03 0.032-0.03 0.208-0.189c0.078-0.071 0.151-0.135 0.219-0.2 0.135-0.119 0.286-0.248 0.445-0.381s0.334-0.28 0.51-0.426l0.494-0.415 0.026-0.022v-6e-3l0.166-0.135 0.191-0.156 0.039-0.033 0.057-0.046 0.534-0.439 0.337-0.277c0.154-0.127 0.3-0.25 0.429-0.369a3.151 3.151 0 0 0 0.325-0.341c0.016-0.02 0.033-0.043 0.051-0.068l0.046-0.067a1.454 1.454 0 0 0 0.2-0.435 1.065 1.065 0 0 0 0.024-0.433 0.976 0.976 0 0 0-0.122-0.34 0.979 0.979 0 0 0-0.239-0.273l-0.031-0.023-0.036-0.025a1.022 1.022 0 0 0-0.2-0.1 0.867 0.867 0 0 0-0.2-0.051 0.811 0.811 0 0 0-0.242 0 0.842 0.842 0 0 0-0.231 0.076 0.963 0.963 0 0 0-0.218 0.151 1.124 1.124 0 0 0-0.18 0.213 1.341 1.341 0 0 0-0.142 0.288 1.575 1.575 0 0 0-0.077 0.331c-0.013 0.1-0.022 0.206-0.026 0.309s-6e-3 0.207 0 0.311a3.932 3.932 0 0 0 0.037 0.431c0.019 0.132 0.044 0.264 0.076 0.4l-0.731 0.6a5.668 5.668 0 0 1-0.155-0.656 5.319 5.319 0 0 1-0.077-0.75v-0.379c0-0.126 0.017-0.251 0.033-0.378a2.472 2.472 0 0 1 0.125-0.525 2.173 2.173 0 0 1 0.229-0.462 1.959 1.959 0 0 1 0.327-0.384 1.79 1.79 0 0 1 0.4-0.276 1.7 1.7 0 0 1 0.466-0.154 1.642 1.642 0 0 1 0.485-0.011 1.707 1.707 0 0 1 0.389 0.1 1.886 1.886 0 0 1 0.37 0.19l0.064 0.044 0.065 0.049a1.837 1.837 0 0 1 0.678 1.156 1.93 1.93 0 0 1-0.031 0.749 2.29 2.29 0 0 1-0.321 0.73c-0.021 0.033-0.044 0.065-0.066 0.1s-0.047 0.063-0.074 0.1a8.171 8.171 0 0 1-1.25 1.14l-7e-3 6e-3 -0.21 0.169c-0.07 0.057-0.14 0.113-0.206 0.168l-0.03 0.025 0.018 0.034a13.742 13.742 0 0 0 5.242 5.105v-10.528l-8.226-5.491-8.226 5.491v10.031l-0.026 0.014h-0.012l-0.026 0.014-0.011 6e-3 -0.013 7e-3 -0.01 6e-3 -0.026 0.014h-0.013l-0.026 0.014-0.012 6e-3 -0.013 7e-3h-9e-3l-0.026 0.014h-0.013l-0.052 0.028h-8e-3l-0.013 7e-3 -0.013 6e-3h-9e-3l-0.013 6e-3 -0.012 6e-3 -0.013 7e-3 -0.013 6e-3h-0.013l-0.013 7e-3 -0.013 6e-3h-0.01l-0.013 7e-3 -0.011 5e-3 -0.026 0.012h-0.013l-0.026 0.012h-0.011l-0.013 6e-3h-0.011l-0.026 0.012h-0.013l-0.026 0.012-0.012 5e-3 -0.013 6e-3h-9e-3l-0.026 0.012h-0.013l-0.026 0.012-0.013 5e-3 -0.013 6e-3h-9e-3l-0.026 0.012h-9e-3v-10.774z" fill="#ffffff"/>
    </g>
    <g id="outlet" class="hidden">
        <circle cx="18" cy="18" r="18" fill="#000000"/>
        <path d="m8.603 24.66q0.169-0.058 0.339-0.122l0.182 0.122 8.639 5.767 0.229 0.153 0.229-0.153 8.252-5.509q-0.424-0.2-0.841-0.428l-7.641 5.1-8.158-5.446a13.5 13.5 0 0 0 2.493-1.628 14.411 14.411 0 0 0 3.013-3.337c-0.093-0.085-0.2-0.173-0.3-0.258-0.125-0.1-0.25-0.2-0.362-0.285a13.459 13.459 0 0 1-2.911 3.217 11.475 11.475 0 0 1-3.62 2.051c-0.237 0.075-0.474 0.139-0.707 0.191s-0.454 0.092-0.675 0.119c-0.148 0.019-0.292 0.032-0.431 0.039-0.121 7e-3 -0.238 8e-3 -0.352 7e-3l-0.023 0.86q0.21 0 0.425-6e-3c0.161-8e-3 0.323-0.023 0.485-0.043a7.893 7.893 0 0 0 0.845-0.154c0.292-0.069 0.59-0.156 0.89-0.257m6.708-7.5 0.049 0.04 0.025-0.058a3.69 3.69 0 0 0 0.257-1.39 2.143 2.143 0 0 0-0.277-1.138 1.121 1.121 0 0 0-0.179-0.213 0.973 0.973 0 0 0-0.218-0.151 0.84 0.84 0 0 0-0.231-0.076 0.812 0.812 0 0 0-0.242 0 0.864 0.864 0 0 0-0.2 0.051 1.021 1.021 0 0 0-0.2 0.1l-0.033 0.023-0.034 0.025a0.974 0.974 0 0 0-0.361 0.614 1.065 1.065 0 0 0 0.024 0.433 1.45 1.45 0 0 0 0.2 0.435c0.014 0.021 0.029 0.044 0.045 0.066s0.034 0.046 0.051 0.068a3.8 3.8 0 0 0 0.481 0.481c0.194 0.169 0.415 0.347 0.64 0.527zm-6.182-5.094 8.641-5.768 0.229-0.153 0.229 0.153 8.639 5.767 0.184 0.123v11.389a7.107 7.107 0 0 0 2.963 0.681l0.023 0.86a9.554 9.554 0 0 1-5.24-1.81 14.1 14.1 0 0 1-4.468-4.662l-0.026-0.048-0.045 0.038-0.362 0.3a14.713 14.713 0 0 0-2.483 2.416 2.442 2.442 0 0 0-0.324 0.65 1.713 1.713 0 0 0-0.071 0.658v0.057a0.859 0.859 0 0 0 0.118 0.3 1.069 1.069 0 0 0 0.225 0.257 0.953 0.953 0 0 0 0.291 0.167 0.753 0.753 0 0 0 0.31 0.042h0.05a0.753 0.753 0 0 0 0.31-0.042 0.954 0.954 0 0 0 0.291-0.167 1.074 1.074 0 0 0 0.225-0.258 0.868 0.868 0 0 0 0.118-0.3v-0.026-0.036a1.712 1.712 0 0 0-0.071-0.658 2.448 2.448 0 0 0-0.324-0.65q-0.048-0.07-0.1-0.139c-0.028-0.037-0.055-0.073-0.084-0.109q0.136-0.142 0.29-0.291t0.327-0.307c0.044 0.053 0.086 0.108 0.127 0.162q0.074 0.1 0.142 0.2a3.282 3.282 0 0 1 0.449 0.917 2.547 2.547 0 0 1 0.093 0.951c0 0.017 0 0.038-8e-3 0.063s-8e-3 0.053-0.013 0.079a1.723 1.723 0 0 1-0.221 0.577 1.918 1.918 0 0 1-0.419 0.488 1.823 1.823 0 0 1-0.56 0.32 1.568 1.568 0 0 1-0.6 0.088h-5e-3a1.568 1.568 0 0 1-0.605-0.088 1.822 1.822 0 0 1-0.56-0.319 1.914 1.914 0 0 1-0.419-0.487 1.715 1.715 0 0 1-0.221-0.577c0-0.026-9e-3 -0.053-0.012-0.078 0-0.025-7e-3 -0.047-8e-3 -0.064a2.539 2.539 0 0 1 0.093-0.951 3.286 3.286 0 0 1 0.449-0.917q0.128-0.189 0.289-0.385t0.35-0.4l0.033-0.036-0.036-0.033-0.18-0.163-0.189-0.169c-0.334-0.294-0.63-0.541-0.928-0.789l-7e-3 -5e-3 -0.145-0.121c-0.158-0.14-0.357-0.315-0.539-0.471s-0.356-0.3-0.465-0.375l-0.273-0.22-0.042-0.033a8.25 8.25 0 0 1-1.256-1.145c-0.027-0.034-0.051-0.066-0.073-0.1-0.024-0.034-0.047-0.067-0.068-0.1a2.3 2.3 0 0 1-0.321-0.73 1.927 1.927 0 0 1-0.031-0.749 1.833 1.833 0 0 1 0.678-1.156l0.065-0.049 0.064-0.044a1.907 1.907 0 0 1 0.37-0.19 1.71 1.71 0 0 1 0.389-0.1 1.642 1.642 0 0 1 0.485 0.011 1.7 1.7 0 0 1 0.466 0.154 1.8 1.8 0 0 1 0.4 0.277 1.963 1.963 0 0 1 0.327 0.384 3.028 3.028 0 0 1 0.418 1.649 4.785 4.785 0 0 1-0.422 1.966l-0.016 0.033 0.028 0.024c0.143 0.121 0.294 0.247 0.444 0.372l0.051 0.042 7e-3 6e-3c0.345 0.288 0.687 0.573 0.948 0.8l0.219 0.2 0.208 0.189 0.033 0.03 0.032-0.03 0.208-0.189c0.078-0.071 0.151-0.135 0.219-0.2 0.135-0.119 0.286-0.248 0.445-0.381s0.334-0.28 0.51-0.426l0.494-0.415 0.026-0.022v-6e-3l0.166-0.135 0.191-0.156 0.039-0.033 0.057-0.046 0.534-0.439 0.337-0.277c0.154-0.127 0.3-0.25 0.429-0.369a3.151 3.151 0 0 0 0.325-0.341c0.016-0.02 0.033-0.043 0.051-0.068l0.046-0.067a1.454 1.454 0 0 0 0.2-0.435 1.065 1.065 0 0 0 0.024-0.433 0.976 0.976 0 0 0-0.122-0.34 0.979 0.979 0 0 0-0.239-0.273l-0.031-0.023-0.036-0.025a1.022 1.022 0 0 0-0.2-0.1 0.867 0.867 0 0 0-0.2-0.051 0.811 0.811 0 0 0-0.242 0 0.842 0.842 0 0 0-0.231 0.076 0.963 0.963 0 0 0-0.218 0.151 1.124 1.124 0 0 0-0.18 0.213 1.341 1.341 0 0 0-0.142 0.288 1.575 1.575 0 0 0-0.077 0.331c-0.013 0.1-0.022 0.206-0.026 0.309s-6e-3 0.207 0 0.311a3.932 3.932 0 0 0 0.037 0.431c0.019 0.132 0.044 0.264 0.076 0.4l-0.731 0.6a5.668 5.668 0 0 1-0.155-0.656 5.319 5.319 0 0 1-0.077-0.75v-0.379c0-0.126 0.017-0.251 0.033-0.378a2.472 2.472 0 0 1 0.125-0.525 2.173 2.173 0 0 1 0.229-0.462 1.959 1.959 0 0 1 0.327-0.384 1.79 1.79 0 0 1 0.4-0.276 1.7 1.7 0 0 1 0.466-0.154 1.642 1.642 0 0 1 0.485-0.011 1.707 1.707 0 0 1 0.389 0.1 1.886 1.886 0 0 1 0.37 0.19l0.064 0.044 0.065 0.049a1.837 1.837 0 0 1 0.678 1.156 1.93 1.93 0 0 1-0.031 0.749 2.29 2.29 0 0 1-0.321 0.73c-0.021 0.033-0.044 0.065-0.066 0.1s-0.047 0.063-0.074 0.1a8.171 8.171 0 0 1-1.25 1.14l-7e-3 6e-3 -0.21 0.169c-0.07 0.057-0.14 0.113-0.206 0.168l-0.03 0.025 0.018 0.034a13.742 13.742 0 0 0 5.242 5.105v-10.528l-8.226-5.491-8.226 5.491v10.031l-0.026 0.014h-0.012l-0.026 0.014-0.011 6e-3 -0.013 7e-3 -0.01 6e-3 -0.026 0.014h-0.013l-0.026 0.014-0.012 6e-3 -0.013 7e-3h-9e-3l-0.026 0.014h-0.013l-0.052 0.028h-8e-3l-0.013 7e-3 -0.013 6e-3h-9e-3l-0.013 6e-3 -0.012 6e-3 -0.013 7e-3 -0.013 6e-3h-0.013l-0.013 7e-3 -0.013 6e-3h-0.01l-0.013 7e-3 -0.011 5e-3 -0.026 0.012h-0.013l-0.026 0.012h-0.011l-0.013 6e-3h-0.011l-0.026 0.012h-0.013l-0.026 0.012-0.012 5e-3 -0.013 6e-3h-9e-3l-0.026 0.012h-0.013l-0.026 0.012-0.013 5e-3 -0.013 6e-3h-9e-3l-0.026 0.012h-9e-3v-10.774z" fill="#ffffff"/>
    </g>
    <g id="discount" class="hidden">
        <circle cx="18" cy="18" r="17.5" fill="none" stroke="#000000"/>
        <path d="m8.603 24.66q0.169-0.058 0.339-0.122l0.182 0.122 8.639 5.767 0.229 0.153 0.229-0.153 8.252-5.509q-0.424-0.2-0.841-0.428l-7.641 5.1-8.158-5.446a13.5 13.5 0 0 0 2.493-1.628 14.411 14.411 0 0 0 3.013-3.337c-0.093-0.085-0.2-0.173-0.3-0.258-0.125-0.1-0.25-0.2-0.362-0.285a13.459 13.459 0 0 1-2.911 3.217 11.475 11.475 0 0 1-3.62 2.051c-0.237 0.075-0.474 0.139-0.707 0.191s-0.454 0.092-0.675 0.119c-0.148 0.019-0.292 0.032-0.431 0.039-0.121 7e-3 -0.238 8e-3 -0.352 7e-3l-0.023 0.86q0.21 0 0.425-6e-3c0.161-8e-3 0.323-0.023 0.485-0.043a7.893 7.893 0 0 0 0.845-0.154c0.292-0.069 0.59-0.156 0.89-0.257m6.708-7.5 0.049 0.04 0.025-0.058a3.69 3.69 0 0 0 0.257-1.39 2.143 2.143 0 0 0-0.277-1.138 1.121 1.121 0 0 0-0.179-0.213 0.973 0.973 0 0 0-0.218-0.151 0.84 0.84 0 0 0-0.231-0.076 0.812 0.812 0 0 0-0.242 0 0.864 0.864 0 0 0-0.2 0.051 1.021 1.021 0 0 0-0.2 0.1l-0.033 0.023-0.034 0.025a0.974 0.974 0 0 0-0.361 0.614 1.065 1.065 0 0 0 0.024 0.433 1.45 1.45 0 0 0 0.2 0.435c0.014 0.021 0.029 0.044 0.045 0.066s0.034 0.046 0.051 0.068a3.8 3.8 0 0 0 0.481 0.481c0.194 0.169 0.415 0.347 0.64 0.527zm-6.182-5.094 8.641-5.768 0.229-0.153 0.229 0.153 8.639 5.767 0.184 0.123v11.389a7.107 7.107 0 0 0 2.963 0.681l0.023 0.86a9.554 9.554 0 0 1-5.24-1.81 14.1 14.1 0 0 1-4.468-4.662l-0.026-0.048-0.045 0.038-0.362 0.3a14.713 14.713 0 0 0-2.483 2.416 2.442 2.442 0 0 0-0.324 0.65 1.713 1.713 0 0 0-0.071 0.658v0.057a0.859 0.859 0 0 0 0.118 0.3 1.069 1.069 0 0 0 0.225 0.257 0.953 0.953 0 0 0 0.291 0.167 0.753 0.753 0 0 0 0.31 0.042h0.05a0.753 0.753 0 0 0 0.31-0.042 0.954 0.954 0 0 0 0.291-0.167 1.074 1.074 0 0 0 0.225-0.258 0.868 0.868 0 0 0 0.118-0.3v-0.026-0.036a1.712 1.712 0 0 0-0.071-0.658 2.448 2.448 0 0 0-0.324-0.65q-0.048-0.07-0.1-0.139c-0.028-0.037-0.055-0.073-0.084-0.109q0.136-0.142 0.29-0.291t0.327-0.307c0.044 0.053 0.086 0.108 0.127 0.162q0.074 0.1 0.142 0.2a3.282 3.282 0 0 1 0.449 0.917 2.547 2.547 0 0 1 0.093 0.951c0 0.017 0 0.038-8e-3 0.063s-8e-3 0.053-0.013 0.079a1.723 1.723 0 0 1-0.221 0.577 1.918 1.918 0 0 1-0.419 0.488 1.823 1.823 0 0 1-0.56 0.32 1.568 1.568 0 0 1-0.6 0.088h-5e-3a1.568 1.568 0 0 1-0.605-0.088 1.822 1.822 0 0 1-0.56-0.319 1.914 1.914 0 0 1-0.419-0.487 1.715 1.715 0 0 1-0.221-0.577c0-0.026-9e-3 -0.053-0.012-0.078 0-0.025-7e-3 -0.047-8e-3 -0.064a2.539 2.539 0 0 1 0.093-0.951 3.286 3.286 0 0 1 0.449-0.917q0.128-0.189 0.289-0.385t0.35-0.4l0.033-0.036-0.036-0.033-0.18-0.163-0.189-0.169c-0.334-0.294-0.63-0.541-0.928-0.789l-7e-3 -5e-3 -0.145-0.121c-0.158-0.14-0.357-0.315-0.539-0.471s-0.356-0.3-0.465-0.375l-0.273-0.22-0.042-0.033a8.25 8.25 0 0 1-1.256-1.145c-0.027-0.034-0.051-0.066-0.073-0.1-0.024-0.034-0.047-0.067-0.068-0.1a2.3 2.3 0 0 1-0.321-0.73 1.927 1.927 0 0 1-0.031-0.749 1.833 1.833 0 0 1 0.678-1.156l0.065-0.049 0.064-0.044a1.907 1.907 0 0 1 0.37-0.19 1.71 1.71 0 0 1 0.389-0.1 1.642 1.642 0 0 1 0.485 0.011 1.7 1.7 0 0 1 0.466 0.154 1.8 1.8 0 0 1 0.4 0.277 1.963 1.963 0 0 1 0.327 0.384 3.028 3.028 0 0 1 0.418 1.649 4.785 4.785 0 0 1-0.422 1.966l-0.016 0.033 0.028 0.024c0.143 0.121 0.294 0.247 0.444 0.372l0.051 0.042 7e-3 6e-3c0.345 0.288 0.687 0.573 0.948 0.8l0.219 0.2 0.208 0.189 0.033 0.03 0.032-0.03 0.208-0.189c0.078-0.071 0.151-0.135 0.219-0.2 0.135-0.119 0.286-0.248 0.445-0.381s0.334-0.28 0.51-0.426l0.494-0.415 0.026-0.022v-6e-3l0.166-0.135 0.191-0.156 0.039-0.033 0.057-0.046 0.534-0.439 0.337-0.277c0.154-0.127 0.3-0.25 0.429-0.369a3.151 3.151 0 0 0 0.325-0.341c0.016-0.02 0.033-0.043 0.051-0.068l0.046-0.067a1.454 1.454 0 0 0 0.2-0.435 1.065 1.065 0 0 0 0.024-0.433 0.976 0.976 0 0 0-0.122-0.34 0.979 0.979 0 0 0-0.239-0.273l-0.031-0.023-0.036-0.025a1.022 1.022 0 0 0-0.2-0.1 0.867 0.867 0 0 0-0.2-0.051 0.811 0.811 0 0 0-0.242 0 0.842 0.842 0 0 0-0.231 0.076 0.963 0.963 0 0 0-0.218 0.151 1.124 1.124 0 0 0-0.18 0.213 1.341 1.341 0 0 0-0.142 0.288 1.575 1.575 0 0 0-0.077 0.331c-0.013 0.1-0.022 0.206-0.026 0.309s-6e-3 0.207 0 0.311a3.932 3.932 0 0 0 0.037 0.431c0.019 0.132 0.044 0.264 0.076 0.4l-0.731 0.6a5.668 5.668 0 0 1-0.155-0.656 5.319 5.319 0 0 1-0.077-0.75v-0.379c0-0.126 0.017-0.251 0.033-0.378a2.472 2.472 0 0 1 0.125-0.525 2.173 2.173 0 0 1 0.229-0.462 1.959 1.959 0 0 1 0.327-0.384 1.79 1.79 0 0 1 0.4-0.276 1.7 1.7 0 0 1 0.466-0.154 1.642 1.642 0 0 1 0.485-0.011 1.707 1.707 0 0 1 0.389 0.1 1.886 1.886 0 0 1 0.37 0.19l0.064 0.044 0.065 0.049a1.837 1.837 0 0 1 0.678 1.156 1.93 1.93 0 0 1-0.031 0.749 2.29 2.29 0 0 1-0.321 0.73c-0.021 0.033-0.044 0.065-0.066 0.1s-0.047 0.063-0.074 0.1a8.171 8.171 0 0 1-1.25 1.14l-7e-3 6e-3 -0.21 0.169c-0.07 0.057-0.14 0.113-0.206 0.168l-0.03 0.025 0.018 0.034a13.742 13.742 0 0 0 5.242 5.105v-10.528l-8.226-5.491-8.226 5.491v10.031l-0.026 0.014h-0.012l-0.026 0.014-0.011 6e-3 -0.013 7e-3 -0.01 6e-3 -0.026 0.014h-0.013l-0.026 0.014-0.012 6e-3 -0.013 7e-3h-9e-3l-0.026 0.014h-0.013l-0.052 0.028h-8e-3l-0.013 7e-3 -0.013 6e-3h-9e-3l-0.013 6e-3 -0.012 6e-3 -0.013 7e-3 -0.013 6e-3h-0.013l-0.013 7e-3 -0.013 6e-3h-0.01l-0.013 7e-3 -0.011 5e-3 -0.026 0.012h-0.013l-0.026 0.012h-0.011l-0.013 6e-3h-0.011l-0.026 0.012h-0.013l-0.026 0.012-0.012 5e-3 -0.013 6e-3h-9e-3l-0.026 0.012h-0.013l-0.026 0.012-0.013 5e-3 -0.013 6e-3h-9e-3l-0.026 0.012h-9e-3v-10.774z" fill="#000000"/>
    </g>
</svg>
