<svg width="59" height="14" version="1.1" viewBox="0 0 59 14" xmlns="http://www.w3.org/2000/svg">
 <g transform="translate(.35209 .0045683)" fill="#cbccd4" data-name="Сгруппировать 833">
  <path transform="translate(-1401.3 -627.4)" d="m1405.9 633.92-1.478-2.95c-0.489-0.975-0.977-1.951-1.49-2.974 0.154-0.015 0.245-0.031 0.336-0.031 1.414 0 2.828 0 4.242-6e-3a0.349 0.349 0 0 1 0.383 0.266c0.553 1.431 1.118 2.858 1.679 4.285 0.042 0.106 0.085 0.21 0.143 0.354a1.941 1.941 0 0 0 0.791-0.789 2.393 2.393 0 0 0 0.176-1.817c-0.125-0.44-0.354-0.851-0.518-1.281a0.4 0.4 0 0 1 0.014-0.331 3.483 3.483 0 0 1 0.736-0.729 2.935 2.935 0 0 1 2.26-0.328 2.484 2.484 0 0 1 1.935 2.367 3.941 3.941 0 0 1-1.186 2.917 7.12 7.12 0 0 1-2.926 1.858c-0.115 0.041-0.231 0.08-0.379 0.131l3.21 6.093c-0.132 0.011-0.223 0.024-0.313 0.025-1.493 0-2.986 0-4.479 5e-3a0.371 0.371 0 0 1-0.409-0.27c-0.578-1.44-1.169-2.875-1.757-4.311-0.036-0.089-0.076-0.177-0.125-0.29a2.13 2.13 0 0 0-1 1.841 2.6 2.6 0 0 0 0.456 1.515 0.46 0.46 0 0 1 0.011 0.576 2.651 2.651 0 0 1-2.185 1.322 2.7 2.7 0 0 1-2.608-3.808 5.1 5.1 0 0 1 1.635-2.125 8.031 8.031 0 0 1 2.58-1.391c0.067-0.022 0.134-0.042 0.2-0.066 0.018-8e-3 0.029-0.024 0.066-0.058z" data-name="Контур 6378"/>
  <path transform="translate(-1665.8 -626.7)" d="m1707.3 633.16c0.513-0.069 1.012-0.165 1.514-0.2a4.028 4.028 0 0 1 2.143 0.423 2.644 2.644 0 0 1 1.5 2.309 4.514 4.514 0 0 1-3.917 4.821 4.715 4.715 0 0 1-2.814-0.268 3.991 3.991 0 0 1-2.346-3.216 10.2 10.2 0 0 1 0.605-4.965 9.337 9.337 0 0 1 2.287-3.768 5.22 5.22 0 0 1 3.907-1.6 2.635 2.635 0 0 1 2.55 1.947 2.4 2.4 0 0 1-0.465 2.06 4.429 4.429 0 0 1-2.284 1.574c-0.772 0.249-1.578 0.395-2.371 0.575-0.252 0.063-0.256 0.049-0.309 0.308zm-0.516 3.41c0.036 0.344 0.063 0.675 0.11 1a1.644 1.644 0 0 0 0.129 0.425 0.8 0.8 0 0 0 1.294 0.327 1.3 1.3 0 0 0 0.259-0.26 2.885 2.885 0 0 0 0.581-1.948 1.286 1.286 0 0 0-1.322-1.37 5.851 5.851 0 0 0-0.6 0.054c-0.2 0.012-0.287 0.118-0.3 0.313-0.049 0.49-0.102 0.979-0.151 1.459zm0.983-5.084a4.221 4.221 0 0 0 1.729-1.409 1.488 1.488 0 0 0 0.173-0.464c0.08-0.367-0.146-0.6-0.506-0.5a1.086 1.086 0 0 0-0.506 0.342 5.6 5.6 0 0 0-0.892 2.031z" data-name="Контур 6379"/>
  <path transform="translate(-1736.8 -654.3)" d="m1790.5 666.16c-0.277 0.32-0.508 0.619-0.772 0.886a3.386 3.386 0 0 1-1.881 1.033 2.5 2.5 0 0 1-2.522-1.012 4.629 4.629 0 0 1-0.884-2.334 6.818 6.818 0 0 1 0.875-4.408 3.964 3.964 0 0 1 2.661-2.023 2.64 2.64 0 0 1 3.109 1.425c0.017 0.03 0.038 0.057 0.092 0.134 0.053-0.37 0.111-0.691 0.14-1.015 0.019-0.206 0.111-0.266 0.3-0.265 1.088 5e-3 2.177 9e-3 3.266 0 0.247 0 0.273 0.1 0.242 0.3-0.169 1.092-0.339 2.183-0.5 3.276-0.118 0.815-0.244 1.631-0.316 2.451a5.143 5.143 0 0 0 0.084 1.2 1.022 1.022 0 0 0 0.492 0.717c0.258 0.163 0.278 0.232 0.095 0.477a2.8 2.8 0 0 1-2.014 1.11 2.617 2.617 0 0 1-0.937-0.072 1.963 1.963 0 0 1-1.5-1.656c0-0.062-0.013-0.129-0.03-0.224zm-2.337-2.41-0.064 0.015a8.389 8.389 0 0 0 0.284 1.214 0.919 0.919 0 0 0 1.49 0.4 2.349 2.349 0 0 0 0.6-0.746 4.381 4.381 0 0 0 0.445-2.423 2.858 2.858 0 0 0-0.222-0.91 0.931 0.931 0 0 0-1.54-0.333 2.768 2.768 0 0 0-0.6 0.845 4.539 4.539 0 0 0-0.393 1.939z" data-name="Контур 6380"/>
  <path transform="translate(-1502 -654.31)" d="m1522.4 666.14c-0.165 0.209-0.308 0.4-0.466 0.587a3.664 3.664 0 0 1-2.191 1.353 2.477 2.477 0 0 1-2.453-0.939 4.573 4.573 0 0 1-0.953-2.5 6.736 6.736 0 0 1 1.09-4.638 3.839 3.839 0 0 1 2.441-1.7 2.646 2.646 0 0 1 3.131 1.432c0.019 0.034 0.043 0.065 0.09 0.134 0.049-0.375 0.1-0.7 0.132-1.029 0.019-0.179 0.093-0.262 0.285-0.261q1.659 9e-3 3.318 0c0.181 0 0.247 0.044 0.216 0.245q-0.374 2.444-0.728 4.891a5.731 5.731 0 0 0-0.031 2.016 1.175 1.175 0 0 0 0.515 0.793c0.269 0.173 0.285 0.231 0.085 0.5a2.866 2.866 0 0 1-1.866 1.084 2.129 2.129 0 0 1-2.514-1.485c-0.039-0.149-0.063-0.303-0.101-0.483zm-2.4-2.356a8.509 8.509 0 0 0 0.281 1.19 0.922 0.922 0 0 0 1.489 0.407 2.413 2.413 0 0 0 0.6-0.744 4.041 4.041 0 0 0 0.458-2.134 3.683 3.683 0 0 0-0.257-1.244 0.9 0.9 0 0 0-1.447-0.346 2.368 2.368 0 0 0-0.588 0.725 5.706 5.706 0 0 0-0.531 2.146z" data-name="Контур 6381"/>
  <path transform="translate(-1581.8 -655.06)" d="m1614.7 661.2h-1.432c-0.041 0.5-0.071 1-0.123 1.489a16.342 16.342 0 0 1-0.854 4.161 4.772 4.772 0 0 1-0.693 1.229 2.465 2.465 0 0 1-2.589 0.893 2.075 2.075 0 0 1-1.548-1.8 0.457 0.457 0 0 1 0.141-0.34 7.2 7.2 0 0 0 2.526-4.68c0.15-0.774 0.267-1.555 0.38-2.335a0.367 0.367 0 0 1 0.344-0.368 18.021 18.021 0 0 1 5.787-0.24c0.582 0.074 1.16 0.182 1.741 0.265 0.162 0.023 0.2 0.095 0.182 0.247q-0.385 3.041-0.763 6.082c-0.108 0.862-0.219 1.723-0.315 2.586-0.021 0.189-0.085 0.253-0.274 0.251q-1.58-0.011-3.16 0c-0.2 0-0.26-0.064-0.234-0.263 0.14-1.078 0.271-2.158 0.4-3.237 0.163-1.304 0.321-2.609 0.484-3.94z" data-name="Контур 6382"/>
 </g>
</svg>
