<svg width="39" height="14" data-name="Сгруппировать 831" version="1.1" viewBox="0 0 39 14" xmlns="http://www.w3.org/2000/svg">
 <g transform="translate(.283 .42799)" fill="#cbccd4">
  <path transform="translate(-552.37 -631.48)" d="m579.28 644.42c0.487-1.018 0.9-1.89 1.318-2.757 1.535-3.157 3.079-6.31 4.6-9.473a0.751 0.751 0 0 1 0.789-0.524c1.09 0.029 2.182 0.01 3.313 0.01 0.5 4.243 0.994 8.424 1.5 12.745h-2.062c-1.381 0-1.384 0-1.507-1.392-0.034-0.391-0.063-0.784-0.063-1.176 0-0.412-0.148-0.6-0.59-0.57a7.644 7.644 0 0 1-1.486 0 1.047 1.047 0 0 0-1.262 0.854c-0.214 0.622-0.538 1.205-0.8 1.813a0.7 0.7 0 0 1-0.76 0.484c-0.935-0.032-1.882-0.014-2.99-0.014zm7.671-5.873-0.253-2.624-0.133-0.023-1.212 2.647z" data-name="Контур 6362"/>
  <path transform="translate(-362.54 -631.48)" d="m364.85 634.17 2.191 1.331 0.085-0.107-4.586-3.666h5.534l0.775 8.06c0.22-0.443 0.371-0.734 0.51-1.031 1.026-2.188 2.06-4.372 3.063-6.571a0.777 0.777 0 0 1 0.856-0.511c0.984 0.027 1.969 9e-3 3.064 9e-3 -0.333 0.673-0.605 1.243-0.894 1.8-1.779 3.453-3.568 6.9-5.334 10.359a0.9 0.9 0 0 1-0.955 0.592c-0.8-0.04-1.614 0.01-2.419-0.029-0.181-9e-3 -0.487-0.208-0.508-0.353-0.474-3.242-0.916-6.493-1.382-9.883z" data-name="Контур 6363"/>
  <path transform="translate(-490.88 -630.11)" d="m518.95 630.88-1.017 2.707c-0.872-0.186-1.645-0.369-2.427-0.505a1.163 1.163 0 0 0-0.725 0.1c-0.283 0.162-0.64 0.4-0.71 0.669-0.057 0.222 0.2 0.611 0.425 0.8a10.411 10.411 0 0 0 1.4 0.917c1.455 0.862 2.431 1.985 2.171 3.821a4.112 4.112 0 0 1-3.136 3.534 7.279 7.279 0 0 1-5.21-0.327c-0.732-0.32-0.751-0.382-0.464-1.1 0.273-0.687 0.557-1.369 0.776-1.906 1.04 0.258 1.982 0.554 2.947 0.7a2.126 2.126 0 0 0 1.273-0.328 0.739 0.739 0 0 0 0.1-1.292 8.87 8.87 0 0 0-1.228-0.831 4.625 4.625 0 0 1-2.425-2.543 3.793 3.793 0 0 1 1.616-4.226 6.767 6.767 0 0 1 6.634-0.19z" data-name="Контур 6364"/>
  <path transform="translate(-454.69 -631.43)" d="m473.47 631.63c-0.3 1.6-0.574 3.076-0.853 4.554-0.486 2.576-0.97 5.152-1.475 7.724-0.034 0.171-0.235 0.435-0.366 0.44-0.965 0.038-1.933 0.02-3.017 0.02 0.1-0.549 0.2-1.022 0.285-1.494 0.667-3.529 1.342-7.056 1.992-10.589 0.09-0.49 0.258-0.7 0.794-0.669 0.839 0.051 1.684 0.014 2.64 0.014z" data-name="Контур 6365"/>
 </g>
</svg>
