<svg width="72" height="14" data-name="Сгруппировать 832" version="1.1" viewBox="0 0 72 14" xmlns="http://www.w3.org/2000/svg">
 <g transform="translate(.1455 .522)" fill="#cbccd4">
  <path transform="translate(-762.35 -631.62)" d="m775.29 637.18a6.278 6.278 0 0 0-3.455-4.859 6.873 6.873 0 0 0-2.185-0.7h-1.694a7.186 7.186 0 0 0-1.906 0.605 6.467 6.467 0 0 0-3.651 5.038c-0.012 0.076-0.033 0.152-0.05 0.227v1.284c0.06 0.286 0.105 0.575 0.182 0.856a6.414 6.414 0 0 0 5.056 4.877 0.876 0.876 0 0 1 0.21 0.036h0.092c0.088 0 0.176 0.014 0.264 0.025h1.616c0.06-0.011 0.124-0.026 0.2-0.04 0.024 0 0.047-7e-3 0.071-9e-3 0.054-0.015 0.108-0.029 0.163-0.04a6.154 6.154 0 0 0 2.925-1.457 6.3 6.3 0 0 0 2.162-5.843z" data-name="Контур 6366"/>
  <path transform="translate(-1237 -649.88)" d="m1308.7 658.56h-0.868c-0.012-0.139-0.023-0.269-0.039-0.444a1.83 1.83 0 0 1-1.739 0.533 2.037 2.037 0 0 1-1.26-0.744 2.469 2.469 0 0 1 0.09-3.11 2.085 2.085 0 0 1 2.931-0.123v-0.534c0-0.459 0.013-0.919-0.01-1.378-0.01-0.236 0.073-0.3 0.3-0.284 0.2 0.017 0.4 0 0.594 0zm-3.433-2.151a1.307 1.307 0 1 0 1.3-1.394 1.31 1.31 0 0 0-1.3 1.393z" data-name="Контур 6367"/>
  <path transform="translate(-933.95 -661.5)" d="m965.14 670.18h-0.952c0-0.1-0.012-0.193-0.013-0.285v-2.068c0-0.095 0-0.19-0.011-0.285a0.87 0.87 0 0 0-0.854-0.9 0.972 0.972 0 0 0-1.084 0.785 2.4 2.4 0 0 0-0.044 0.495v2.251h-0.965v-0.3q0-1.046 0-2.091c0-0.087-5e-3 -0.174-0.014-0.261a0.868 0.868 0 0 0-0.828-0.879 0.961 0.961 0 0 0-1.081 0.724 2.43 2.43 0 0 0-0.065 0.587c-7e-3 0.735 0 1.471 0 2.223h-0.933v-4.3h0.912l0.029 0.47a1.55 1.55 0 0 1 1.4-0.594 1.335 1.335 0 0 0 2.387 0.027 1.672 1.672 0 0 1 2.127 1.7c-9e-3 0.884-0.011 1.778-0.011 2.701z" data-name="Контур 6368"/>
  <path transform="translate(-1175.4 -661.57)" d="m1237.5 666.37c0.01-0.163 0.016-0.293 0.023-0.437h0.924v4.312h-0.918c-0.01-0.133-0.021-0.262-0.035-0.441a1.854 1.854 0 0 1-1.833 0.517 2.011 2.011 0 0 1-1.227-0.8 2.457 2.457 0 0 1 0.223-3.121 2.061 2.061 0 0 1 2.843-0.03zm0.068 1.741a1.308 1.308 0 1 0-1.305 1.371 1.317 1.317 0 0 0 1.305-1.371z" data-name="Контур 6369"/>
  <path transform="translate(-988.05 -661.59)" d="m1023.6 666.38 0.038-0.43h0.9v4.312h-0.909l-0.03-0.448a1.859 1.859 0 0 1-1.852 0.523 2.02 2.02 0 0 1-1.223-0.806 2.459 2.459 0 0 1 0.207-3.087 2.07 2.07 0 0 1 2.869-0.064zm-1.253 0.342a1.394 1.394 0 0 0 0.049 2.781 1.394 1.394 0 0 0-0.049-2.781z" data-name="Контур 6370"/>
  <path transform="translate(-1086.9 -661.43)" d="m1136.9 669.62a2.312 2.312 0 0 1-0.955 0.51 2.774 2.774 0 0 1-1.57-8e-3 1.962 1.962 0 0 1-1.4-1.562 2.349 2.349 0 0 1 0.628-2.344 2.059 2.059 0 0 1 2.107-0.445 1.891 1.891 0 0 1 1.332 1.535 8.636 8.636 0 0 1 0.1 0.992h-3.242a1.1 1.1 0 0 0 0.479 0.853c0.5 0.348 1.182 0.278 2.062-0.216zm-2.978-2.085h2.177a1.026 1.026 0 0 0-1.037-1.01 1.071 1.071 0 0 0-1.143 1.011z" data-name="Контур 6371"/>
  <path transform="translate(-1026.1 -661.48)" d="m1063.5 669.72 0.431-0.716c0.066 0.032 0.122 0.054 0.173 0.086a2.483 2.483 0 0 0 1.716 0.309 0.861 0.861 0 0 0 0.248-0.078 0.435 0.435 0 0 0 0.3-0.417 0.364 0.364 0 0 0-0.323-0.335c-0.362-0.082-0.731-0.132-1.094-0.211a2.843 2.843 0 0 1-0.563-0.177 1.093 1.093 0 0 1-0.71-0.96 1.218 1.218 0 0 1 0.584-1.194 2.621 2.621 0 0 1 1.772-0.267 2.567 2.567 0 0 1 1.212 0.426l-0.367 0.69c-0.447-0.1-0.856-0.22-1.272-0.284a1.546 1.546 0 0 0-0.605 0.071 0.409 0.409 0 0 0-0.326 0.417c0 0.228 0.175 0.311 0.359 0.349 0.318 0.065 0.641 0.1 0.958 0.168a3.111 3.111 0 0 1 0.634 0.19 1.2 1.2 0 0 1 0.207 2.107 2.191 2.191 0 0 1-1.18 0.386 3.278 3.278 0 0 1-1.943-0.414c-0.07-0.042-0.131-0.09-0.211-0.146z" data-name="Контур 6372"/>
  <path transform="translate(-1057.7 -652.94)" d="m1102.9 660.62c0.08 0.234 0.165 0.455 0.226 0.682a0.211 0.211 0 0 1-0.092 0.178 2.112 2.112 0 0 1-1.9 0.086 1.043 1.043 0 0 1-0.6-0.91c-0.046-0.567-0.042-1.138-0.057-1.708a4.741 4.741 0 0 1 0-0.546c0.019-0.206-0.069-0.265-0.259-0.247-0.141 0.013-0.285 0-0.427 5e-3s-0.189-0.036-0.185-0.175c0.01-0.22 0-0.441 0-0.686h0.865v-0.889c0-0.447 0-0.447 0.457-0.446h0.5v1.319h1.552c0 0.268 0.01 0.511-0.01 0.752 0 0.045-0.114 0.117-0.176 0.119-0.38 0.011-0.761 0.012-1.141 0-0.177 0-0.232 0.054-0.229 0.232 0.01 0.562 0 1.125 0 1.688 0 0.621 0.282 0.851 0.891 0.728a5.582 5.582 0 0 0 0.583-0.182z" data-name="Контур 6373"/>
  <path transform="translate(-1144.8 -661.5)" d="m1202.4 667c-1.037-0.505-1.678-0.471-2.143 0.1a1.561 1.561 0 0 0-0.014 1.82c0.44 0.569 1.093 0.608 2.158 0.114 0.13 0.218 0.271 0.435 0.387 0.665 0.02 0.039-0.045 0.155-0.1 0.193a2.44 2.44 0 0 1-2.114 0.313 2.288 2.288 0 0 1 0.728-4.473 2.371 2.371 0 0 1 1.371 0.39c0.127 0.087 0.173 0.162 0.076 0.3-0.123 0.184-0.229 0.378-0.349 0.578z" data-name="Контур 6374"/>
  <path transform="translate(-1123.6 -661.52)" d="m1174.8 665.88h0.9c0.01 0.135 0.018 0.264 0.031 0.458a1.5 1.5 0 0 1 1.8-0.459l-0.278 0.861a6.021 6.021 0 0 0-0.656-0.063 0.778 0.778 0 0 0-0.81 0.661 2.446 2.446 0 0 0-0.05 0.518v2.092c0 0.078-0.01 0.155-0.011 0.249h-0.922z" data-name="Контур 6375"/>
  <path transform="translate(-1215.8 -661.51)" d="m1282.6 666.74c-0.167-0.03-0.3-0.065-0.431-0.077a0.874 0.874 0 0 0-1.07 0.933c-0.019 0.752-0.01 1.5-0.01 2.257v0.323h-0.934v-4.3h0.9c0.013 0.135 0.026 0.264 0.044 0.442a1.432 1.432 0 0 1 1.582-0.517c0.167 0.037 0.21 0.1 0.15 0.258-0.087 0.219-0.154 0.446-0.232 0.681z" data-name="Контур 6376"/>
  <path transform="translate(-819.28 -631.62)" d="m840.29 637.18a6.277 6.277 0 0 0-3.455-4.859 6.808 6.808 0 0 0-2.1-0.687 0.877 0.877 0 0 1-0.156-7e-3l-0.07-7e-3h-1.333c-0.091 0-0.181 0.011-0.272 0.012a7.09 7.09 0 0 0-1.85 0.594 6.467 6.467 0 0 0-3.651 5.038c-0.012 0.076-0.033 0.151-0.05 0.227v1.284c0.06 0.286 0.105 0.575 0.182 0.856a6.418 6.418 0 0 0 5.087 4.884l0.057 0.015c0.117 0.01 0.234 0.026 0.349 0.046h1.761l0.056-0.01 0.125-0.018 0.023-7e-3a1.086 1.086 0 0 1 0.188-0.049l0.028-6e-3a6.153 6.153 0 0 0 2.925-1.457 6.3 6.3 0 0 0 2.156-5.849z" data-name="Контур 6377"/>
 </g>
</svg>
