<svg xmlns="http://www.w3.org/2000/svg" width="36" height="37" viewBox="0 0 36 37">
  <g id="Сгруппировать_369" data-name="Сгруппировать 369" transform="translate(-0.455 0.446)">
    <ellipse id="Эллипс_29" data-name="Эллипс 29" cx="18" cy="18.5" rx="18" ry="18.5" transform="translate(0.455 -0.446)"/>
    <path id="Контур_6087" data-name="Контур 6087" d="M712.3,678.362h0q.169-.058.339-.122l.182.122,8.639,5.767.229.153.229-.153,8.252-5.509q-.424-.2-.841-.428l-7.641,5.1-8.158-5.446a13.5,13.5,0,0,0,2.493-1.628,14.411,14.411,0,0,0,3.013-3.337c-.093-.085-.2-.173-.3-.258h0c-.125-.1-.25-.2-.362-.285a13.459,13.459,0,0,1-2.911,3.217,11.475,11.475,0,0,1-3.62,2.051h0c-.237.075-.474.139-.707.191s-.454.092-.675.119h0c-.148.019-.292.032-.431.039-.121.007-.238.008-.352.007l-.023.86q.21,0,.425-.006c.161-.008.323-.023.485-.043h0a7.893,7.893,0,0,0,.845-.154c.292-.069.59-.156.89-.257m6.708-7.5.049.04.025-.058a3.69,3.69,0,0,0,.257-1.39,2.143,2.143,0,0,0-.277-1.138,1.121,1.121,0,0,0-.179-.213h0a.973.973,0,0,0-.218-.151.84.84,0,0,0-.231-.076.812.812,0,0,0-.242,0,.864.864,0,0,0-.2.051,1.021,1.021,0,0,0-.2.1h0l-.033.023h0l-.034.025a.974.974,0,0,0-.361.614h0a1.065,1.065,0,0,0,.024.433,1.45,1.45,0,0,0,.2.435h0c.014.021.029.044.045.066s.034.046.051.068h0a3.8,3.8,0,0,0,.481.481c.194.169.415.347.64.527Zm-6.182-5.094L721.467,660l.229-.153.229.153,8.639,5.767.184.123v11.389a7.107,7.107,0,0,0,2.963.681l.023.86a9.554,9.554,0,0,1-5.24-1.81,14.1,14.1,0,0,1-4.468-4.662L724,672.3l-.045.038-.362.3a14.713,14.713,0,0,0-2.483,2.416,2.442,2.442,0,0,0-.324.65,1.713,1.713,0,0,0-.071.658h0l0,.036v0l0,.021v0a.859.859,0,0,0,.118.3,1.069,1.069,0,0,0,.225.257.953.953,0,0,0,.291.167.753.753,0,0,0,.31.042h0l.02,0h.006l.019,0h.005a.753.753,0,0,0,.31-.042.954.954,0,0,0,.291-.167h0a1.074,1.074,0,0,0,.225-.258.868.868,0,0,0,.118-.3h0c0-.005,0-.014,0-.026h0l0-.036h0a1.712,1.712,0,0,0-.071-.658,2.448,2.448,0,0,0-.324-.65q-.048-.07-.1-.139c-.028-.037-.055-.073-.084-.109q.136-.142.29-.291t.327-.307c.044.053.086.108.127.162h0q.074.1.142.2h0a3.282,3.282,0,0,1,.449.917,2.547,2.547,0,0,1,.093.951h0c0,.017,0,.038-.008.063s-.008.053-.013.079a1.723,1.723,0,0,1-.221.577,1.918,1.918,0,0,1-.419.488h0a1.823,1.823,0,0,1-.56.32,1.568,1.568,0,0,1-.6.088h-.005a1.568,1.568,0,0,1-.605-.088,1.822,1.822,0,0,1-.56-.319h0a1.914,1.914,0,0,1-.419-.487,1.715,1.715,0,0,1-.221-.577c0-.026-.009-.053-.012-.078h0c0-.025-.007-.047-.008-.064h0a2.539,2.539,0,0,1,.093-.951,3.286,3.286,0,0,1,.449-.917q.128-.189.289-.385t.35-.4l.033-.036-.036-.033-.18-.163h0l-.189-.169c-.334-.294-.63-.541-.928-.789l-.007-.005h0l-.145-.121c-.158-.14-.357-.315-.539-.471s-.356-.3-.465-.375l-.273-.22-.042-.033h0l0,0h0a8.25,8.25,0,0,1-1.256-1.145c-.027-.034-.051-.066-.073-.1h0c-.024-.034-.047-.067-.068-.1h0a2.3,2.3,0,0,1-.321-.73,1.927,1.927,0,0,1-.031-.749h0a1.833,1.833,0,0,1,.678-1.156h0l.065-.049h0l.064-.044h0a1.907,1.907,0,0,1,.37-.19,1.71,1.71,0,0,1,.389-.1h0a1.642,1.642,0,0,1,.485.011,1.7,1.7,0,0,1,.466.154,1.8,1.8,0,0,1,.4.277,1.963,1.963,0,0,1,.327.384,3.028,3.028,0,0,1,.418,1.649,4.785,4.785,0,0,1-.422,1.966l-.016.033.028.024c.143.121.294.247.444.372l.051.042.007.006c.345.288.687.573.948.8l.219.2.208.189.033.03.032-.03.208-.189h0c.078-.071.151-.135.219-.2h0c.135-.119.286-.248.445-.381s.334-.28.51-.426h0l.494-.415.026-.022,0-.006.166-.135.191-.156h0l.039-.033h0l.057-.046.534-.439.337-.277c.154-.127.3-.25.429-.369a3.151,3.151,0,0,0,.325-.341c.016-.02.033-.043.051-.068l.046-.067h0a1.454,1.454,0,0,0,.2-.435h0a1.065,1.065,0,0,0,.024-.433.976.976,0,0,0-.122-.34h0a.979.979,0,0,0-.239-.273h0l-.031-.023h0l-.036-.025h0a1.022,1.022,0,0,0-.2-.1.867.867,0,0,0-.2-.051.811.811,0,0,0-.242,0,.842.842,0,0,0-.231.076.963.963,0,0,0-.218.151,1.124,1.124,0,0,0-.18.213h0a1.341,1.341,0,0,0-.142.288,1.575,1.575,0,0,0-.077.331h0c-.013.1-.022.206-.026.309s-.006.207,0,.311h0v0h0a3.932,3.932,0,0,0,.037.431c.019.132.044.264.076.4l-.731.6a5.668,5.668,0,0,1-.155-.656,5.319,5.319,0,0,1-.077-.75c0-.126,0-.253,0-.379s.017-.251.033-.378h0a2.472,2.472,0,0,1,.125-.525,2.173,2.173,0,0,1,.229-.462,1.959,1.959,0,0,1,.327-.384,1.79,1.79,0,0,1,.4-.276,1.7,1.7,0,0,1,.466-.154,1.642,1.642,0,0,1,.485-.011h0a1.707,1.707,0,0,1,.389.1,1.886,1.886,0,0,1,.37.19h0l.064.044h0l.065.049a1.837,1.837,0,0,1,.678,1.156,1.93,1.93,0,0,1-.031.749,2.29,2.29,0,0,1-.321.73h0c-.021.033-.044.065-.066.1s-.047.063-.074.1a8.171,8.171,0,0,1-1.25,1.14l-.007.006-.21.169c-.07.057-.14.113-.206.168l-.03.025.018.034a13.742,13.742,0,0,0,5.242,5.105V666.332l-8.226-5.491-8.226,5.491v10.031l-.013.007-.013.007-.006,0-.006,0-.013.007-.013.007h0l-.011.006-.013.007-.01.006h0l-.013.007-.013.007-.006,0-.007,0-.013.007-.013.007h0l-.012.006-.013.007-.009,0,0,0-.013.007-.013.007-.005,0-.008,0-.013.007-.013.007h0l-.013.007-.013.007-.008,0,0,0-.013.007-.013.006,0,0-.009,0-.013.006-.012.006h0l-.013.007-.013.006-.008,0-.005,0-.013.007-.013.006,0,0-.01,0-.013.007-.011.005h0l-.013.006-.013.006-.007,0-.006,0-.013.006-.013.006h0l-.011,0-.013.006-.011,0h0l-.013.006-.013.006-.006,0-.007,0-.013.006-.013.006h0l-.012.005-.013.006-.009,0,0,0-.013.006-.013.006-.005,0-.008,0-.013.006-.013.006h0l-.013.005-.013.006-.009,0,0,0-.013.006-.013.006,0,0-.009,0V665.894Z" transform="translate(-703.242 -654.148)" fill="#fff"/>
  </g>
</svg>
