<svg width="112" height="43" version="1.1" viewBox="0 0 112 43" xmlns="http://www.w3.org/2000/svg">
 <g fill-rule="evenodd" stroke-width=".99637">
  <path d="m3.8532 12.399c-0.18801 0.47749-0.59003 1.083-0.85104 1.5754l-2.2711 4.077c-0.26001 0.45962-0.45702 0.60257-0.23801 0.81203 0.14901 0.14494 1.7001 0.30476 2.0001-0.086366l0.71703-1.3521c0.52102-1.0136 2.1911-4.1177 2.3971-4.7362h1.1761a60.76 60.314 0 0 0 0.077004 6.1816 2.8721 2.851 0 0 0 1.5781 0.03971c0.22001-0.18067 0.089004-13.186 0.089004-13.953 0-3.534 0.48402-2.9235-1.8481-2.9235-1.8161 0-2.5141 0.015883-3.7652 0.92719a5.0662 5.029 0 0 0-1.7511 3.0148c-0.50002 2.2763 0.012 4.7064 1.9701 5.985a4.5222 4.489 0 0 1 0.72003 0.43778zm2.9301-1.1724v-7.76c-1.6681 0-2.1151-0.051621-3.0001 0.90336-1.123 1.2081-1.2821 4.5049-0.014001 5.9364 0.79104 0.8984 1.4761 0.92024 3.0141 0.92024z" fill="#ee1c25"/>
  <path d="m20.532 7.7104a18.495 18.359 0 0 0-0.081 2.7696 16.379 16.259 0 0 1-1.5831 7.0393l-0.65303 0.04467-0.021 3.5042a2.9451 2.9235 0 0 0 1.3121 0.04964c0.50002-0.15288 0.27801-1.2141 0.27801-2.1353 0.66003-0.09133 3.8912-0.03971 4.8572-0.02978v2.1353a3.3091 3.2849 0 0 0 1.1 0.06055c0.45902 0 0.47902-0.07644 0.47902-0.51521l-0.021-3.0585c-0.40802-0.09927-0.46802 0.03971-0.78404-0.18663-0.31201-0.64228 0.106-8.1571-0.1-9.7096a29.919 29.7 0 0 0-4.7762 0.031767zm-0.18301 9.802 3.2211 6e-3 0.026-8.4449-1.4541-0.011912a20.965 20.811 0 0 1-1 6.6928c-0.20301 0.52713-0.67503 1.357-0.79304 1.7581z"/>
  <path d="m33.605 18.403-0.20801-1.0145c-0.83104-0.03475-2.3261 0.71673-3.4322-0.39708a4.4202 4.3878 0 0 1-0.95004-3.3941 43.931 43.609 0 0 0 4.7002 0.07842c0-2.4242-0.21101-5.0956-1.9171-6.0267a2.5411 2.5225 0 0 0-3.0071 0.49635c-1.8921 1.8583-2.2391 7.0601-0.75603 9.4198a3.8322 3.804 0 0 0 5.5712 0.83884zm-4.5332-6.0694 2.8271-0.08041c0.021-1.1486-0.17001-3.6174-1.4341-3.4745-1.086 0.12806-1.3311 2.3765-1.3931 3.5499z"/>
  <path d="m10.849 8.0439v10.455c0 0.56088 0 0.45367 1.3331 0.45367 0.37702 0 0.37702 0.03872 0.42402-0.28491 0.036-0.24917-0.06-4.2766 0.011-5.1194l2.5701-0.0069c0.14201 1.218-0.059 3.8219 0.014 5.0469 0.029 0.48444 0.109 0.36432 1.3661 0.36432 0.32601 0 0.38702-0.04368 0.38702-0.37425v-10.535c0-0.39708 0.16201-0.47948-1.3441-0.40602l-0.35002 0.033752a38.311 38.03 0 0 0-0.05 4.4146h-2.6081v-4.4205l-1.2951-0.024818c-0.43702-0.00397-0.45802-0.023825-0.45802 0.40304z"/>
  <path d="m35.559 8.0439v10.532c0 0.50529 0.1 0.37425 1.5001 0.37425 0.30801 0 0.24001-0.14791 0.24301-0.44374 0.025-1.6975-0.067-3.6442 0-5.3209 0.24701 0.18961 2.2371 4.3967 2.6611 5.2762 0.33001 0.68695 0.75003 0.48841 2.2001 0.48841 0.022-0.31766-2.5121-5.0628-2.8601-5.6892-0.40002-0.72964-0.16501-0.72467 0.21601-1.4275 0.38802-0.71872 2.2001-3.8408 2.2321-4.1773-2.0661-0.14493-1.9141 0.063533-2.3461 0.97484a34.633 34.378 0 0 1-2.0931 4.078l-0.019-5.0271a6.9223 6.8715 0 0 0-1.3491-0.043679c-0.42602 0-0.38302-0.00596-0.38502 0.40602z"/>
  <path d="m48.862 18.424a2.1411 2.1254 0 0 0-0.23701-1.0413c-0.72803 0.04666-2.4331 0.7078-3.3391-0.55989-1.2001-1.6876-1.1-5.2703-0.16001-7.1078 0.99404-1.9378 2.2571-0.32759 2.7001-0.21939a2.9571 2.9354 0 0 0 0.81804-1.4771c-1.5921-0.65419-3.0511-1.2975-4.6002 0.544-1.9251 2.2832-2.0591 7.9416 0.034 9.7771a3.8292 3.8011 0 0 0 4.7842 0.08438z"/>
 </g>
 <path d="m55.006 1.4053e-5h50.492q3.2542 5.9076 6.5053 11.813l-6.4863 12.879h-51.247v-24.693zm49.624 1.4632h-48.89v21.766h48.872l5.7303-11.382-5.7163-10.384z" fill="#efe00b" stroke-width=".99637"/>
 <path d="m62.66 15.232v-7.9913h1.6001l1.9001 5.6584c0.17701 0.52713 0.30001 0.92222 0.38402 1.1833q0.13901-0.4348 0.43102-1.2816l1.9391-5.5591h1.4261v7.9913h-1.024v-6.6859l-2.3491 6.6859h-0.96004l-2.3231-6.808v6.807zm13.201-0.72467a3.7002 3.673 0 0 1-1.061 0.65717 3.0511 3.0287 0 0 1-1.092 0.19258 2.1221 2.1065 0 0 1-1.4781-0.46558 1.5391 1.5278 0 0 1-0.51702-1.1912 1.6001 1.5883 0 0 1 0.19501-0.7753 1.6201 1.6082 0 0 1 0.51102-0.56088 2.4431 2.4252 0 0 1 0.71303-0.32263 7.6833 7.627 0 0 1 0.88104-0.14593 9.0234 8.9572 0 0 0 1.7651-0.33752c0-0.13402 5e-3 -0.21939 5e-3 -0.25512a1.087 1.0791 0 0 0-0.28101-0.84281 1.6671 1.6548 0 0 0-1.129-0.33057 1.7441 1.7313 0 0 0-1.032 0.2442 1.4891 1.4781 0 0 0-0.49302 0.86167l-0.96604-0.13402a2.3871 2.3696 0 0 1 0.43402-0.9927 1.9191 1.905 0 0 1 0.87604-0.58371 3.9142 3.8854 0 0 1 1.3271-0.2045 3.5002 3.4745 0 0 1 1.2181 0.17472 1.3881 1.3779 0 0 1 1 1.1079 5.8063 5.7636 0 0 1 0.049 0.90237v1.3024a14.363 14.257 0 0 0 0.061 1.7283 2.2561 2.2395 0 0 0 0.24201 0.69489h-1.035a2.2191 2.2028 0 0 1-0.19101-0.72368zm-0.079-2.176a7.2463 7.1931 0 0 1-1.6191 0.36829 3.7802 3.7524 0 0 0-0.86604 0.19854 0.86904 0.86266 0 0 0-0.38902 0.31767 0.86204 0.85571 0 0 0 0.16101 1.1138 1.3061 1.2965 0 0 0 0.87804 0.26009 2.0411 2.0261 0 0 0 1.017-0.24818 1.5301 1.5188 0 0 0 0.65403-0.67305 2.3501 2.3329 0 0 0 0.16001-0.97682zm2.5201 5.1233v-8.0141h0.90004v0.76041a2.2181 2.2018 0 0 1 0.71903-0.66313 1.9841 1.9695 0 0 1 0.97104-0.22038 2.3001 2.2832 0 0 1 1.3171 0.38021 2.3591 2.3418 0 0 1 0.86304 1.0731 3.9662 3.9371 0 0 1 0.29101 1.5228 3.9052 3.8765 0 0 1-0.32102 1.5963 2.4431 2.4252 0 0 1-2.2201 1.4662 1.8621 1.8484 0 0 1-0.88604-0.20648 2.0161 2.0013 0 0 1-0.64403-0.52018v2.8252zm0.90004-5.0817a2.5401 2.5215 0 0 0 0.45302 1.6459 1.4001 1.3898 0 0 0 1.1 0.53408 1.4241 1.4136 0 0 0 1.125-0.55294 2.6371 2.6178 0 0 0 0.46802-1.7104 2.5731 2.5542 0 0 0-0.45702-1.6529 1.3761 1.366 0 0 0-1.094-0.54897 1.4191 1.4086 0 0 0-1.112 0.58371 2.6341 2.6148 0 0 0-0.48002 1.7015zm5.3432-2.9324h0.99004v2.4996a0.95504 0.94803 0 0 0 0.66303-0.17968 3.9712 3.942 0 0 0 0.55802-1.0463 4.3572 4.3252 0 0 1 0.47302-0.90435 0.90004 0.89343 0 0 1 0.41702-0.29781 2.7671 2.7468 0 0 1 0.75903-0.075445h0.20001v0.80905l-0.27601-6e-3a0.73603 0.73063 0 0 0-0.50002 0.11515 2.9281 2.9066 0 0 0-0.35202 0.71475 2.9821 2.9602 0 0 1-0.41202 0.78722 1.6871 1.6747 0 0 1-0.57802 0.39708 2.4001 2.3825 0 0 1 1.2571 1.1793l1.087 1.7988h-1.0871l-1.07-1.7869a2.5001 2.4818 0 0 0-0.56302-0.71673 0.95404 0.94704 0 0 0-0.57403-0.17273v2.6803h-0.99004zm9.0374 3.9172 1.024 0.13402a2.4831 2.4649 0 0 1-0.89304 1.3759 2.7001 2.6803 0 0 1-1.6661 0.4894 2.6611 2.6416 0 0 1-2.0241-0.78225 3.0741 3.0516 0 0 1-0.74803-2.1899 3.2091 3.1856 0 0 1 0.75503-2.2614 2.5571 2.5383 0 0 1 1.9621-0.80508 2.4831 2.4649 0 0 1 1.9061 0.78821 3.1681 3.1449 0 0 1 0.73903 2.2217v0.26009h-4.3452a2.2401 2.2237 0 0 0 0.54302 1.4583 1.6201 1.6082 0 0 0 1.2161 0.50529 1.5001 1.4891 0 0 0 0.92604-0.28491 1.8901 1.8762 0 0 0 0.60703-0.90932zm-3.2381-1.5734h3.2491a1.9771 1.9626 0 0 0-0.37302-1.092 1.5101 1.499 0 0 0-1.2221-0.56783 1.5701 1.5585 0 0 0-1.1431 0.45267 1.8151 1.8018 0 0 0-0.50902 1.2061zm4.6212-2.3438h4.7222v0.81402h-1.8661v4.9774h-0.99004v-4.9774h-1.8661z" stroke-width=".99637"/>
 <g fill="#efe00b" stroke-width=".99637">
  <path d="m9.3284 37.156h-3.1841l-0.96704-2.8709a0.35102 0.34844 0 0 0-0.65803 0l-0.96904 2.8709h-3.2001a0.34702 0.34447 0 0 0-0.34602 0.34348 0.25401 0.25215 0 0 0 0.0060003 0.05758 0.33301 0.33057 0 0 0 0.14501 0.24321l2.6131 1.8305-1 2.8987a0.34702 0.34447 0 0 0 0.11901 0.38716 0.33501 0.33256 0 0 0 0.19501 0.08339 0.42402 0.42091 0 0 0 0.21601-0.07743l2.5521-1.8077 2.5521 1.8067a0.40602 0.40304 0 0 0 0.21601 0.07743 0.31101 0.30873 0 0 0 0.19301-0.08339 0.34302 0.3405 0 0 0 0.11901-0.38715l-1-2.8987 2.5951-1.8474 0.063003-0.05361a0.33101 0.32859 0 0 0-0.25501-0.57378z"/>
  <path d="m24.061 37.156h-3.1841l-0.96704-2.8709a0.35102 0.34844 0 0 0-0.65803 0l-0.96904 2.8709h-3.2001a0.34702 0.34447 0 0 0-0.34602 0.34348 0.25401 0.25215 0 0 0 6e-3 0.05758 0.33301 0.33057 0 0 0 0.14501 0.24321l2.6131 1.8305-1 2.8987a0.34702 0.34447 0 0 0 0.119 0.38716 0.33501 0.33256 0 0 0 0.19501 0.08339 0.42402 0.42091 0 0 0 0.21601-0.07743l2.5521-1.8077 2.5521 1.8067a0.40602 0.40304 0 0 0 0.21601 0.07743 0.31101 0.30873 0 0 0 0.19301-0.08339 0.34302 0.3405 0 0 0 0.119-0.38715l-1-2.8987 2.5951-1.8474 0.063-0.05361a0.33101 0.32859 0 0 0-0.25501-0.57378z"/>
  <path d="m38.794 37.156h-3.1841l-0.96704-2.8709a0.35102 0.34844 0 0 0-0.65803 0l-0.96904 2.8709h-3.2001a0.34702 0.34447 0 0 0-0.34602 0.34348 0.25401 0.25215 0 0 0 6e-3 0.05758 0.33301 0.33057 0 0 0 0.14501 0.24321l2.6131 1.8305-1 2.8987a0.34702 0.34447 0 0 0 0.119 0.38716 0.33501 0.33256 0 0 0 0.19501 0.08339 0.42402 0.42091 0 0 0 0.21601-0.07743l2.5521-1.8077 2.5521 1.8067a0.40602 0.40304 0 0 0 0.21601 0.07743 0.31101 0.30873 0 0 0 0.19301-0.08339 0.34302 0.3405 0 0 0 0.119-0.38715l-1-2.8987 2.5951-1.8474 0.063-0.05361a0.33101 0.32859 0 0 0-0.25501-0.57378z"/>
  <path d="m53.527 37.156h-3.1841l-0.96704-2.8709a0.35102 0.34844 0 0 0-0.65803 0l-0.96904 2.8709h-3.2001a0.34702 0.34447 0 0 0-0.34602 0.34348 0.25401 0.25215 0 0 0 6e-3 0.05758 0.33301 0.33057 0 0 0 0.14501 0.24321l2.6131 1.8305-1 2.8987a0.34702 0.34447 0 0 0 0.119 0.38716 0.33501 0.33256 0 0 0 0.19501 0.08339 0.42402 0.42091 0 0 0 0.21601-0.07743l2.5521-1.8077 2.5521 1.8067a0.40602 0.40304 0 0 0 0.21601 0.07743 0.31101 0.30873 0 0 0 0.19301-0.08339 0.34302 0.3405 0 0 0 0.119-0.38715l-1-2.8987 2.5951-1.8474 0.063-0.05361a0.33101 0.32859 0 0 0-0.25501-0.57378z"/>
  <path d="m68.26 37.156h-3.1841l-0.96704-2.8709a0.35102 0.34844 0 0 0-0.65803 0l-0.96904 2.8709h-3.2001a0.34702 0.34447 0 0 0-0.34602 0.34348 0.25401 0.25215 0 0 0 6e-3 0.05758 0.33301 0.33057 0 0 0 0.14501 0.24321l2.6131 1.8305-1 2.8987a0.34702 0.34447 0 0 0 0.119 0.38716 0.33501 0.33256 0 0 0 0.19501 0.08339 0.42402 0.42091 0 0 0 0.21601-0.07743l2.5521-1.8077 2.5521 1.8067a0.40602 0.40304 0 0 0 0.21601 0.07743 0.31101 0.30873 0 0 0 0.19301-0.08339 0.34302 0.3405 0 0 0 0.119-0.38715l-1-2.8987 2.5951-1.8474 0.063-0.05361a0.33101 0.32859 0 0 0-0.25501-0.57378z"/>
 </g>
</svg>
